<svg xmlns="http://www.w3.org/2000/svg" viewBox="0 0 91.61 192.28"><defs><style>.cls-1{fill:#08153a;}</style></defs><title>Asset 43</title><g id="Layer_2" data-name="Layer 2"><g id="Layer_1-2" data-name="Layer 1"><path class="cls-1" d="M22.21,192.28H77.57c-5.1-23.54,18.38-40.44,13.32-64.07C82.48,89,86.39,49.13,85.57,9.53,85.41,1.8,81,0,74.17,0,66.49,0,64,3.83,64,10.8c.08,22,0,43.92,0,63-8.74,3.19-15.8,6-23,8.25-2.24.7-5.2-.93-7.46-.26-5,1.5-9.74,3.79-14.59,5.76-1.65.67-3.47,2.21-4.91,1.91C2.83,87.15-.41,92.23.14,102.71c.63,11.94-1.07,24.12.67,35.83,1.28,8.56,6.55,16.51,9.91,24.78C14.32,172.17,17.77,181.07,22.21,192.28Z"/></g></g></svg>