<svg xmlns="http://www.w3.org/2000/svg" viewBox="0 0 81.77 189.19"><defs><style>.cls-1{fill:#08153a;}</style></defs><title>Asset 45</title><g id="Layer_2" data-name="Layer 2"><g id="Layer_1-2" data-name="Layer 1"><path class="cls-1" d="M30.73,56c8.9-12.82,10-12.92,19.23-2.78,30,33,29.73,33,22.51,77.23-3.06,18.81-4.61,37.86-7.08,58.74L17.82,184.1c-.82-13.89-2.32-27.57-2.23-41.24a393.92,393.92,0,0,1,2.93-41.58c1-8.62-2.28-13.81-11.87-18.32,3,6.85,5.19,12,8.15,18.81-18.1-7.27-19.42-21-5-34.87L37.26,88.12l2.64-3.18L15.72,64.12c1.86-2.53,3.71-5.07,6.12-8.36L57,84.09l3.08-3.6Z"/><path class="cls-1" d="M81.74,80.19C70.08,69,61.44,61.56,64.2,46.75,66.65,33.61,66,19.92,67.56,6.57,67.86,4,71.85.07,74.23,0s7.13,3.77,7.18,6C81.93,29.62,81.74,53.28,81.74,80.19Z"/></g></g></svg>