<svg xmlns="http://www.w3.org/2000/svg" viewBox="0 0 193.94 218.41"><defs><style>.cls-1{fill:#08153a;}</style></defs><title>Asset 51</title><g id="Layer_2" data-name="Layer 2"><g id="Layer_1-2" data-name="Layer 1"><path class="cls-1" d="M107.74,218.41H44.12c0-2.51,0-4.92,0-7.33-.11-10.32,2-21.26-.8-30.82-5.48-19.11-6.7-38.56-8.88-58a31.36,31.36,0,0,0-3.85-11.65C21.27,94.1,11.62,77.79,2,61.44c-3-5.21-2.8-7.15,1.56-10,6-3.83,7.83-3.58,11.49,1.88Q28.46,73.24,41.71,93.18c.64,1,1.16,2.33,2.07,2.73,1.7.74,3.87,1.59,5.41,1.08,1.09-.36,2.23-3,2-4.42-.83-6.42-2-12.8-3.26-19.16-2.86-14.85-6-29.65-8.57-44.54-.5-2.89.11-8.08,1.73-8.8,4-1.78,8.87-2,13.37-1.9,1.14,0,2.78,3.5,3.19,5.59,3.59,17.92,6.91,35.89,10.42,53.82.54,2.74.22,7,4.33,6.63s2.93-4.54,2.78-7.31C74,54.15,72.65,31.4,71.34,8.66,71,2.79,72.71.82,78.55.39l5-.36c3.56-.26,5.72,1.37,6.33,4.87a49.73,49.73,0,0,1,.76,5.94Q92.27,41,93.87,71.15c.12,2.33,0,4.78.74,6.92.61,1.71,2.35,3,3.59,4.51,1.32-1.59,3.61-3.07,3.81-4.79,1.24-10.9,2-21.86,3-32.79.7-7.62,1.55-15.22,2.38-22.82.59-5.37,2.36-6.84,7.82-6.62,1.33,0,2.67.1,4,.23,5.26.52,7,2.4,6.73,7.71-1.1,19.1-2.44,38.18-3.42,57.29-.5,9.8-1.75,19.84-.22,29.38,1.43,9,5.78,17.53,9.45,26,1.45,3.34,4.93,2.46,7.19.3,3.6-3.43,7-7.14,10.23-10.88,6.54-7.44,13.44-14.73,23.18-17.42,5.21-1.44,11.15-1,16.63-.33,2,.23,4.77,3.48,5,5.58s-1.81,5.56-3.78,6.51c-11.92,5.77-20.91,14.57-28.21,25.37-3.36,5-6.2,10.45-10.34,14.65-8.47,8.59-17.66,16.47-26.56,24.62a22.64,22.64,0,0,1-3.12,2.5c-10.48,6.61-16.17,15.53-13.94,28.38A13.92,13.92,0,0,1,107.74,218.41Z"/></g></g></svg>