<svg xmlns="http://www.w3.org/2000/svg" viewBox="0 0 88.87 140.41"><defs><style>.cls-1{fill:#373d4e;}</style></defs><title>Asset 35</title><g id="Layer_2" data-name="Layer 2"><g id="Layer_1-2" data-name="Layer 1"><path class="cls-1" d="M68.7,96.11c-12.14,3.78-18.91-1.92-17.35-14.65.52-4.28,1.19-8.53,1.69-12.09-5.92,2.38-11.86,5.3-18.12,7.08-3.27.92-5.33,2.3-5.39,5.29,0,1.84,1.26,4.1,2.63,5.5,4.47,4.52,8.26,9.25,8.7,14.08C37,98,32.13,94,27.47,89.8c-1.89-1.7-5.74-2.75-3.76-6.47,2.2-4.14,1.22-10,8.43-11.45,6.25-1.26,12.18-4.76,17.79-8,2.07-1.21,2.84-4.63,4.86-8.2-11.37,0-21,.07-30.59,0-5.61-.06-9.51,2.47-11.95,7.37C8.71,70.11,5.33,77.34,1.74,84.45c-2.67,5.29-2.22,10.21,1.06,15,4,5.91,7.74,12,12,17.74,4.72,6.3,8.31,12.75,6.69,21a6.07,6.07,0,0,0,.4,2.19H71.14c-2.15-6.75,1-11.5,4.21-16.74,3.71-6.09,5.9-13.12,9-20.29C75.86,103.85,73.35,102.56,68.7,96.11Z"/><path class="cls-1" d="M20.47,38.79c2.6,12.78,2.6,12.78,15.8,11.63A7,7,0,0,0,37.36,50c-.2-1.4-.3-2.7-.59-4q-4.53-19.62-9.14-39.2c-1.2-5.06-4.4-7.53-8.22-6.62-4.17,1-5.87,4.51-4.78,9.89Q17.55,24.43,20.47,38.79Z"/><path class="cls-1" d="M64.62,12c.78-4-1.14-7-5.17-7.75S52.63,5.36,51.76,9.5C49,23,46.2,36.41,43.35,50.24l13.36,1.11C59.34,38.37,62.08,25.22,64.62,12Z"/><path class="cls-1" d="M58.89,64.71c-1.13,6.87-2.19,13.76-3,18.59-.41,6.28,1.72,8.94,5.7,9.37,3.7.4,6.44-1.53,7.08-5.48C69.83,80.31,71,73.43,71.8,66.5c.4-3.68-1.41-6.62-5.37-7.16S59.59,60.44,58.89,64.71Z"/><path class="cls-1" d="M83.8,68.94c-4-.83-7,.76-7.85,4.92-1.15,5.69-1.93,11.46-2.85,17,.05,4.15,1.71,7,5.87,7.49s6.64-1.78,7.34-5.78c1-5.4,1.76-10.83,2.48-16.26C89.3,72.52,87.6,69.75,83.8,68.94Z"/></g></g></svg>