<svg xmlns="http://www.w3.org/2000/svg" viewBox="0 0 88.87 140.41"><defs><style>.cls-1{fill:#373d4e;}</style></defs><title>Asset 36</title><g id="Layer_2" data-name="Layer 2"><g id="Layer_1-2" data-name="Layer 1"><path class="cls-1" d="M84.33,103.38c-3.08,7.17-5.27,14.2-9,20.29-3.2,5.24-6.36,10-4.21,16.74H21.9a6.07,6.07,0,0,1-.4-2.19c1.62-8.25-2-14.7-6.69-21-4.27-5.72-8-11.83-12-17.74-3.28-4.82-3.73-9.74-1.06-15,3.59-7.11,7-14.34,10.51-21.48,2.44-4.9,6.34-7.43,12-7.37,9.61.1,19.22,0,30.59,0-2,3.57-2.79,7-4.86,8.2-5.61,3.29-11.54,6.79-17.79,8-7.21,1.45-6.23,7.31-8.43,11.45-2,3.72,1.87,4.77,3.76,6.47C32.13,94,37,98,40.86,101.32c-.44-4.83-4.23-9.56-8.7-14.08-1.37-1.4-2.67-3.66-2.63-5.5.06-3,2.12-4.37,5.39-5.29,6.26-1.78,12.2-4.7,18.12-7.08-.5,3.56-1.17,7.81-1.69,12.09C49.79,94.19,56.56,99.89,68.7,96.11,73.35,102.56,75.86,103.85,84.33,103.38ZM20.47,38.79c2.6,12.78,2.6,12.78,15.8,11.63A7,7,0,0,0,37.36,50c-.2-1.4-.3-2.7-.59-4q-4.53-19.62-9.14-39.2c-1.2-5.06-4.4-7.53-8.22-6.62-4.17,1-5.87,4.51-4.78,9.89Q17.55,24.43,20.47,38.79ZM64.62,12c.78-4-1.14-7-5.17-7.75S52.63,5.36,51.76,9.5C49,23,46.2,36.41,43.35,50.24l13.36,1.11C59.34,38.37,62.08,25.22,64.62,12ZM58.89,64.71c-1.13,6.87-2.19,13.76-3,18.59-.41,6.28,1.72,8.94,5.7,9.37,3.7.4,6.44-1.53,7.08-5.48C69.83,80.31,71,73.43,71.8,66.5c.4-3.68-1.41-6.62-5.37-7.16S59.59,60.44,58.89,64.71ZM83.8,68.94c-4-.83-7,.76-7.85,4.92-1.15,5.69-1.93,11.46-2.85,17,.05,4.15,1.71,7,5.87,7.49s6.64-1.78,7.34-5.78c1-5.4,1.76-10.83,2.48-16.26C89.3,72.52,87.6,69.75,83.8,68.94Z"/></g></g></svg>