<svg xmlns="http://www.w3.org/2000/svg" viewBox="0 0 95.47 140.75"><defs><style>.cls-1{fill:#373d4e;}</style></defs><title>Asset 37</title><g id="Layer_2" data-name="Layer 2"><g id="Layer_1-2" data-name="Layer 1"><path class="cls-1" d="M86.63,103.36c-3.29,6.9-5.6,13-8.95,18.42-3.6,5.87-8.91,10.87-5.73,19H22.37a4.73,4.73,0,0,1-.43-1.77c1.65-9-2.55-15.93-7.53-22.76-4.11-5.61-7.75-11.56-11.7-17.29-3.12-4.52-3.59-9.18-1.18-14.1C5.24,77.22,9,69.64,12.7,62c2-4.1,5.4-6.7,9.71-6.85,10.44-.36,20.89-.11,31.68-.11.22,5.72-3,9.16-7.11,11.26a64.53,64.53,0,0,1-15.31,5.61c-3.13.7-4.44,2-5.42,4.71-3.08,8.57-3,8.43,3.78,14.91,3.93,3.75,7.42,8,11.11,12l1.45-.45c-1.43-2.82-2.56-5.85-4.36-8.42s-4.47-4.49-6.33-7a10,10,0,0,1-2.18-5.73c.13-3.12,1.79-5.48,5.54-5.7,2.09-.13,4.14-1,6.78-1.61-.78,3.2-1.52,6-2.14,8.84-1.78,8,4.31,14.88,12.47,14.48,1.86-.1,3.78.9,5.65,1.44.29.09.49.55.78.61,4.37.81,9.35.55,13,2.64C76.36,105.25,80.39,105.43,86.63,103.36ZM45.55,49.94c-.87-14.42-1.64-28.33-2.61-42.22C42.59,2.67,39.79,0,35.58,0c-4.4,0-7.09,2.86-7.34,8.25-.51,11.44-.85,22.9-1.23,34.35-.08,2.41,0,4.83,0,7.34Zm8.19,17.12c-5.79,4-7.12,10-8.83,16-1.18,4.18-1,7.55,3.84,9.2,4.14,1.41,8.18.2,9.68-4.39,3.08-9.43,6.07-19,7.8-28.72,1.45-8.16-2.44-11-9.61-9.94.86,1.79,2.11,3.33,2.3,5C59.52,59.35,57.83,64.2,53.74,67.06ZM72.52,92.43C76.2,85.05,79.05,77.24,82,69.51c.66-1.75,1-4.49,0-5.8-1.56-2.22-4-4.64-6.48-5.16-2.67-.56-4,2-4.81,5.07-2.72,10.53-6,20.89-9.32,31.92C65.69,98.09,69.91,97.65,72.52,92.43ZM88.09,69.49,75.41,98.87c4.39,2.3,8.75,1.93,11.77-2.89a64.16,64.16,0,0,0,7.74-17.45C96.59,72.21,94.54,70.38,88.09,69.49Z"/></g></g></svg>