<svg xmlns="http://www.w3.org/2000/svg" viewBox="0 0 136.69 62.81"><defs><style>.cls-1{fill:#f0decd;}</style></defs><title>Asset 38</title><g id="Layer_2" data-name="Layer 2"><g id="Layer_1-2" data-name="Layer 1"><path class="cls-1" d="M0,47.23c3.38-4.39,6.17-8.16,9.11-11.8,5.41-6.73,10.75-13.53,16.48-20A20.76,20.76,0,0,1,33,10.71c7.79-3.27,15.75-6.14,23.58-9.33a17.67,17.67,0,0,1,14,.13C83.79,6.89,97,12.25,110.4,17.22a51.67,51.67,0,0,0,13,2.5c4.24.42,8.55.09,13.28.09V51.29c-.09.05-.52.5-.92.47-16.31-1.09-31.57,3.84-46.71,8.65-10.4,3.31-19.82,3.74-29.41-2.24C54.48,55,48.52,53,43,50.3c-4.33-2.12-4.66-5.65-.29-7.51a25.44,25.44,0,0,1,11.47-1.62c4.75.34,9.41,1.9,14.13,2.87a19,19,0,0,0,4.42.59c4.78-.11,8.45-2.29,9.87-6.93s-1.21-8.25-5.07-10.3C69.64,23.23,61.85,20,52.06,21.75S33.65,25.59,27.22,34c-3.28,4.28-7.91,7.55-12,11.14S6.18,48.45,0,47.23Z"/></g></g></svg>