<svg xmlns="http://www.w3.org/2000/svg" viewBox="0 0 147.94 47.04"><defs><style>.cls-1{fill:#f0decd;}</style></defs><title>Asset 39</title><g id="Layer_2" data-name="Layer 2"><g id="Layer_1-2" data-name="Layer 1"><path class="cls-1" d="M146.18,47c-6.84-2.59-12.94-4.39-18.58-7.13-13.52-6.55-27.31-7.36-41.58-3.19-1.11.32-2.32.35-3.39.76-13.71,5.29-26.29,1.94-39.1-3.89C30.55,27.69,17,23.18,3.63,18A38.43,38.43,0,0,1,0,16.16c4.79-7,11.73-7.42,18.49-6.35,9.79,1.55,19.43,4.06,27.8,5.88C46,20.21,44.5,24.36,45.88,27c2.28,4.43,7.12,2,10.85,1.25,11.75-2.52,23.46-5.28,35.18-8l-.48-2.62L49.55,24.43,48.7,23c3.51-2.82,6.6-6.72,10.6-8.28,13-5.08,26-10,39.45-13.63,11.09-3,21.66.59,29.93,8.41a28.76,28.76,0,0,0,14.92,8,35.63,35.63,0,0,1,4.34,1.44C147.38,27.91,146.8,37.11,146.18,47Z"/></g></g></svg>