<svg xmlns="http://www.w3.org/2000/svg" xmlns:xlink="http://www.w3.org/1999/xlink" viewBox="0 0 97.47 142.75"><defs><style>.cls-1,.cls-2,.cls-3,.cls-4,.cls-5{fill:#e5c4ae;stroke-miterlimit:10;stroke-width:2px;}.cls-1{stroke:url(#linear-gradient);}.cls-2{stroke:url(#linear-gradient-2);}.cls-3{stroke:url(#linear-gradient-3);}.cls-4{stroke:url(#linear-gradient-4);}.cls-5{stroke:url(#linear-gradient-5);}</style><linearGradient id="linear-gradient" y1="98.86" x2="89.54" y2="98.86" gradientUnits="userSpaceOnUse"><stop offset="0" stop-color="#f9e6d5"/><stop offset="1" stop-color="#b29a8d"/></linearGradient><linearGradient id="linear-gradient-2" x1="26.97" y1="25.97" x2="47.62" y2="25.97" xlink:href="#linear-gradient"/><linearGradient id="linear-gradient-3" x1="44.31" y1="71.92" x2="68.53" y2="71.92" xlink:href="#linear-gradient"/><linearGradient id="linear-gradient-4" x1="61.23" y1="78.76" x2="84.6" y2="78.76" xlink:href="#linear-gradient"/><linearGradient id="linear-gradient-5" x1="75.13" y1="85.82" x2="97.47" y2="85.82" xlink:href="#linear-gradient"/></defs><title>Asset 28</title><g id="Layer_2" data-name="Layer 2"><g id="Layer_1-2" data-name="Layer 1"><path class="cls-1" d="M43.59,104.07c-1.43-2.82-2.56-5.85-4.36-8.42s-4.47-4.49-6.33-7a10,10,0,0,1-2.18-5.73c.13-3.12,1.79-5.48,5.54-5.7,2.09-.13,4.14-1,6.78-1.61-.78,3.2-1.52,6-2.14,8.84-1.78,8,4.31,14.88,12.47,14.48,1.86-.1,3.78.9,5.65,1.44.29.09.49.55.78.61,4.37.81,9.34.55,13,2.64,4.59,2.64,8.62,2.82,14.86.75-3.29,6.9-5.6,13-8.95,18.42-3.6,5.87-8.91,10.87-5.73,19H23.37c-.15-.59-.53-1.22-.43-1.77,1.65-9-2.55-15.93-7.53-22.76-4.11-5.62-7.75-11.56-11.7-17.29C.59,95.41.12,90.75,2.53,85.83,6.24,78.22,10,70.64,13.7,63c2-4.1,5.4-6.7,9.71-6.85,10.44-.36,20.89-.11,31.68-.11.22,5.72-3,9.16-7.11,11.26a64.53,64.53,0,0,1-15.31,5.61c-3.13.7-4.44,2-5.42,4.71-3.08,8.57-3,8.42,3.78,14.91,3.93,3.75,7.42,8,11.11,12Z"/><path class="cls-2" d="M46.55,50.94H28c0-2.51-.06-4.93,0-7.34.38-11.45.72-22.91,1.23-34.35C29.49,3.86,32.18,1,36.58,1c4.21,0,7,2.67,7.36,7.72C44.91,22.61,45.68,36.52,46.55,50.94Z"/><path class="cls-3" d="M57.62,50.23c7.17-1.08,11.06,1.78,9.61,9.94-1.73,9.73-4.72,19.29-7.8,28.72-1.5,4.59-5.54,5.8-9.68,4.39-4.82-1.65-5-5-3.84-9.2,1.71-6,3-12,8.83-16,4.09-2.86,5.78-7.71,5.18-12.83C59.73,53.56,58.48,52,57.62,50.23Z"/><path class="cls-4" d="M62.41,96.54c3.28-11,6.6-21.39,9.32-31.92.79-3.06,2.14-5.63,4.81-5.07,2.46.52,4.92,2.94,6.48,5.16.92,1.31.62,4.05,0,5.8-2.93,7.73-5.78,15.54-9.46,22.92C70.91,98.65,66.69,99.09,62.41,96.54Z"/><path class="cls-5" d="M89.09,70.49c6.45.89,8.5,2.72,6.83,9A64.16,64.16,0,0,1,88.18,97c-3,4.82-7.38,5.19-11.77,2.89C80.59,90.19,84.75,80.53,89.09,70.49Z"/></g></g></svg>