<svg xmlns="http://www.w3.org/2000/svg" xmlns:xlink="http://www.w3.org/1999/xlink" viewBox="0 0 90.88 142.41"><defs><style>.cls-1,.cls-2,.cls-3,.cls-4,.cls-5{fill:#e5c4ae;stroke-miterlimit:10;stroke-width:2px;}.cls-1{stroke:url(#linear-gradient);}.cls-2{stroke:url(#linear-gradient-2);}.cls-3{stroke:url(#linear-gradient-3);}.cls-4{stroke:url(#linear-gradient-4);}.cls-5{stroke:url(#linear-gradient-5);}</style><linearGradient id="linear-gradient" y1="99" x2="86.88" y2="99" gradientUnits="userSpaceOnUse"><stop offset="0" stop-color="#f9e6d5"/><stop offset="1" stop-color="#b29a8d"/></linearGradient><linearGradient id="linear-gradient-2" x1="14.31" y1="26.45" x2="39.46" y2="26.45" xlink:href="#linear-gradient"/><linearGradient id="linear-gradient-3" x1="43.14" y1="28.77" x2="66.79" y2="28.77" xlink:href="#linear-gradient"/><linearGradient id="linear-gradient-4" x1="55.88" y1="76.98" x2="73.85" y2="76.98" xlink:href="#linear-gradient"/><linearGradient id="linear-gradient-5" x1="73.1" y1="84.59" x2="90.88" y2="84.59" xlink:href="#linear-gradient"/></defs><title>Asset 29</title><g id="Layer_2" data-name="Layer 2"><g id="Layer_1-2" data-name="Layer 1"><path class="cls-1" d="M41.86,102.32c-.44-4.83-4.23-9.56-8.7-14.08-1.37-1.4-2.67-3.66-2.63-5.5.06-3,2.12-4.37,5.39-5.29,6.26-1.78,12.2-4.7,18.12-7.08-.5,3.56-1.17,7.81-1.69,12.09-1.56,12.73,5.21,18.43,17.35,14.65,4.65,6.45,7.16,7.74,15.63,7.27-3.08,7.17-5.27,14.2-9,20.29-3.2,5.24-6.36,10-4.21,16.74H22.9a6.07,6.07,0,0,1-.4-2.19c1.62-8.25-2-14.7-6.69-21-4.27-5.72-8-11.83-12-17.74-3.28-4.82-3.73-9.74-1.06-15,3.59-7.11,7-14.34,10.51-21.48,2.44-4.9,6.34-7.43,12-7.37,9.61.1,19.22,0,30.59,0-2,3.57-2.79,7-4.86,8.2-5.61,3.29-11.54,6.79-17.79,8-7.21,1.45-6.23,7.31-8.43,11.45-2,3.72,1.87,4.77,3.76,6.47C33.13,95,38,99,41.86,102.32Z"/><path class="cls-2" d="M38.36,51a7,7,0,0,1-1.09.46c-13.2,1.15-13.2,1.15-15.8-11.63q-2.91-14.35-5.84-28.71c-1.09-5.38.61-8.9,4.78-9.89,3.82-.91,7,1.56,8.22,6.62Q33.28,27.39,37.77,47C38.06,48.26,38.16,49.56,38.36,51Z"/><path class="cls-3" d="M44.35,51.24C47.2,37.41,50,24,52.76,10.5c.87-4.14,3.76-5.95,7.69-5.21S66.4,9,65.62,13c-2.54,13.18-5.28,26.33-7.91,39.31Z"/><path class="cls-4" d="M56.93,84.3c.77-4.83,1.83-11.72,3-18.59.7-4.27,3.58-5.91,7.54-5.37s5.77,3.48,5.37,7.16c-.77,6.93-2,13.81-3.09,20.69-.64,4-3.38,5.88-7.08,5.48C58.65,93.24,56.52,90.58,56.93,84.3Z"/><path class="cls-5" d="M74.1,91.91c.92-5.59,1.7-11.36,2.85-17,.84-4.16,3.9-5.75,7.85-4.92,3.8.81,5.5,3.58,5,7.42-.72,5.43-1.53,10.86-2.48,16.26-.7,4-3.22,6.24-7.34,5.78S74.15,96.06,74.1,91.91Z"/></g></g></svg>