<svg xmlns="http://www.w3.org/2000/svg" viewBox="0 0 88.88 140.41"><defs><style>.cls-1{fill:#08153a;}</style></defs><title>Asset 31</title><g id="Layer_2" data-name="Layer 2"><g id="Layer_1-2" data-name="Layer 1"><path class="cls-1" d="M40.86,101.32c-.44-4.83-4.23-9.56-8.7-14.08-1.37-1.4-2.67-3.66-2.63-5.5.06-3,2.12-4.37,5.39-5.29,6.26-1.78,12.2-4.7,18.12-7.08-.5,3.56-1.17,7.81-1.69,12.09C49.79,94.19,56.56,99.89,68.7,96.11c4.65,6.45,7.16,7.74,15.63,7.27-3.08,7.17-5.27,14.2-9,20.29-3.2,5.24-6.36,10-4.21,16.74H21.9a6.07,6.07,0,0,1-.4-2.19c1.62-8.25-2-14.7-6.69-21-4.27-5.72-8-11.83-12-17.74-3.28-4.82-3.73-9.74-1.06-15,3.59-7.11,7-14.34,10.51-21.48,2.44-4.9,6.34-7.43,12-7.37,9.61.1,19.22,0,30.59,0-2,3.57-2.79,7-4.86,8.2-5.61,3.29-11.54,6.79-17.79,8-7.21,1.45-6.23,7.31-8.43,11.45-2,3.72,1.87,4.77,3.76,6.47C32.13,94,37,98,40.86,101.32Z"/><path class="cls-1" d="M37.36,50a7,7,0,0,1-1.09.46c-13.2,1.15-13.2,1.15-15.8-11.63q-2.91-14.35-5.84-28.71c-1.09-5.38.61-8.9,4.78-9.89,3.82-.91,7,1.56,8.22,6.62Q32.28,26.39,36.77,46C37.06,47.26,37.16,48.56,37.36,50Z"/><path class="cls-1" d="M43.35,50.24C46.2,36.41,49,23,51.76,9.5c.87-4.14,3.76-5.95,7.69-5.21S65.4,8,64.62,12c-2.54,13.18-5.28,26.33-7.91,39.31Z"/><path class="cls-1" d="M55.93,83.3c.77-4.83,1.83-11.72,3-18.59.7-4.27,3.58-5.91,7.54-5.37s5.77,3.48,5.37,7.16c-.77,6.93-2,13.81-3.09,20.69-.64,4-3.38,5.88-7.08,5.48C57.65,92.24,55.52,89.58,55.93,83.3Z"/><path class="cls-1" d="M73.1,90.91c.92-5.59,1.7-11.36,2.85-17,.84-4.16,3.9-5.75,7.85-4.92,3.8.81,5.5,3.58,5,7.42-.72,5.43-1.53,10.86-2.48,16.26-.7,4-3.22,6.24-7.34,5.78S73.15,95.06,73.1,90.91Z"/></g></g></svg>