<svg xmlns="http://www.w3.org/2000/svg" viewBox="0 0 95.47 140.75"><defs><style>.cls-1{fill:#373d4e;}</style></defs><title>Asset 34</title><g id="Layer_2" data-name="Layer 2"><g id="Layer_1-2" data-name="Layer 1">
<path class="cls-1" d="M71.77,102.61c-3.62-2.09-8.6-1.83-13-2.64-.29-.06-.49-.52-.78-.61-1.87-.54-3.79-1.54-5.65-1.44-8.16.4-14.25-6.49-12.47-14.48.62-2.83,1.36-5.64,2.14-8.84-2.64.65-4.69,1.48-6.78,1.61-3.75.22-5.41,2.58-5.54,5.7a10,10,0,0,0,2.18,5.73c1.86,2.52,4.54,4.45,6.33,7s2.93,5.6,4.36,8.42l-1.45.45c-3.69-4-7.18-8.22-11.11-12-6.82-6.48-6.86-6.34-3.78-14.91,1-2.73,2.29-4,5.42-4.71A64.53,64.53,0,0,0,47,66.32c4.1-2.1,7.33-5.54,7.11-11.26-10.79,0-21.24-.25-31.68.11-4.31.15-7.72,2.75-9.71,6.85C9,69.64,5.24,77.22,1.53,84.83c-2.41,4.92-1.94,9.58,1.18,14.1,4,5.73,7.59,11.68,11.7,17.29,5,6.83,9.18,13.78,7.53,22.76a4.73,4.73,0,0,0,.43,1.77H72c-3.18-8.1,2.13-13.1,5.73-19,3.35-5.44,5.66-11.52,8.95-18.42C80.39,105.43,76.36,105.25,71.77,102.61Z"/>
<path class="cls-1" d="M45.55,49.94c-.87-14.42-1.64-28.33-2.61-42.22C42.59,2.67,39.79,0,35.58,0c-4.4,0-7.09,2.86-7.34,8.25-.51,11.44-.85,22.9-1.23,34.35-.08,2.41,0,4.83,0,7.34Z"/><path class="cls-1" d="M53.74,67.06c-5.79,4-7.12,10-8.83,16-1.18,4.18-1,7.55,3.84,9.2,4.14,1.41,8.18.2,9.68-4.39,3.08-9.43,6.07-19,7.8-28.72,1.45-8.16-2.44-11-9.61-9.94.86,1.79,2.11,3.33,2.3,5C59.52,59.35,57.83,64.2,53.74,67.06Z"/><path class="cls-1" d="M72.52,92.43C76.2,85.05,79.05,77.24,82,69.51c.66-1.75,1-4.49,0-5.8-1.56-2.22-4-4.64-6.48-5.16-2.67-.56-4,2-4.81,5.07-2.72,10.53-6,20.89-9.32,31.92C65.69,98.09,69.91,97.65,72.52,92.43Z"/><path class="cls-1" d="M88.09,69.49,75.41,98.87c4.39,2.3,8.75,1.93,11.77-2.89a64.16,64.16,0,0,0,7.74-17.45C96.59,72.21,94.54,70.38,88.09,69.49Z"/>
</g></g></svg>