<svg xmlns="http://www.w3.org/2000/svg" viewBox="0 0 115.23 223.64"><defs><style>.cls-1{fill:#08153a;}</style></defs><title>Asset 47</title><g id="Layer_2" data-name="Layer 2"><g id="Layer_1-2" data-name="Layer 1"><path class="cls-1" d="M92.43,223.64H28.56a63.37,63.37,0,0,1,0-7.3c1.91-16.44-3.5-31-10.83-45.28C12.11,160,7.55,148.35,2.87,136.81,1.32,133,.92,128.72,0,124.65l1.4-.51c3.82,5.36,7.69,10.67,11.42,16.08,5.4,7.83,10.59,8.9,18.32,3.25,3.2-2.34,6-4.17,10.44-4.32,7-.25,14.41-8.37,15.49-15.22a6.11,6.11,0,0,1,2.25-3.27c3-2.39,6.76-4.07,8.95-7,2-2.63,2.28-6.53,3.49-10.43l9.8.93c.26,3.89.16,7.88.92,11.69.36,1.76,2.41,3.18,3.69,4.75,1.06-1.61,3-3.2,3-4.82.1-5.14-.48-10.29-.86-15.44-.26-3.61-2.47-4.21-5.61-3.63a19.82,19.82,0,0,1-19-6.25c-1.37-1.47-1.67-3.94-2.46-6a52.84,52.84,0,0,1,5.41-1c7.28-.54,14.56-1.07,21.85-1.44,10.7-.53,10.7-.46,15.34,9.36,2.84,6,5.6,12.06,8.56,18a24.15,24.15,0,0,1,.52,21.64c-5,11.07-9.79,22.2-15.15,33.08a50.86,50.86,0,0,0-5.4,24C92.61,199.85,92.43,211.47,92.43,223.64Z"/><path class="cls-1" d="M78.5,76.18,56.65,77.62c0-14-.1-29.41,0-44.8.08-8.48.52-17,.88-25.43C57.8,2,59.56.35,65,.25c2,0,4.36-.65,5.9.19,2.17,1.2,3.81,3.44,5.48,5.39.42.5.11,1.62.13,2.45C77.14,30.71,77.81,53.14,78.5,76.18Z"/><path class="cls-1" d="M19.43,82.42c1.3,1.09,2.35,1.64,2.95,2.51C31,97.31,39.67,109.69,48.1,122.21c.67,1,.21,3.28-.49,4.53s-2.45,2.17-3.68,3.28c-3.24,2.92-5.64,2.24-8-1.3-7.59-11.3-15.41-22.43-23-33.73-1.17-1.75-2.79-5.09-2.12-5.86C13.12,86.49,16.37,84.68,19.43,82.42Z"/><path class="cls-1" d="M36.24,66.26a37.67,37.67,0,0,0,2.1,4c7.86,11.53,15.71,23.07,23.71,34.5,1.79,2.54,1.27,3.94-1,5.71-7.54,5.83-7.79,5.81-13.13-2-6.66-9.73-13.25-19.52-20.22-29-2.92-4-2.36-6.4,1.75-8.63,1.87-1,3.59-2.32,5.37-3.49Z"/><path class="cls-1" d="M30.22,134.58c-1.92,1.3-3.91,3-6.22,4-1,.41-3.22-.41-3.94-1.38-4.95-6.67-9.75-13.46-14.33-20.39-.67-1-.44-3.89.26-4.27,2.34-1.27,6.81-3.17,7.42-2.41,5.76,7.28,10.9,15.06,16.21,22.7A10.81,10.81,0,0,1,30.22,134.58Z"/></g></g></svg>