<svg xmlns="http://www.w3.org/2000/svg" viewBox="0 0 120.87 222.66"><defs><style>.cls-1{fill:#e5c4ae;}.cls-2{fill:none;stroke:#000;stroke-linecap:round;stroke-linejoin:round;stroke-width:2px;}</style></defs><title>Asset 15</title><g id="Layer_2" data-name="Layer 2"><g id="Layer_1-2" data-name="Layer 1"><path class="cls-1" d="M73.75,197.38c.18,1.59.15,1.31-.09-.86-.12-1.22-.22-2.44-.3-3.67-.12-1.83-.19-3.67-.22-5.5a116.59,116.59,0,0,1,.56-12.81c0-.3.74-5.54.3-2.64q.56-3.65,1.3-7.26c.8-3.95,1.75-7.86,2.82-11.75,4.57-16.62,11.19-32.57,17.87-48.43C99.56,96,92.16,84.84,83.77,82.93,73.51,80.6,66.06,86.09,62.24,95.16,47.14,131,34.12,167.26,40,206.69c1.36,9.08,13.29,14.89,21.53,12.22,9.91-3.21,13.68-11.79,12.22-21.53Z"/><path class="cls-1" d="M88,171.11c.45-1.66.92-3.3,1.47-4.93.12-.36,1.62-4.43.94-2.71s1-2.25,1.22-2.6c.76-1.53,1.57-3.05,2.43-4.53,2.28-3.93,4.22-7.43,4.84-12a19.13,19.13,0,0,0-5.87-16.42c-6.14-5.7-14.12-6-21.91-7.52-6.67-1.27-13.3-2.76-19.88-4.42-8.87-2.24-19.4,2.87-21.53,12.22C27.67,137.25,32.47,147.3,42,149.7c5.69,1.43,11.41,2.74,17.16,3.89q4.1.81,8.2,1.52l3.65.61c.81.1,1.6.24,2.4.4q3.6.82-4.34-2.74l-4.5-7.72.33,1v-9.31q1.65-3.09-.12-.12c-.59,1-1.17,2-1.72,3-1.1,2-2.09,4.05-3,6.14a106.19,106.19,0,0,0-5.71,15.49c-2.43,8.82,3,19.43,12.22,21.53S85.43,180.55,88,171.11Z"/><path class="cls-1" d="M63.5,146.28l0-16.19c0-2.54,0-5.09,0-7.63,0-.82-.62-3.32-.17-1.13-.24,1.27-.25,1.42,0,.46q1.32-5.06-5.15,6.25c7.64-5,11.58-15.71,6.27-23.94-4.91-7.63-15.76-11.66-23.94-6.28-16,10.51-12,31.9-11.94,48.46,0,9.15,8,17.92,17.5,17.5s17.51-7.69,17.5-17.5Z"/><path class="cls-1" d="M47.68,179c9.15,0,17.92-8.05,17.5-17.5S57.49,144,47.68,144c-9.16,0-17.93,8-17.5,17.5S37.86,179,47.68,179Z"/><path class="cls-1" d="M48.08,203.72a13.38,13.38,0,0,1,1.27.85l-3.54-2.73a11.81,11.81,0,0,1,1.92,1.95L45,200.25a12,12,0,0,1,1.25,2.1,13.29,13.29,0,0,0,4.5,4.91,13.16,13.16,0,0,0,5.95,3.13,13.27,13.27,0,0,0,7,.31,13,13,0,0,0,6.51-2.07c3.74-2.41,7-6,8-10.46l.63-4.65a17.48,17.48,0,0,0-2.39-8.84,26.76,26.76,0,0,0-4.56-6.34,13.14,13.14,0,0,0-1.34-1.25,39,39,0,0,0-4.81-3.59,13.07,13.07,0,0,0-6.51-2.08,13.27,13.27,0,0,0-7,.32,13.11,13.11,0,0,0-5.95,3.13,13.16,13.16,0,0,0-4.51,4.91c-2.14,4.06-3.22,9-1.76,13.48a18.33,18.33,0,0,0,8,10.46Z"/><path class="cls-1" d="M.1,51.11C1.31,62.23,7.66,71.26,12.79,80.92c5.5,10.36,10.56,21,15.08,31.78,1.47,3.51,4.62,5.94,8.61,4.89,3.3-.87,6.35-5.13,4.89-8.61-4.26-10.2-8.82-20.25-13.86-30.08-2.45-4.79-5-9.51-7.65-14.2-2.38-4.24-5.22-8.65-5.76-13.59-.41-3.79-2.92-7-7-7-3.47,0-7.41,3.25-7,7Z"/><path class="cls-1" d="M15.24,92.93c4.53,9.73,6.58,20.42,8.16,31,1.72,11.44,3.14,22.93,4.69,34.39.51,3.78,5.31,5.76,8.61,4.89,4-1.07,5.39-4.88,4.89-8.61-3.11-23-4.34-47.38-14.26-68.71-3.79-8.16-15.86-1.06-12.09,7.07Z"/><path class="cls-1" d="M22.93,125.17A49.2,49.2,0,0,0,24.69,140a7,7,0,0,0,13.5-3.72,35.54,35.54,0,0,1-1.26-11.06,7,7,0,0,0-14,0Z"/><path class="cls-1" d="M46.4,108.13c5.94-1.18,12-1.79,18-2.62,3.74-.52,5.79-5.31,4.89-8.61-1.11-4-4.86-5.41-8.62-4.89-6,.83-12.08,1.44-18,2.62-3.71.74-5.84,5.15-4.89,8.61,1.06,3.87,4.89,5.63,8.61,4.89Z"/><path class="cls-1" d="M28.56,23.86c4.75,22.77,10.55,45.63,11.85,68.93.49,8.95,14.5,9,14,0C53,68.23,47.07,44.14,42.06,20.14c-1.84-8.81-15.34-5.08-13.5,3.72Z"/><path class="cls-1" d="M41.2,66.84c9,0,9-14,0-14s-9,14,0,14Z"/><path class="cls-1" d="M36.41,27.14c9,0,9-14,0-14s-9,14,0,14Z"/><path class="cls-1" d="M51.05,98.94H64c9,0,9-14,0-14h-13c-9,0-9,14,0,14Z"/><path class="cls-1" d="M42.61,74.16c9,0,9-14,0-14s-9,14,0,14Z"/><path class="cls-1" d="M60.87,8.91A520.91,520.91,0,0,1,60.27,99c-.84,9,13.16,8.91,14,0a520.91,520.91,0,0,0,.6-90.06c-.72-8.92-14.73-9-14,0Z"/><path class="cls-1" d="M59.93,49.44q1.6,21.5,1.53,43.07c0,9,14,9,14,0q.08-21.57-1.53-43.07c-.67-8.93-14.68-9-14,0Z"/><path class="cls-1" d="M63.44,94.72c9,0,9-14,0-14s-9,14,0,14Z"/><path class="cls-1" d="M64.58,42.67q.21,8.88-.28,17.74c-.51,9,13.5,9,14,0q.49-8.86.28-17.74c-.21-9-14.21-9-14,0Z"/><path class="cls-1" d="M106.5,16.42A175,175,0,0,0,99.26,36c-1.87,6.61-2.52,13.49-4.42,20.08-3.7,12.82-11.36,24.1-18.65,35.11-5,7.54,7.13,14.56,12.09,7.07,7.68-11.6,15.31-23.43,19.55-36.8,2.17-6.82,2.81-14,4.68-20.87A165.28,165.28,0,0,1,120,20.14c1.46-3.52-1.59-7.66-4.89-8.61-4-1.15-7.17,1.42-8.61,4.89Z"/><path class="cls-1" d="M106.86,23c-1.47,9.44-5.35,18.07-8.54,27C95,59.48,93.25,69.28,91.49,79.12c-1.88,10.47-3.83,20.92-5.63,31.41-1.49,8.65-2.48,17.5,2.47,25.29,4.82,7.58,16.94.56,12.09-7.07-4.3-6.76-.59-17.11.7-24.32q2.44-13.68,4.9-27.36a149.14,149.14,0,0,1,6.41-25c3.08-8.36,6.55-16.49,7.93-25.34.58-3.77-1-7.49-4.89-8.61-3.32-.95-8,1.16-8.61,4.89Z"/><path class="cls-1" d="M99.51,55.62c0,.7,0,1.4,0,2.1-.08.86-.08.93,0,.23,0,.35-.11.69-.19,1-.14.68-.31,1.36-.51,2-.08.26-.9,2.31-.43,1.27-1.5,3.33-1.07,7.69,2.51,9.58,3.06,1.62,8,1,9.58-2.51a31.54,31.54,0,0,0,3.05-13.74c-.07-3.66-3.17-7.17-7-7a7.12,7.12,0,0,0-7,7Z"/><path class="cls-1" d="M108.77,58.4c9,0,9-14,0-14s-9,14,0,14Z"/><path class="cls-1" d="M103.14,77.82c9,0,9-14,0-14s-9,14,0,14Z"/><path class="cls-1" d="M99.28,126.31l.58-7L86.11,121.2c.44,2.12.93,4.24,1.49,6.33a7,7,0,1,0,13.49-3.72q-.82-3.15-1.48-6.33c-.69-3.41-4.46-5.45-7.68-5-3.61.49-5.77,3.36-6.07,6.88l-.58,7c-.3,3.66,3.44,7.16,7,7,4.06-.18,6.67-3.08,7-7Z"/><path class="cls-1" d="M93.85,145.12c9,0,9-14,0-14s-9,14,0,14Z"/><path class="cls-1" d="M44,213.11l2.75-16.87c.81-4.92,2.29-10.2,1.71-15.2-.48-4.14-3.57-6.66-4.48-10-.6-2.25-.21-4.35-1.28-6.56a9.73,9.73,0,0,0-2-2.8,6.78,6.78,0,0,0-1.12-1c-1-.82-.95-.72.28.32-3.92-8.11-16-1-12.09,7.06a7,7,0,0,0,1.56,2.38q2.49,2.26.61-.09c.23,1.46.06,3,.34,4.44.66,3.41,3.49,5.49,4.3,8.39.43,1.55-.5,4.05-.74,5.57l-1.07,6.56-2.3,14c-.62,3.76,1,7.49,4.89,8.61,3.33,1,8-1.16,8.61-4.88Z"/><path class="cls-1" d="M44.58,220l34,2.6c3.59.28,7.26-3.43,7-7-.67-9.4-1.55-19.15.28-28.49,1.75-8.92,5.66-17.15,5.22-26.44h-14a12.74,12.74,0,0,0,1.75,5.84c3.11,5,11.23,4.28,12.8-1.67a35,35,0,0,0,1.07-7.34c.36-9-13.64-9-14,0a9.29,9.29,0,0,1-.57,3.62l12.79-1.67.16,1.22c-1-8.72-14.44-9.19-14,0s-4,17.58-5.34,26.46c-1.38,9.48-.84,19-.16,28.47l7-7-34-2.6c-9-.69-8.95,13.31,0,14Z"/><path class="cls-2" d="M77.86,82.47c3.85-.81,6.35-3.46,8-6.69A184.38,184.38,0,0,0,101.1,34c1.22-5.1,1.31-10.61,3.09-15.71.86-2.45,1.82-4.88,3.85-6.67,2.88-2.53,7.68-1.52,9.59,1.68,2.54,4.24,2.56,8.78,1.83,13-1.55,9-3.43,18-5,27A128.35,128.35,0,0,1,106.22,80c-2.65,6.35-3.76,13-4.87,19.67-.66,4-1.73,7.92-1.32,11.92.71,6.78,1.25,13.54,1.39,20.35a22.74,22.74,0,0,1-2.27,10.82A66.61,66.61,0,0,0,93,163.86a38.67,38.67,0,0,1-3.9,11.91,20.55,20.55,0,0,0-2.1,9.14c-.27,11.93-.67,23.85-1,35.78"/><path class="cls-2" d="M36.09,97.21c-2.44-2-3.37-4.87-4.19-7.73a63.84,63.84,0,0,0-7.37-17.2c-4.35-6.82-7-14.52-10.56-21.72-.61-1.22-1.41-2.38-2-3.56a5.2,5.2,0,0,0-6.05-3.06C3.36,44.38,1.17,47.3,1,50.2.78,55,2.68,59.27,4.52,63.52c5.76,13.38,11.57,26.72,15.83,40.69a41.38,41.38,0,0,1,1.71,11.24c.11,5.26-.18,10.57.44,15.77.9,7.42,2.41,14.76,3.78,22.11,2,10.52,4.72,20.86,7.3,31.24,1.23,5,.3,10.06,0,15.07-.34,5.39-1.57,10.71-1.69,16.14"/><path class="cls-2" d="M72.59,83.17h5c-1.06-7.13-.48-14,.1-20.68a143.93,143.93,0,0,0-.2-29.13c-.33-2.82-.18-5.61-.3-8.42-.23-5.61-.23-11.25-.77-16.83C75.91,3.16,72,.48,67,1.08c-3.9.47-7,4.75-6.3,9.12C62.41,21.79,62,33.32,60.77,45c-1.07,9.88-.55,19.87-.08,29.8a10.8,10.8,0,0,1-4.76,10.07c-2.37-3.19-2.41-6.76-2.7-10.41A228.06,228.06,0,0,0,47.05,38.6c-1.52-6.22-1.3-12.81-3.59-18.92a18.83,18.83,0,0,0-1.07-2.8C40.18,13,38.2,12.05,34.69,13c-3.86,1.06-6,3.68-5.94,7.72a59.06,59.06,0,0,0,2.43,14.38,74.2,74.2,0,0,1,2.77,19,68.27,68.27,0,0,0,2.94,18.56c1.83,6.48,1.66,13.14,2.71,19.67.21,1.28-.75,2-1.4,2.81-3.11,4.13-2.65,8.31,1.43,11.55a34.08,34.08,0,0,0,4.18,2.48"/><path class="cls-2" d="M58.55,128.08c-1.4,6.9-2.55,13.86-4.29,20.67-1.39,5.49-1.29,11-1.32,16.51"/><path class="cls-2" d="M98.56,130.88c-1-4.14-3.6-7.56-6.07-10.79-5.39-7-11.37-13.63-17.08-20.44a8.22,8.22,0,0,0-6.68-3.2c-3.51,0-7-.74-10.52-.54-2.58.14-4.93-.51-7.37-.83-3.64-.49-7.26-1.15-10.89-1.73"/><path class="cls-2" d="M62.06,116.85c-.35,2.3,1.57,3.55,2.48,5.25,1.26,2.38,3.15,4.37,3.25,7.38a6.76,6.76,0,0,0,2,4.21"/><path class="cls-2" d="M90.84,108.43c-2.16,0-4.34-.06-6.32,1"/><path class="cls-2" d="M110.85,63.88c-1.72-.69-3.52-.21-5.27-.35"/><path class="cls-2" d="M27.32,77.91c-1.48.66-3,.23-4.56.35"/><path class="cls-2" d="M85.93,102.12,81.37,106"/><path class="cls-2" d="M115.76,39.32,112.6,39"/><path class="cls-2" d="M81.72,100l-2.81,2.11"/><path class="cls-2" d="M70.49,126.67c-1,.61-1.71-1.52-2.81-.35"/></g></g></svg>