<svg xmlns="http://www.w3.org/2000/svg" viewBox="0 0 114.29 190.35"><defs><style>.cls-1{fill:#08153a;}</style></defs><title>Asset 44</title><g id="Layer_2" data-name="Layer 2"><g id="Layer_1-2" data-name="Layer 1"><path class="cls-1" d="M73.75,110.29C57.63,94.45,39.42,84.41,16.19,89.24c-2.65.56-5.33,1.45-8,1.38-1.87-.05-3.71-1.46-5.57-2.27,1.21-1.56,2.18-4.17,3.68-4.53,14.25-3.45,28.51-7.13,43-9.31,4.15-.62,9.39,2.83,13.46,5.44,11.18,7.17,22,14.89,33,22.39l2-2.21c-1.05-1.58-1.82-3.48-3.2-4.65-2.65-2.23-6-3.71-8.47-6.07-20.42-19.27-43.37-25-69.75-13.58-1.74.75-3.85,1.46-5.6,1.15s-3.55-1.88-5.31-2.9c1.33-1.5,2.4-3.89,4-4.38C24.17,65.21,38.91,60.43,54,57.19c4.53-1,10.73,1.57,15,4.31a465.44,465.44,0,0,1,38.82,27.34c3.72,3,6.64,9.5,6.49,14.29-.44,14.64-3,29.2-3.86,43.84-.7,11.77-.14,23.62-.14,37.35l-48.65,6c-2-15.7-3.76-30.72-5.7-45.72-1-7.86.52-19.43-4-22.79-10.4-7.76-23.62-12-36-16.73-4.85-1.86-10.6-1.38-15.91-3.77,11.88-8.49,25.56-9.88,38.05-7S61.89,104.77,73.75,110.29Z"/><path class="cls-1" d="M108.15,81.88C93.92,73.34,79.24,66.14,77.07,45.79,75.75,33.42,69.41,21.63,66.13,9.37c-.71-2.63,1.25-7.2,3.49-9,1.46-1.15,7.53.31,8.31,2.05,11.58,25.77,22.62,51.78,33.78,77.74Z"/></g></g></svg>