<svg xmlns="http://www.w3.org/2000/svg" viewBox="0 0 116.48 224.14"><defs><style>.cls-1{fill:#08153a;}</style></defs><title>Asset 58</title><g id="Layer_2" data-name="Layer 2"><g id="Layer_1-2" data-name="Layer 1"><path class="cls-1" d="M92.05,224.14H43.65c0-3.33-.08-6.44,0-9.54.41-13.51-4.15-25.88-9.16-38-3.84-9.3-5.06-18.94-5.24-28.75-.28-15.14-.22-30.3-.09-45.44.1-10.2-2.34-19.73-6.38-29-.65-1.5-.53-3.34-.76-5,1.87-.16,3.86-.84,5.58-.41C35.75,70,41,75.24,43,83.33c2.19,9,3.27,18.38,5.95,27.25,3.06,10.14,7.26,20,11.25,29.79.43,1.07,2.71,1.4,4.14,2.08.34-1.59,1.39-3.43.92-4.71-3.33-9-7-17.92-10.74-27.43,6-2.34,10.9.26,16.29,1.34-.31,2-.94,3.73-.69,5.26s1.39,2.89,2.14,4.32c1.25-1.16,3.39-2.17,3.62-3.51,1.9-11.3,3.68-22.64,5-34a118.47,118.47,0,0,0,.86-20.78c-.21-3.55-2.18-7.32-4.25-10.39C69,40,60.21,27.72,51.58,15.32A7.6,7.6,0,0,1,50,11.75c-.36-6.69,5.42-8.18,9.67-10.67C63.3-1,66.79.06,69.35,3.43c10.23,13.5,20.76,26.8,30.47,40.67,3.4,4.87,5.37,11,6.89,16.87,2.63,10.11,3.74,20.64,6.67,30.65,5.38,18.36,3.16,36.17-2.08,54-5.48,18.63-11.21,37.2-16.21,56C93.2,208.69,93.06,216.27,92.05,224.14Z"/><path class="cls-1" d="M46.37,74.48c6.48-3.08,12.57-.88,18.51,1C77.48,79.61,75.8,75.78,74,90c-.12,1-.31,1.92-.55,3.43-7.31-1.66-14.37-3.17-21.36-5-.92-.24-1.72-1.83-2.13-3C48.69,81.94,47.61,78.3,46.37,74.48Z"/><path class="cls-1" d="M20.16,84.57c.26.3.43.41.45.54q1,7,2,14c-5.46,2.3-10.9,4.63-16.4,6.83-.58.23-2-.14-2.14-.58A95.25,95.25,0,0,1,0,94.28c-.18-.64,1.6-2.27,2.77-2.76C8.54,89.07,14.41,86.85,20.16,84.57Z"/><path class="cls-1" d="M51.78,94.53l21,5c-.42,2-.76,3.74-1.15,5.63l-18-2.35C53.2,100.93,52.62,98.29,51.78,94.53Z"/><path class="cls-1" d="M23.14,106.31c0,3,.41,5.72-.16,8.2a6.29,6.29,0,0,1-3.5,3.61c-.72.3-2.82-1.1-3.38-2.2C12.88,109.49,13.35,108.89,23.14,106.31Z"/></g></g></svg>