<svg xmlns="http://www.w3.org/2000/svg" viewBox="0 0 96.43 206.59"><defs><style>.cls-1{fill:#08153a;}</style></defs><title>Asset 49</title><g id="Layer_2" data-name="Layer 2"><g id="Layer_1-2" data-name="Layer 1"><path class="cls-1" d="M89,143.28c-16.4-4.93-31.93-9.67-47.51-14.22-3.07-.89-6.36-1.06-10.41-1.71C24.31,113.29,15.78,99,13.78,81.75c-1.86-16.11-5.9-32-8.88-48C3.65,27.1,7.17,22.55,14.34,21.23s11.93,1.64,13.26,8.42C30.77,45.78,33.85,61.92,37.09,78c.27,1.36,1.44,2.55,2.19,3.82.47-1.51,1.43-3,1.34-4.51Q38.49,44.77,36.09,12.2c-.35-4.81,1-8.5,5.6-10.6,5.1-2.32,10.2-2.31,14.5,1.32C57.83,4.3,58.85,7.16,59,9.44c1.76,22.7,3.26,45.41,4.92,68.12.11,1.47.93,2.88,1.41,4.31.82-1.38,2.21-2.7,2.38-4.15,1.92-17.17,3.56-34.38,5.49-51.55,1.15-10.2,10.4-14,18.89-8.07,4.51,3.14,4.18,7.5,3.62,12.06-1.6,13.2-3.7,26.36-4.6,39.6C89.93,87.63,89.6,105.57,89,123.48,88.82,129.78,89,136.08,89,143.28Z"/><path class="cls-1" d="M18.31,206.59C9,206.47.43,199,.23,189.91-.2,169.34.1,148.75.1,128.17L1,128C7.42,141.12,13.9,154.2,20.2,167.36c2.17,4.52,4.29,8.63,10.29,8.58a16.28,16.28,0,0,0,14.54-8,39,39,0,0,0,2-4.44l18.43,5.25.56-1.32c-2.22-1.17-4.33-2.7-6.69-3.46-7.91-2.51-15.87-4.91-23.89-7-4.14-1.09-6.39-3.57-6.79-7.56a30.93,30.93,0,0,1,.25-8.86c1.74-9.13,4.44-10.64,13.35-8.06q21.28,6.18,42.58,12.33c10.48,3.06,13.82,8.77,10.07,19.18-6.17,17.09-17.61,30.3-32.2,40.84"/><path class="cls-1" d="M43.44,162.39c-1.58,5.87-5.81,9.64-10.94,10.11s-7.77-2.51-9.82-6.78C15.85,151.49,8.8,137.37,1.89,123.18c-3.54-7.25,1.31-18.13,9.16-19.94,1.53-.36,4.46.85,5.17,2.18,4.28,8,8.19,16.32,12,24.62.49,1.07-.26,2.7-.43,4.08-.71,5.67-1.87,11.34-2,17-.1,4.43,2.93,7.15,7.33,8.25C36.49,160.24,39.79,161.32,43.44,162.39Z"/></g></g></svg>