<svg xmlns="http://www.w3.org/2000/svg" viewBox="0 0 141.15 164.69"><defs><style>.cls-1{fill:#08153a;}</style></defs><title>Asset 60</title><g id="Layer_2" data-name="Layer 2"><g id="Layer_1-2" data-name="Layer 1"><path class="cls-1" d="M129.34,109.91c-2.15-20.47,6.39-41.33,10.72-62.88a32.62,32.62,0,0,0,1.09-5.86c0-4.81-3.68-8.63-8.73-9.32S123.28,33.77,122,39c-2,7.88-3.54,15.85-5.4,23.76-1.83,7.75-3.73,15.49-5.83,23.17-.34,1.25-1.84,2.19-2.8,3.28-.33-1.47-1.2-3.06-.9-4.38,4.3-18.6,8.94-37.14,13-55.79.74-3.41.54-8-1.28-10.69-1.64-2.4-6.05-3.74-9.33-3.93-3.63-.21-6.24,2.55-7.17,6.43C97.74,39.9,93.19,59,88.47,78c-.53,2.13-2.17,4-3.3,6-.2-2.21-1-4.55-.51-6.61C89.6,55.6,94.78,34,99.8,12.27,101.5,4.9,95.72-1.15,88.4.19,83.89,1,81.74,4.1,80.74,8.35Q73.75,38.19,66.66,68c-.62,2.58-1.27,5.16-1.9,7.74-.86,3.58-2.56,3.59-4.64,1-4.76-6-9.39-12.09-14.16-18.07C40.7,52.07,34.1,52.14,29,58.93q-5.24,7-10,14.34c-3.31,5.13-2.28,10.21,2.42,13.57S31,89.31,34.94,84.32a15,15,0,0,0,1.51-2c2-3.58,3.88-3.59,6,0,3.92,6.57,7.92,13.09,12.09,19.5,1.72,2.64,1.32,4.44-.92,6.44-4.71,4.23-9.13,8.76-14,12.83-1.08.92-3.42.81-5,.48-1.36-.27-2.49-1.58-3.77-2.37-9.5-5.87-9.5-5.87-6.75-16.41,1.6-6.1-.89-11.1-6.32-12.7s-10,.75-12,6.67S2.23,108.54.47,114.44c-1.33,4.42.23,7.94,3.85,10.4q25.38,17.25,50.9,34.29a32.82,32.82,0,0,0,18.87,5.47c6.82-.07,13.65.18,20.47.06,19.41-.34,34.31-15.19,34.76-34.62C129.45,124.05,129.34,118.06,129.34,109.91Z"/></g></g></svg>