<svg xmlns="http://www.w3.org/2000/svg" viewBox="0 0 122.46 151.97"><defs><style>.cls-1{fill:#08153a;}</style></defs><title>Asset 46</title><g id="Layer_2" data-name="Layer 2"><g id="Layer_1-2" data-name="Layer 1"><path class="cls-1" d="M22.43,143a108.2,108.2,0,0,0,11-.09c2.53-.26,7.09-1.3,7.13-2.17.65-12.83,17.27-19.14,12.83-34.56-3-10.39-2.66-21.83-3.09-32.82-.15-3.82,2.84-7.76,2.68-11.58-.34-8.16-.76-16.58-3.06-24.33-3.3-11.07-5.41-21.74,1.9-31.61C54,2.93,58.71,1.9,62.28,0c1.5,3.35,3.43,6.58,4.41,10.08,1.79,6.38,2.11,13.3,4.65,19.31,7.81,18.47,16.17,36.72,24.9,54.77,1.38,2.85,5.57,5.43,8.85,6,5.43,1,11.17.26,17.37.26V146C88.77,152.4,55.57,156.49,22.43,143Z"/><path class="cls-1" d="M23.94,86.85c5,0,10,.17,15,0,5.25-.21,9,.36,8.92,7.29-.07,6.5-3.7,6.7-8.43,6.64q-15.5-.16-31,0c-4.76.06-8.4-.15-8.44-6.64,0-6.84,3.67-7.54,9-7.33C13.94,87,18.94,86.84,23.94,86.85Z"/><path class="cls-1" d="M24.6,120.45c-4.68,0-9.38-.22-14,.07-5.23.32-7.16-1.91-7.16-7s2.09-7.09,7.24-7q15,.39,30.09,0c5.17-.12,7.13,1.87,7.12,7s-2.08,7.19-7.2,6.93C35.31,120.23,30,120.45,24.6,120.45Z"/><path class="cls-1" d="M24.31,67.38c4.33,0,8.9-.87,12.89.28,2.8.81,6.13,4,6.89,6.77,1.41,5.14-2.32,6.71-7.11,6.62-9-.17-18,.38-26.91-.36-2.36-.2-6.54-4.53-6.16-6,.69-2.78,3.78-6.22,6.52-6.94C14.78,66.54,19.66,67.39,24.31,67.38Z"/><path class="cls-1" d="M9.83,126.92H37v10.22c-8.22,0-16.19.6-24-.37-2.31-.29-4.05-5-6.05-7.73Z"/></g></g></svg>