<svg xmlns="http://www.w3.org/2000/svg" viewBox="0 0 86.16 166.58"><defs><style>.cls-1{fill:#08153a;}</style></defs><title>Asset 50</title><g id="Layer_2" data-name="Layer 2"><g id="Layer_1-2" data-name="Layer 1"><path class="cls-1" d="M71,69.94c-9.77,0-18.21-.49-26.54.25-3.2.29-7.51,2.73-8.79,5.4-1.06,2.22,1.21,6.39,2.68,9.35.77,1.54,2.88,2.85,4.64,3.38,4.62,1.38,10.16,1.17,13.85,3.73,3,2,3.74,7.22,6.09,12.3,3.35-12.28.14-17-9.2-18.55-5-.82-9.7-3.89-14.53-5.94l1.12-4.59c9.46,0,19-.87,28.32.46,3.27.47,5.77,6.3,8.65,9.65C89.76,99.93,88.84,114,76,127.88c-10,10.77-15.32,23.25-12.49,38.7H16.33c-5.12-14.16-11.16-27-14.2-40.44C-.32,115.28-.45,103.48.7,92.34c2-19,6.06-37.79,8.59-56.75.9-6.75,3.59-8.26,11.21-6V68.34l3.56,0V11.42H36.21V63.19l3.11.09V2.09C48.56-1.8,52.47-.64,52.21,8.77c-.43,15.3-.16,30.61-.08,45.92,0,2.93.51,5.86.79,8.79l3-.12V12.16C63.83,9.8,68,9.92,68.28,18.47,68.77,35,70,51.59,71,69.94Z"/></g></g></svg>