<svg xmlns="http://www.w3.org/2000/svg" viewBox="0 0 89.13 217.63"><defs><style>.cls-1,.cls-2{fill:#e5ccc9;}.cls-2{stroke:#000;stroke-linecap:round;stroke-linejoin:round;stroke-width:2px;}</style></defs><title>Asset 18</title><g id="Layer_2" data-name="Layer 2"><g id="Layer_1-2" data-name="Layer 1"><path class="cls-1" d="M21,216.72c4.72-.08,9.28-1.26,13.82-2.43s8.88-2.16,13.37-3A201.42,201.42,0,0,1,75.46,208c3.2-.17,3.22-5.17,0-5a212.39,212.39,0,0,0-27.65,3.28q-6.73,1.25-13.39,2.95C30,210.36,25.6,211.64,21,211.72c-3.21.05-3.22,5.05,0,5Z"/><path class="cls-1" d="M23.1,212.71c0-5.81,2.22-11.26,3.59-16.82a43.76,43.76,0,0,0,.61-18.33,2.53,2.53,0,0,0-3.08-1.75,2.57,2.57,0,0,0-1.75,3.08,38.86,38.86,0,0,1-.94,17c-1.49,5.55-3.46,11-3.43,16.83,0,3.22,5,3.22,5,0Z"/><path class="cls-1" d="M23.12,203.27c1.29-11.9,2.58-23.83,2.57-35.81,0-11.45-1.44-23,.22-34.43.42-2.87,1.31-5.63,1.77-8.48s.08-5.64-2.45-7.49c-2.09-1.53-4.61,1.39-3.42,3.42,2.85,4.83,7.37,12.48,2.87,17.76l4.18,1.1a6.41,6.41,0,0,1,.44-3.59l-4.91-.67L23,160.53c-.18,3.21,4.82,3.2,5,0l1.39-25.45a2.48,2.48,0,0,0-2.17-2.45,2.53,2.53,0,0,0-2.74,1.79,11.19,11.19,0,0,0-.44,6.25,2.51,2.51,0,0,0,4.18,1.1,14.28,14.28,0,0,0,3.1-11.26c-.59-4.58-2.88-8.64-5.19-12.55l-3.42,3.42c.19.13.19.86.18,1.3a13.36,13.36,0,0,1-.54,2.79,66.81,66.81,0,0,0-1.54,8.29,110,110,0,0,0-.59,16.53c.14,5.56.45,11.12.47,16.68s-.25,11.31-.68,16.95c-.49,6.46-1.19,12.91-1.89,19.35a2.51,2.51,0,0,0,2.5,2.5,2.56,2.56,0,0,0,2.5-2.5Z"/><path class="cls-1" d="M32.73,214.67l37.46-7.2c5.3-1,8.33-7.39,7-12.31-1.52-5.55-7-8-12.3-7l-37.45,7.2c-5.31,1-8.34,7.39-7,12.31,1.53,5.55,7,8,12.3,7Z"/><path class="cls-1" d="M39,197.93c4.3-12.32,8.39-25.21,6.9-38.43a48.44,48.44,0,0,0-2-9.77c-.69-2.07-1.78-4.11-2-6.28-.45-3.88-.06-7.25-2.71-10.56s-5.79-4.46-9.84-4.7c-12.85-.77-12.81,19.23,0,20l1.08.07-5-1.37.9.7L22.67,144l.54,1-1.37-5c.38,4.84.59,8.94,2.23,13.58a34.16,34.16,0,0,1,2.16,12.33c-.16,9.21-3.51,18.1-6.51,26.71-1.78,5.1,2,10.94,7,12.3,5.51,1.51,10.52-1.87,12.3-7Z"/><path class="cls-1" d="M50.23,192.81a182,182,0,0,1,3.45-35.69c1-5.29-1.52-10.79-7-12.3-4.92-1.35-11.24,1.67-12.3,7a210.67,210.67,0,0,0-4.16,41c0,12.87,20,12.89,20,0Z"/><path class="cls-1" d="M63.69,198.82V170.66c0-12.86-20-12.89-20,0v28.16c0,12.87,20,12.89,20,0Z"/><path class="cls-1" d="M62.32,199.81c12.87,0,12.89-20,0-20s-12.89,20,0,20Z"/><path class="cls-1" d="M27.78,176.91c12.87,0,12.89-20,0-20s-12.89,20,0,20Z"/><path class="cls-1" d="M45.43,108.21h7.88c5.23,0,10.24-4.6,10-10a10.17,10.17,0,0,0-10-10H45.43c-5.23,0-10.24,4.6-10,10a10.17,10.17,0,0,0,10,10Z"/><path class="cls-1" d="M70.58,103.33c12.87,0,12.89-20,0-20s-12.89,20,0,20Z"/><path class="cls-1" d="M60.67,97.83c-.25,8.57-2.28,18.91,1.92,26.75,2.07,3.87,7.14,5.73,11.29,4.59,4.5-1.23,6.93-5.21,7.34-9.64a25.15,25.15,0,0,0-1-9.33c-3.63-12.33-22.94-7.08-19.29,5.31a9.35,9.35,0,0,1,.29,4l18.64-5c.59,1.1.15.21.33-.51.43-1.67.12-3.91.17-5.65l.31-10.49c.38-12.87-19.62-12.86-20,0Z"/><path class="cls-2" d="M23.15,113.85c-2.63-4.49-6.27-4.77-10.85-2.06A22.55,22.55,0,0,0,1.05,127.88a4.69,4.69,0,0,0,0,1.4c2,15.33,2.72,30.88,8.09,45.6C11,180,13.05,185,15.09,190c2.3,5.63,4.34,11.28,3.89,17.54-.22,3,0,6.08,0,9.12"/><path class="cls-2" d="M80,84.73c.7-10.41,1.5-20.81,2-31.22A49.56,49.56,0,0,0,81.66,42C80.2,34,80.44,26,79.65,18.08c-.39-4-.78-8-2.79-11.58C74.51,2.29,70.93.27,67.37,1.24c-4,1.08-6.28,4.54-6.32,9.47-.08,10.67,2.1,21.23,1.4,31.92-.9,13.8-.84,27.7-3,41.37-.83,5.25-.17,10.32-.5,15.46"/><path class="cls-2" d="M18.59,109.64c0-3,0-5.91,1.33-8.81,1.62-3.46,10.38-6.49,13.76-5.92.47.08,1.18.07,1.37.37,3.3,5.13,8.67,2.45,13,3.4,2.95.65,6.09.38,9.1.83A14.9,14.9,0,0,1,66,104c3.66,3.83,7.31,7.66,10.87,11.59,2.69,3,6.31,4.84,8.83,8a10.06,10.06,0,0,1,2.47,6.69c0,11.61-.87,23.18-1.83,34.73-.4,4.83-2.41,9.28-4.26,13.65a52.12,52.12,0,0,0-4.15,22.49c0,1.4,0,2.8,0,4.21"/><path class="cls-2" d="M58.25,87.89a17.38,17.38,0,0,1-1.48-2.42c-3-5.77-6.78-7.27-13.61-5.65-5.44,1.29-7.82,5-8.09,11.22-.06,1.29.38,2.63-.34,3.86"/><path class="cls-2" d="M80,86.13c.58,7.25,1.46,14.5,1.63,21.76.1,4,1.2,7.91.82,11.92"/><path class="cls-2" d="M34.38,99.46c-7-.64-9.84,2.38-10.21,10.18-.06,1.4.76,3-.68,4.2-.93.75-.15,1.64.08,2.08,2.55,4.81,4,10.12,6.91,14.79a13.64,13.64,0,0,1,1.79,10.85c-.9,3.51,2,4.77,3.71,6.91,1.39-2.08-.58-4.47,1.21-6.21"/><path class="cls-2" d="M24.56,113.5c5.2,6.89,13.14,8.89,20.71,11.56.31.11.81-.14,1,0,2.82,2.18,5.48,1.56,8.39-1-.22,4.17,2.36,6.53,3.91,9.38"/><path class="cls-2" d="M48.42,141.56A30.34,30.34,0,0,1,44.57,150c-2.74,4.66-3.11,9.84-3.16,15.07,0,2,0,4,0,6"/><path class="cls-2" d="M47.72,126.48c-.72,1.56.12,2.79.61,4.24a40.1,40.1,0,0,1,1.14,6.63"/><path class="cls-2" d="M14,139.46c1.62,3.71,4.46,6.48,7.41,9.06,2.11,1.85,4.74,1.36,6.94,0a22.21,22.21,0,0,0,3.55-3.45"/><path class="cls-2" d="M55.09,129.28c-2.91,3.42-4.15,7.75-6.32,11.58"/><path class="cls-2" d="M14.73,142.26A19.26,19.26,0,0,1,7,143.66"/><path class="cls-2" d="M62.11,58.42c2,.68,4,.2,6,.35"/><path class="cls-2" d="M81.06,58.77H75.8"/><path class="cls-2" d="M67.37,56H62.11"/><path class="cls-2" d="M31.58,143H26.66"/><path class="cls-2" d="M50.88,126.83a4.75,4.75,0,0,0,2.1,4.56"/><path class="cls-2" d="M77.2,107.88l-3.51,2.46"/><path class="cls-2" d="M43.16,151.38H40"/><path class="cls-2" d="M77.9,84.73c.71.22,1.75-.57,2.17.69-.84.89-1.88.68-2.87.71"/></g></g></svg>