<svg xmlns="http://www.w3.org/2000/svg" viewBox="0 0 95.47 140.75"><defs><style>.cls-1{fill:#373d4e;}</style></defs><title>Asset 32</title><g id="Layer_2" data-name="Layer 2"><g id="Layer_1-2" data-name="Layer 1"><path class="cls-1" d="M42.59,103.07c-1.43-2.82-2.56-5.85-4.36-8.42s-4.47-4.49-6.33-7a10,10,0,0,1-2.18-5.73c.13-3.12,1.79-5.48,5.54-5.7,2.09-.13,4.14-1,6.78-1.61-.78,3.2-1.52,6-2.14,8.84-1.78,8,4.31,14.88,12.47,14.48,1.86-.1,3.78.9,5.65,1.44.29.09.49.55.78.61,4.37.81,9.34.55,13,2.64,4.59,2.64,8.62,2.82,14.86.75-3.29,6.9-5.6,13-8.95,18.42-3.6,5.87-8.91,10.87-5.73,19H22.37c-.15-.59-.53-1.22-.43-1.77,1.65-9-2.55-15.93-7.53-22.76-4.11-5.62-7.75-11.56-11.7-17.29-3.12-4.52-3.59-9.18-1.18-14.1C5.24,77.22,9,69.64,12.7,62c2-4.1,5.4-6.7,9.71-6.85,10.44-.36,20.89-.11,31.68-.11.22,5.72-3,9.16-7.11,11.26a64.53,64.53,0,0,1-15.31,5.61c-3.13.7-4.44,2-5.42,4.71-3.08,8.57-3,8.42,3.78,14.91,3.93,3.75,7.42,8,11.11,12Z"/><path class="cls-1" d="M45.55,49.94H27c0-2.51-.06-4.93,0-7.34.38-11.45.72-22.91,1.23-34.35C28.49,2.86,31.18,0,35.58,0c4.21,0,7,2.67,7.36,7.72C43.91,21.61,44.68,35.52,45.55,49.94Z"/><path class="cls-1" d="M56.62,49.23c7.17-1.08,11.06,1.78,9.61,9.94-1.73,9.73-4.72,19.29-7.8,28.72-1.5,4.59-5.54,5.8-9.68,4.39-4.82-1.65-5-5-3.84-9.2,1.71-6,3-12,8.83-16,4.09-2.86,5.78-7.71,5.18-12.83C58.73,52.56,57.48,51,56.62,49.23Z"/><path class="cls-1" d="M61.41,95.54c3.28-11,6.6-21.39,9.32-31.92.79-3.06,2.14-5.63,4.81-5.07,2.46.52,4.92,2.94,6.48,5.16.92,1.31.62,4.05,0,5.8-2.93,7.73-5.78,15.54-9.46,22.92C69.91,97.65,65.69,98.09,61.41,95.54Z"/><path class="cls-1" d="M88.09,69.49c6.45.89,8.5,2.72,6.83,9A64.16,64.16,0,0,1,87.18,96c-3,4.82-7.38,5.19-11.77,2.89C79.59,89.19,83.75,79.53,88.09,69.49Z"/></g></g></svg>