<svg xmlns="http://www.w3.org/2000/svg" viewBox="0 0 138.96 139.59"><defs><style>.cls-1{fill:none;stroke:#000;stroke-miterlimit:10;}</style></defs><title>Asset 20</title><g id="Layer_2" data-name="Layer 2"><g id="Layer_3" data-name="Layer 3"><circle class="cls-1" cx="74.12" cy="15.28" r="11.91"/><circle class="cls-1" cx="30.82" cy="18.52" r="11.57"/><circle class="cls-1" cx="129.5" cy="43.04" r="8.96"/><circle class="cls-1" cx="76.38" cy="84.2" r="20.53"/><circle class="cls-1" cx="28.92" cy="85.97" r="20.53"/><circle class="cls-1" cx="66.9" cy="61.27" r="7.99"/><circle class="cls-1" cx="50.16" cy="59.99" r="7.99"/><circle class="cls-1" cx="23.26" cy="61.68" r="6.31"/><circle class="cls-1" cx="35.66" cy="63.86" r="6.73"/><circle class="cls-1" cx="10.59" cy="27.16" r="9.97"/><circle class="cls-1" cx="51.58" cy="11.86" r="11.36"/><rect class="cls-1" x="23.26" y="104.2" width="52.48" height="34.89"/><path class="cls-1" d="M60.08,59.22l14.54,3.05L80,45.86a116.9,116.9,0,0,0,5-22.5l1.1-9.09-22.57-3Z"/><polygon class="cls-1" points="57.32 60.59 42.81 59.99 40.18 10.63 62.2 11.2 61.67 37.13 57.32 60.59"/><path class="cls-1" d="M40.89,60.2,29.83,65.05a.85.85,0,0,1-1.16-.56L24.5,49.1a69.49,69.49,0,0,1-1.86-9.25L20.28,22a.84.84,0,0,1,.78-1l20.43-1.47a.85.85,0,0,1,.92.83l.32,16.21q.09,5-.3,9.9l-1,13A.87.87,0,0,1,40.89,60.2Z"/><path class="cls-1" d="M29.57,60.59l-11,6.52-7-10.51a56.47,56.47,0,0,1-7-14.75L.62,29.33l19.47-6.1Z"/><path class="cls-1" d="M90.62,99,99,86.63a92,92,0,0,1,13.65-15.89l24.65-22.81L124.51,35.61,101.45,51.29l-6.2,2a34.56,34.56,0,0,1-13.4,1.53l-4.65-.39-69.62-6L6.52,70.52a60.73,60.73,0,0,0,.83,13.26l1,5.94,14.19,16.15,45.89.54A31.86,31.86,0,0,0,84,102.58Z"/></g></g></svg>