<?xml version="1.0" encoding="UTF-8"?>
<svg width="87px" height="31px" viewBox="0 0 87 31" version="1.1" xmlns="http://www.w3.org/2000/svg" xmlns:xlink="http://www.w3.org/1999/xlink">
    <!-- Generator: Sketch 63.1 (92452) - https://sketch.com -->
    <title>Habitus</title>
    <desc>Created with Sketch.</desc>
    <g id="Page-1" stroke="none" stroke-width="1" fill="none" fill-rule="evenodd">
        <g id="Tabless-Copy-11" transform="translate(-293.000000, -151.000000)" fill="#000000" fill-rule="nonzero">
            <g id="logo-copy" transform="translate(295.000000, 151.000000)">
                <path d="M14.2101562,20.7000781 L14.25,20.69 C14.21,20.69 14.205,20.675 14.235,20.645 C14.265,20.615 14.3,20.6 14.34,20.6 C14.38,20.6 14.39,20.61 14.37,20.63 C14.35,20.65 14.36,20.66 14.4,20.66 C14.4,20.62 14.44,20.58 14.52,20.54 L14.52,20.54 L14.52,20.48 L14.52,20.48 L14.73,20.48 C14.77,20.48 14.8,20.44 14.82,20.36 C14.78,20.36 14.73,20.37 14.67,20.39 C14.61,20.41 14.56,20.4 14.52,20.36 C14.48,20.46 14.43,20.52 14.37,20.54 C14.41,20.44 14.435,20.365 14.445,20.315 C14.455,20.265 14.54,20.24 14.7,20.24 C14.72,20.18 14.7,20.14 14.64,20.12 C14.58,20.1 14.6,20.08 14.7,20.06 C14.68,20.1 14.7,20.12 14.76,20.12 C14.8,20.08 14.8,20.06 14.76,20.06 C14.72,20.06 14.69,20.05 14.67,20.03 C14.75,20.01 14.83,20.02 14.91,20.06 C14.87,19.98 14.88,19.925 14.94,19.895 C15,19.865 15.01,19.81 14.97,19.73 C14.87,19.79 14.75,19.85 14.61,19.91 C14.47,19.97 14.43,20.05 14.49,20.15 C14.41,20.21 14.32,20.325 14.22,20.495 C14.12,20.665 14.13,20.73 14.25,20.69 L14.2101562,20.7000781 Z M12.21,28.31 C12.21,28.29 12.22,28.28 12.24,28.28 C12.2333333,28.2733333 12.2277778,28.2677778 12.2233333,28.2633333 L12.21,28.25 C12.27,28.25 12.315,28.215 12.345,28.145 C12.375,28.075 12.395,28 12.405,27.92 C12.415,27.84 12.42,27.76 12.42,27.68 C12.42,27.6 12.41,27.55 12.39,27.53 C12.41,27.59 12.39,27.695 12.33,27.845 C12.27,27.995 12.23,28.11 12.21,28.19 C12.19,28.13 12.185,28.06 12.195,27.98 C12.205,27.9 12.19,27.84 12.15,27.8 C12.25,27.64 12.305,27.47 12.315,27.29 C12.325,27.11 12.42,26.99 12.6,26.93 C12.52,26.95 12.48,26.94 12.48,26.9 C12.48,26.86 12.52,26.85 12.6,26.87 C12.58,26.83 12.55,26.795 12.51,26.765 C12.47,26.735 12.46,26.69 12.48,26.63 C12.52,26.51 12.575,26.27 12.645,25.91 C12.715,25.55 12.795,25.165 12.885,24.755 C12.975,24.345 13.065,23.955 13.155,23.585 C13.245,23.215 13.33,22.95 13.41,22.79 C13.39,22.77 13.37,22.765 13.35,22.775 C13.33,22.785 13.31,22.78 13.29,22.76 C13.43,22.52 13.515,22.31 13.545,22.13 C13.575,21.95 13.68,21.77 13.86,21.59 C13.86,21.55 13.84,21.53 13.8,21.53 C13.76,21.53 13.74,21.51 13.74,21.47 C13.74,21.31 13.765,21.205 13.815,21.155 C13.865,21.105 13.91,21.07 13.95,21.05 C13.91,21.01 13.87,20.99 13.83,20.99 C13.85,20.85 13.89,20.76 13.95,20.72 C14.01,20.68 14.06,20.61 14.1,20.51 C14,20.51 13.95,20.49 13.95,20.45 C13.99,20.45 14,20.44 13.98,20.42 C13.96,20.4 13.97,20.36 14.01,20.3 C14.05,20.3 14.075,20.29 14.085,20.27 C14.095,20.25 14.12,20.25 14.16,20.27 C14.2,20.31 14.19,20.35 14.13,20.39 C14.07,20.43 14.07,20.45 14.13,20.45 C14.17,20.37 14.2,20.315 14.22,20.285 C14.24,20.255 14.25,20.19 14.25,20.09 C14.21,20.07 14.175,20.095 14.145,20.165 C14.115,20.235 14.07,20.26 14.01,20.24 C14.03,20.14 14.05,20.075 14.07,20.045 C14.09,20.015 14.11,19.98 14.13,19.94 C14.17,19.98 14.2,19.99 14.22,19.97 C14.24,19.95 14.29,19.94 14.37,19.94 C14.39,19.9 14.365,19.885 14.295,19.895 C14.225,19.905 14.21,19.89 14.25,19.85 C14.33,19.85 14.43,19.835 14.55,19.805 C14.67,19.775 14.75,19.71 14.79,19.61 C14.75,19.57 14.73,19.58 14.73,19.64 C14.73,19.7 14.68,19.72 14.58,19.7 C14.58,19.64 14.565,19.6 14.535,19.58 C14.505,19.56 14.49,19.53 14.49,19.49 C14.61,19.41 14.72,19.37 14.82,19.37 C14.84,19.31 14.86,19.245 14.88,19.175 C14.9,19.105 14.95,19.06 15.03,19.04 C15.03,19.14 14.97,19.29 14.85,19.49 C15.01,19.43 15.09,19.345 15.09,19.235 C15.09,19.125 15.12,19.02 15.18,18.92 C15.14,18.88 15.135,18.835 15.165,18.785 C15.195,18.735 15.23,18.69 15.27,18.65 C15.19,18.63 15.15,18.59 15.15,18.53 L15.149,18.532 L15.12375,18.65375 L15.12375,18.65375 L15.105,18.785 C15.095,18.875 15.07,18.94 15.03,18.98 C14.95,18.98 14.9,18.975 14.88,18.965 C14.86,18.955 14.83,18.96 14.79,18.98 C14.81,19.08 14.79,19.155 14.73,19.205 C14.67,19.255 14.62,19.27 14.58,19.25 C14.62,19.09 14.685,18.94 14.775,18.8 C14.865,18.66 14.9,18.54 14.88,18.44 C14.92,18.4 14.96,18.385 15,18.395 C15.04,18.405 15.07,18.38 15.09,18.32 C15.07,18.32 15.035,18.325 14.985,18.335 C14.935,18.345 14.91,18.33 14.91,18.29 C15.01,18.29 15.115,18.25 15.225,18.17 C15.335,18.09 15.32,18.01 15.18,17.93 C15.18,18.03 15.15,18.08 15.09,18.08 C15.11,17.98 15.145,17.9 15.195,17.84 C15.245,17.78 15.27,17.72 15.27,17.66 C15.23,17.7 15.195,17.73 15.165,17.75 C15.135,17.77 15.1,17.78 15.06,17.78 C14.98,17.74 14.94,17.72 14.94,17.72 C14.92,17.72 14.9,17.73 14.88,17.75 C14.9,17.67 14.955,17.625 15.045,17.615 C15.135,17.605 15.22,17.56 15.3,17.48 C15.22,17.38 15.19,17.315 15.21,17.285 C15.23,17.255 15.19,17.22 15.09,17.18 C15.13,17.2 15.175,17.195 15.225,17.165 C15.275,17.135 15.32,17.13 15.36,17.15 C15.42,17.29 15.39,17.45 15.27,17.63 C15.35,17.65 15.41,17.62 15.45,17.54 C15.49,17.46 15.53,17.42 15.57,17.42 C15.59,17.28 15.64,17.14 15.72,17 C15.68,17 15.65,16.985 15.63,16.955 C15.61,16.925 15.58,16.93 15.54,16.97 C15.56,17.03 15.555,17.065 15.525,17.075 C15.495,17.085 15.46,17.1 15.42,17.12 C15.36,17.08 15.335,17.055 15.345,17.045 C15.355,17.035 15.38,17.01 15.42,16.97 C15.36,16.95 15.32,16.95 15.3,16.97 C15.34,16.93 15.36,16.9 15.36,16.88 L15.36,16.88 L15.57,16.88 C15.59,16.9 15.64,16.91 15.72,16.91 C15.9,16.83 16.1,16.76 16.32,16.7 C16.54,16.64 16.74,16.6 16.92,16.58 C16.96,16.58 17.01,16.595 17.07,16.625 C17.13,16.655 17.13,16.64 17.07,16.58 C17.13,16.6 17.195,16.6 17.265,16.58 C17.335,16.56 17.4,16.54 17.46,16.52 C17.52,16.5 17.57,16.49 17.61,16.49 C17.65,16.49 17.66,16.52 17.64,16.58 C17.84,16.52 18.045,16.495 18.255,16.505 C18.465,16.515 18.65,16.45 18.81,16.31 C18.67,16.27 18.54,16.265 18.42,16.295 C18.3,16.325 18.18,16.32 18.06,16.28 C18.18,16.28 18.345,16.26 18.555,16.22 C18.765,16.18 18.94,16.18 19.08,16.22 C19,16.14 18.94,16.065 18.9,15.995 C18.86,15.925 18.79,15.87 18.69,15.83 C18.65,15.79 18.64,15.755 18.66,15.725 C18.68,15.695 18.71,15.66 18.75,15.62 C18.63,15.58 18.475,15.555 18.285,15.545 C18.095,15.535 17.905,15.53 17.715,15.53 C17.525,15.53 17.34,15.54 17.16,15.56 C16.98,15.58 16.84,15.6 16.74,15.62 C16.84,15.62 16.89,15.63 16.89,15.65 C16.79,15.65 16.68,15.655 16.56,15.665 C16.44,15.675 16.33,15.68 16.23,15.68 L16.23,15.68 L16.5,15.17 C16.46,15.17 16.42,15.165 16.38,15.155 C16.34,15.145 16.3,15.14 16.26,15.14 C16.34,15.1 16.405,15.05 16.455,14.99 C16.505,14.93 16.56,14.87 16.62,14.81 C16.58,14.73 16.57,14.65 16.59,14.57 C16.61,14.49 16.645,14.405 16.695,14.315 C16.745,14.225 16.79,14.135 16.83,14.045 C16.87,13.955 16.88,13.88 16.86,13.82 C16.9,13.82 16.925,13.8 16.935,13.76 C16.945,13.72 16.97,13.69 17.01,13.67 C17.01,13.57 16.995,13.51 16.965,13.49 C16.935,13.47 16.92,13.42 16.92,13.34 C17.04,13.22 17.1,13.07 17.1,12.89 C17.18,12.89 17.22,12.86 17.22,12.8 C17.18,12.76 17.18,12.725 17.22,12.695 C17.26,12.665 17.25,12.62 17.19,12.56 C17.55,11.76 17.87,10.98 18.15,10.22 C18.43,9.46 18.76,8.61 19.14,7.67 C19.24,7.47 19.33,7.3 19.41,7.16 C19.49,7.02 19.56,6.87 19.62,6.71 C19.72,6.51 19.795,6.315 19.845,6.125 C19.895,5.935 19.97,5.76 20.07,5.6 C20.13,5.4 20.21,5.215 20.31,5.045 C20.41,4.875 20.49,4.69 20.55,4.49 C20.59,4.43 20.59,4.375 20.55,4.325 C20.51,4.275 20.49,4.22 20.49,4.16 C20.57,4 20.665,3.845 20.775,3.695 C20.885,3.545 20.97,3.36 21.03,3.14 C21.07,2.98 21.1,2.82 21.12,2.66 C21.14,2.5 21.17,2.34 21.21,2.18 C21.25,1.98 21.275,1.815 21.285,1.685 C21.295,1.555 21.29,1.44 21.27,1.34 L21.27,1.34 L21.06,1.16 L21.06,1.13 L20.97,1.13 C20.73,1.09 20.525,1.04 20.355,0.98 C20.185,0.92 20.01,0.84 19.83,0.74 C19.77,0.74 19.71,0.73 19.65,0.71 C19.55,0.85 19.435,0.98 19.305,1.1 C19.175,1.22 19.06,1.35 18.96,1.49 C18.92,1.53 18.88,1.59 18.84,1.67 C18.8,1.73 18.765,1.795 18.735,1.865 C18.705,1.935 18.69,2.01 18.69,2.09 C18.73,2.05 18.765,2.025 18.795,2.015 C18.825,2.005 18.85,1.99 18.87,1.97 C18.81,2.27 18.69,2.57 18.51,2.87 C18.33,3.17 18.21,3.47 18.15,3.77 C18.15,3.81 18.16,3.85 18.18,3.89 C18.2,3.93 18.2,3.98 18.18,4.04 C18.12,4.28 18.025,4.525 17.895,4.775 C17.765,5.025 17.63,5.29 17.49,5.57 L17.49,5.57 L17.01,6.68 C16.97,6.78 16.945,6.875 16.935,6.965 C16.925,7.055 16.9,7.18 16.86,7.34 C16.7,7.56 16.605,7.805 16.575,8.075 C16.545,8.345 16.44,8.57 16.26,8.75 C16.26,8.85 16.25,8.95 16.23,9.05 C16.21,9.15 16.18,9.25 16.14,9.35 C16.14,9.37 16.12,9.4 16.08,9.44 L16.08,9.44 L16.02,9.5 C15.96,9.54 15.945,9.59 15.975,9.65 C16.005,9.71 16,9.76 15.96,9.8 L15.96,9.8 L15.45,11.12 C15.19,11.82 14.935,12.505 14.685,13.175 C14.435,13.845 14.21,14.51 14.01,15.17 C13.97,15.17 13.95,15.18 13.95,15.2 L13.95,15.2 L13.77,15.86 C13.47,15.9 13.17,15.925 12.87,15.935 C12.57,15.945 12.28,15.96 12,15.98 L12,15.98 L11.94,16.1 C11.86,16.12 11.8,16.125 11.76,16.115 C11.72,16.105 11.67,16.12 11.61,16.16 L11.61,16.16 L11.61,16.07 C11.33,16.09 11.09,16.13 10.89,16.19 C10.69,16.25 10.48,16.29 10.26,16.31 C10.38,16.27 10.44,16.25 10.44,16.25 C10.38,16.25 10.335,16.26 10.305,16.28 C10.275,16.3 10.24,16.31 10.2,16.31 C10.18,16.29 10.14,16.28 10.08,16.28 C9.92,16.38 9.735,16.43 9.525,16.43 C9.315,16.43 9.13,16.47 8.97,16.55 C8.95,16.55 8.94,16.54 8.94,16.52 C8.66,16.56 8.41,16.59 8.19,16.61 C7.97,16.63 7.76,16.69 7.56,16.79 C7.56,16.77 7.55,16.76 7.53,16.76 C7.39,16.8 7.3,16.82 7.26,16.82 L7.26,16.82 L7.17,16.82 C7.15,16.82 7.12,16.825 7.08,16.835 C7.04,16.845 6.95,16.86 6.81,16.88 C6.81,16.84 6.79,16.82 6.75,16.82 C6.63,16.84 6.52,16.86 6.42,16.88 C6.32,16.9 6.24,16.91 6.18,16.91 C6.72,15.51 7.26,14.16 7.8,12.86 C8.34,11.56 8.9,10.27 9.48,8.99 C9.72,8.61 9.935,8.2 10.125,7.76 C10.315,7.32 10.49,6.85 10.65,6.35 C10.75,6.25 10.81,6.115 10.83,5.945 C10.85,5.775 10.87,5.61 10.89,5.45 C10.79,5.39 10.64,5.33 10.44,5.27 C10.24,5.21 10.03,5.165 9.81,5.135 C9.59,5.105 9.375,5.105 9.165,5.135 C8.955,5.165 8.79,5.24 8.67,5.36 C8.67,5.5 8.625,5.665 8.535,5.855 C8.445,6.045 8.37,6.22 8.31,6.38 C8.27,6.54 8.21,6.68 8.13,6.8 C8.05,6.92 7.97,7.04 7.89,7.16 C7.91,7.38 7.865,7.59 7.755,7.79 C7.645,7.99 7.54,8.22 7.44,8.48 C7.28,8.8 7.14,9.135 7.02,9.485 C6.9,9.835 6.73,10.18 6.51,10.52 C6.27,11.16 6,11.815 5.7,12.485 C5.4,13.155 5.12,13.81 4.86,14.45 C4.9,14.45 4.93,14.435 4.95,14.405 C4.97,14.375 4.98,14.38 4.98,14.42 C4.98,14.5 4.93,14.53 4.83,14.51 C4.81,14.57 4.825,14.595 4.875,14.585 C4.925,14.575 4.94,14.59 4.92,14.63 C4.92,14.67 4.91,14.69 4.89,14.69 C4.87,14.69 4.88,14.7 4.92,14.72 C4.88,14.72 4.855,14.725 4.845,14.735 C4.835,14.745 4.82,14.75 4.8,14.75 C4.7,14.97 4.61,15.19 4.53,15.41 C4.45,15.63 4.36,15.84 4.26,16.04 C4.32,16.06 4.35,16.05 4.35,16.01 C4.35,15.97 4.37,15.96 4.41,15.98 C4.27,16.2 4.175,16.42 4.125,16.64 C4.075,16.86 4.01,17.04 3.93,17.18 C3.89,17.18 3.85,17.16 3.81,17.12 C3.83,17.16 3.835,17.185 3.825,17.195 C3.815,17.205 3.81,17.23 3.81,17.27 C3.79,17.31 3.8,17.32 3.84,17.3 C3.88,17.28 3.88,17.3 3.84,17.36 C3.84,17.46 3.74,17.53 3.54,17.57 C3.34,17.61 3.155,17.65 2.985,17.69 C2.815,17.73 2.66,17.77 2.52,17.81 C2.26,17.87 2.065,17.92 1.935,17.96 C1.805,18 1.68,18.04 1.56,18.08 C1.44,18.12 1.31,18.17 1.17,18.23 C1.03,18.29 0.83,18.37 0.57,18.47 C0.17,18.59 -0.205,18.705 -0.555,18.815 C-0.905,18.925 -1.25,19.06 -1.59,19.22 C-1.63,19.2 -1.66,19.18 -1.68,19.16 C-1.7,19.14 -1.73,19.14 -1.77,19.16 C-1.81,19.2 -1.82,19.25 -1.8,19.31 C-1.78,19.37 -1.76,19.43 -1.74,19.49 C-1.7,19.63 -1.69,19.8 -1.71,20 C-1.73,20.2 -1.7,20.36 -1.62,20.48 C-1.18,20.36 -0.83,20.245 -0.57,20.135 C-0.31,20.025 -0.065,19.915 0.165,19.805 C0.395,19.695 0.645,19.59 0.915,19.49 C1.185,19.39 1.55,19.29 2.01,19.19 L2.01,19.19 L2.04,19.16 L2.04,19.16 L2.1,19.1 C2.26,19.1 2.43,19.08 2.61,19.04 C2.79,19 2.99,18.97 3.21,18.95 C3.25,18.99 3.26,19.065 3.24,19.175 C3.22,19.285 3.17,19.34 3.09,19.34 C3.11,19.38 3.11,19.405 3.09,19.415 C3.07,19.425 3.06,19.44 3.06,19.46 C3.06,19.5 3.075,19.515 3.105,19.505 C3.135,19.495 3.15,19.51 3.15,19.55 C3.13,19.59 3.08,19.61 3,19.61 C3,19.65 2.985,19.695 2.955,19.745 C2.925,19.795 2.93,19.83 2.97,19.85 C2.97,19.83 2.985,19.81 3.015,19.79 C3.045,19.77 3.06,19.78 3.06,19.82 C3,19.96 2.97,20.11 2.97,20.27 C2.97,20.43 2.91,20.54 2.79,20.6 C2.79,20.64 2.755,20.68 2.685,20.72 C2.615,20.76 2.58,20.8 2.58,20.84 L2.58,20.84 L2.58,20.99 C2.58,21.07 2.575,21.155 2.565,21.245 C2.555,21.335 2.54,21.42 2.52,21.5 C2.5,21.58 2.48,21.62 2.46,21.62 C2.44,21.62 2.43,21.61 2.43,21.59 C2.43,21.61 2.425,21.625 2.415,21.635 C2.405,21.645 2.4,21.66 2.4,21.68 C2.44,21.7 2.465,21.695 2.475,21.665 C2.485,21.635 2.49,21.64 2.49,21.68 L2.4890625,21.7015625 C2.4871875,21.7296875 2.4825,21.7775 2.475,21.845 C2.465,21.935 2.45,22.035 2.43,22.145 C2.41,22.255 2.39,22.35 2.37,22.43 C2.35,22.51 2.31,22.56 2.25,22.58 C2.29,22.62 2.32,22.615 2.34,22.565 C2.36,22.515 2.38,22.53 2.4,22.61 L2.4,22.61 L2.25,23.12 C2.13,23.12 2.08,23.13 2.1,23.15 C2.08,23.19 2.09,23.2 2.13,23.18 C2.17,23.16 2.19,23.17 2.19,23.21 C2.17,23.29 2.16,23.355 2.16,23.405 C2.16,23.455 2.14,23.5 2.1,23.54 C2,23.56 1.965,23.55 1.995,23.51 C2.025,23.47 1.99,23.46 1.89,23.48 C1.87,23.64 1.86,23.765 1.86,23.855 C1.86,23.945 1.83,24.04 1.77,24.14 C1.79,24.36 1.805,24.585 1.815,24.815 C1.825,25.045 1.91,25.23 2.07,25.37 C2.15,25.41 2.255,25.445 2.385,25.475 C2.515,25.505 2.64,25.53 2.76,25.55 C2.88,25.57 2.995,25.595 3.105,25.625 C3.215,25.655 3.29,25.7 3.33,25.76 C3.31,25.68 3.3,25.585 3.3,25.475 C3.3,25.365 3.41,25.3 3.63,25.28 C3.67,24.7 3.765,24.115 3.915,23.525 C4.065,22.935 4.21,22.41 4.35,21.95 C4.39,21.83 4.45,21.675 4.53,21.485 C4.61,21.295 4.685,21.09 4.755,20.87 C4.825,20.65 4.9,20.435 4.98,20.225 C5.06,20.015 5.12,19.83 5.16,19.67 C5.22,19.53 5.29,19.335 5.37,19.085 C5.45,18.835 5.54,18.68 5.64,18.62 C5.72,18.58 5.745,18.555 5.715,18.545 C5.685,18.535 5.645,18.53 5.595,18.53 L5.595,18.53 L5.475,18.53 C5.445,18.53 5.49,18.52 5.61,18.5 C5.67,18.44 5.75,18.4 5.85,18.38 C5.95,18.36 6.05,18.36 6.15,18.38 C6.53,18.22 6.985,18.095 7.515,18.005 C8.045,17.915 8.54,17.82 9,17.72 C8.82,17.72 8.65,17.735 8.49,17.765 C8.33,17.795 8.14,17.82 7.92,17.84 C7.96,17.8 7.96,17.78 7.92,17.78 C7.84,17.84 7.745,17.88 7.635,17.9 C7.525,17.92 7.42,17.94 7.32,17.96 C7.16,18 7.01,18.03 6.87,18.05 C6.73,18.07 6.6,18.09 6.48,18.11 C6.68,18.01 6.92,17.95 7.2,17.93 C7.48,17.91 7.71,17.85 7.89,17.75 C8.11,17.79 8.37,17.77 8.67,17.69 C8.97,17.61 9.23,17.58 9.45,17.6 C9.39,17.64 9.31,17.66 9.21,17.66 C9.11,17.66 9.05,17.7 9.03,17.78 C9.35,17.7 9.705,17.645 10.095,17.615 C10.485,17.585 10.8,17.49 11.04,17.33 C11,17.33 10.965,17.34 10.935,17.36 C10.905,17.38 10.89,17.36 10.89,17.3 C10.97,17.28 11.055,17.265 11.145,17.255 C11.235,17.245 11.32,17.26 11.4,17.3 C11.36,17.34 11.3,17.355 11.22,17.345 C11.14,17.335 11.08,17.38 11.04,17.48 C11.14,17.44 11.24,17.41 11.34,17.39 C11.44,17.37 11.51,17.38 11.55,17.42 C11.81,17.38 12.075,17.35 12.345,17.33 C12.615,17.31 12.89,17.29 13.17,17.27 C13.23,17.27 13.3,17.25 13.38,17.21 C13.22,17.69 13.04,18.24 12.84,18.86 C12.64,19.48 12.5,20.04 12.42,20.54 C12.42,20.58 12.445,20.595 12.495,20.585 C12.545,20.575 12.55,20.6 12.51,20.66 C12.47,20.7 12.44,20.715 12.42,20.705 C12.4,20.695 12.38,20.71 12.36,20.75 C12.28,20.99 12.145,21.415 11.955,22.025 C11.765,22.635 11.585,23.33 11.415,24.11 C11.245,24.89 11.105,25.705 10.995,26.555 C10.885,27.405 10.86,28.19 10.92,28.91 C10.94,29.19 10.985,29.39 11.055,29.51 C11.125,29.63 11.16,29.71 11.16,29.75 C11.18,29.79 11.215,29.835 11.265,29.885 C11.315,29.935 11.43,29.98 11.61,30.02 C11.59,30 11.605,29.99 11.655,29.99 L11.655,29.99 L11.76,29.99 C11.86,30.01 11.905,30.025 11.895,30.035 C11.885,30.045 11.92,30.06 12,30.08 C12,30.04 12.005,30.02 12.015,30.02 C12.025,30.02 12.11,30.01 12.27,29.99 C12.17,29.95 12.125,29.925 12.135,29.915 C12.145,29.905 12.1,29.89 12,29.87 C11.96,29.83 11.955,29.795 11.985,29.765 C12.015,29.735 12.055,29.715 12.105,29.705 C12.155,29.695 12.19,29.685 12.21,29.675 C12.23,29.665 12.21,29.65 12.15,29.63 C12.29,29.57 12.33,29.49 12.27,29.39 L12.27,29.39 L12.215,29.3716667 C12.1816667,29.3605556 12.155,29.3516667 12.135,29.345 C12.105,29.335 12.07,29.33 12.03,29.33 L12.03,29.33 L11.97,29.33 C11.9566667,29.13 11.9455556,28.9722222 11.9366667,28.8566667 L11.932,28.798 L11.9366667,28.8333333 C11.9411111,28.8688889 11.9461111,28.9055556 11.9516667,28.9433333 L11.97,29.06 C11.97,28.98 11.98,28.91 12,28.85 C12.02,28.89 12.06,28.91 12.12,28.91 C12.18,28.91 12.23,28.92 12.27,28.94 C12.29,28.94 12.295,28.935 12.285,28.925 C12.275,28.915 12.28,28.91 12.3,28.91 L12.3,28.91 L12.03,28.67 C12.05,28.63 12.065,28.595 12.075,28.565 C12.085,28.535 12.11,28.5 12.15,28.46 C12.11,28.58 12.11,28.64 12.15,28.64 C12.19,28.6 12.215,28.545 12.225,28.475 C12.235,28.405 12.23,28.37 12.21,28.37 L12.21,28.37 L12.21,28.31 Z M20.0195833,23.3316667 L20.135,23.33 C20.365,23.31 20.585,23.245 20.795,23.135 C21.005,23.025 21.21,22.89 21.41,22.73 C21.61,22.57 21.79,22.43 21.95,22.31 C21.97,22.27 21.985,22.245 21.995,22.235 C22.005,22.225 22.01,22.21 22.01,22.19 C22.31,21.89 22.63,21.54 22.97,21.14 C23.09,21.04 23.21,20.93 23.33,20.81 C23.45,20.69 23.56,20.54 23.66,20.36 C23.92,20.08 24.18,19.785 24.44,19.475 C24.7,19.165 24.97,18.9 25.25,18.68 C25.15,19.04 25.07,19.41 25.01,19.79 C24.95,20.17 24.925,20.535 24.935,20.885 C24.945,21.235 25,21.545 25.1,21.815 C25.2,22.085 25.36,22.29 25.58,22.43 C25.62,22.57 25.685,22.66 25.775,22.7 C25.865,22.74 25.96,22.79 26.06,22.85 C26.16,22.89 26.23,22.96 26.27,23.06 C26.43,23.12 26.63,23.105 26.87,23.015 C27.11,22.925 27.31,22.88 27.47,22.88 C27.57,22.9 27.66,22.9 27.74,22.88 C27.82,22.86 27.95,22.84 28.13,22.82 C28.31,22.82 28.485,22.755 28.655,22.625 C28.825,22.495 29.02,22.37 29.24,22.25 C29.44,22.21 29.57,22.15 29.63,22.07 C29.67,22.07 29.69,22.08 29.69,22.1 C29.81,22 29.9,21.925 29.96,21.875 C30.02,21.825 30.1,21.75 30.2,21.65 C30.28,21.63 30.345,21.58 30.395,21.5 C30.445,21.42 30.52,21.35 30.62,21.29 C30.68,21.33 30.735,21.32 30.785,21.26 C30.835,21.2 30.88,21.15 30.92,21.11 L30.92,21.11 L30.92,21.14 L30.98,21.14 C31.14,20.98 31.29,20.835 31.43,20.705 C31.57,20.575 31.72,20.45 31.88,20.33 C31.86,20.37 31.85,20.4 31.85,20.42 C31.93,20.32 32.01,20.215 32.09,20.105 C32.17,19.995 32.26,19.95 32.36,19.97 L32.36,19.97 L32.78,19.52 C32.82,19.42 32.86,19.37 32.9,19.37 C32.94,19.25 32.995,19.17 33.065,19.13 C33.135,19.09 33.19,19.02 33.23,18.92 C33.25,18.94 33.29,18.95 33.35,18.95 C33.39,18.85 33.415,18.78 33.425,18.74 C33.435,18.7 33.46,18.63 33.5,18.53 C33.54,18.49 33.585,18.445 33.635,18.395 L33.77,18.26 C33.75,18.32 33.75,18.34 33.77,18.32 C33.79,18.3 33.81,18.265 33.83,18.215 C33.85,18.165 33.87,18.115 33.89,18.065 C33.91,18.015 33.91,17.99 33.89,17.99 L33.89,17.99 L33.89,18.05 C33.87,18.03 33.865,18.01 33.875,17.99 C33.885,17.97 33.88,17.94 33.86,17.9 C33.82,17.88 33.77,17.885 33.71,17.915 C33.65,17.945 33.6,17.94 33.56,17.9 C33.52,17.84 33.365,17.91 33.095,18.11 C32.825,18.31 32.535,18.545 32.225,18.815 C31.915,19.085 31.61,19.345 31.31,19.595 C31.01,19.845 30.81,19.97 30.71,19.97 L30.71,19.97 L30.71,19.94 C30.69,19.92 30.67,19.91 30.65,19.91 C30.51,20.07 30.365,20.2 30.215,20.3 C30.065,20.4 29.9,20.52 29.72,20.66 C29.24,20.92 28.765,21.185 28.295,21.455 C27.825,21.725 27.24,21.9 26.54,21.98 C26.42,21.58 26.43,21.11 26.57,20.57 C26.71,20.03 26.82,19.53 26.9,19.07 C27.06,18.79 27.205,18.44 27.335,18.02 C27.465,17.6 27.51,17.21 27.47,16.85 C27.45,16.79 27.43,16.745 27.41,16.715 C27.39,16.685 27.36,16.64 27.32,16.58 C27.26,16.6 27.215,16.605 27.185,16.595 C27.155,16.585 27.13,16.59 27.11,16.61 C26.95,16.53 26.785,16.43 26.615,16.31 C26.445,16.19 26.26,16.15 26.06,16.19 C26.02,16.19 25.98,16.22 25.94,16.28 C25.9,16.34 25.85,16.38 25.79,16.4 C25.65,16.44 25.52,16.5 25.4,16.58 C25.28,16.66 25.15,16.75 25.01,16.85 C24.89,16.49 24.67,16.23 24.35,16.07 C24.03,15.91 23.66,15.81 23.24,15.77 C23.16,15.63 23.06,15.605 22.94,15.695 C22.82,15.785 22.71,15.81 22.61,15.77 C22.45,15.83 22.305,15.91 22.175,16.01 C22.045,16.11 21.92,16.19 21.8,16.25 C21.42,16.63 21.055,17.015 20.705,17.405 C20.355,17.795 20.01,18.22 19.67,18.68 C19.49,18.96 19.3,19.265 19.1,19.595 C18.9,19.925 18.75,20.28 18.65,20.66 C18.57,20.82 18.505,21.01 18.455,21.23 C18.405,21.45 18.39,21.63 18.41,21.77 C18.43,22.05 18.465,22.26 18.515,22.4 C18.565,22.54 18.7,22.66 18.92,22.76 C19.02,22.82 19.095,22.885 19.145,22.955 C19.195,23.025 19.29,23.07 19.43,23.09 C19.67,23.27 19.905,23.35 20.135,23.33 L20.0195833,23.3316667 Z M19.94,22.07 C19.94,21.83 19.99,21.635 20.09,21.485 C20.19,21.335 20.26,21.15 20.3,20.93 C20.32,20.95 20.33,20.945 20.33,20.915 C20.33,20.885 20.35,20.88 20.39,20.9 C20.43,20.74 20.48,20.62 20.54,20.54 C20.6,20.46 20.65,20.37 20.69,20.27 C20.85,19.95 21.035,19.615 21.245,19.265 C21.455,18.915 21.67,18.6 21.89,18.32 L21.89,18.32 L22.31,17.84 C22.37,17.76 22.42,17.685 22.46,17.615 C22.5,17.545 22.54,17.49 22.58,17.45 C22.62,17.41 22.67,17.375 22.73,17.345 C22.79,17.315 22.84,17.27 22.88,17.21 L22.88,17.21 L23.36,16.67 C23.64,16.53 23.835,16.55 23.945,16.73 C24.055,16.91 24.13,17.13 24.17,17.39 C24.31,17.39 24.4,17.41 24.44,17.45 L24.44,17.45 L24.44,17.51 C24.38,17.53 24.33,17.575 24.29,17.645 C24.25,17.715 24.2,17.77 24.14,17.81 C23.62,18.45 23.095,19.075 22.565,19.685 C22.035,20.295 21.48,20.88 20.9,21.44 C20.78,21.56 20.63,21.67 20.45,21.77 C20.27,21.87 20.1,21.97 19.94,22.07 Z M34.0571875,24.329375 L34.165,24.32 C34.315,24.3 34.44,24.27 34.54,24.23 C34.6,24.23 34.66,24.225 34.72,24.215 C34.78,24.205 34.83,24.2 34.87,24.2 C34.95,24.14 35.04,24.085 35.14,24.035 L35.14,24.035 L35.41,23.9 C35.43,23.88 35.46,23.875 35.5,23.885 C35.54,23.895 35.58,23.89 35.62,23.87 L35.62,23.87 L35.62,23.81 C35.9,23.67 36.185,23.52 36.475,23.36 C36.765,23.2 37.03,23.04 37.27,22.88 C37.29,22.82 37.3,22.78 37.3,22.76 C37.3,22.74 37.33,22.69 37.39,22.61 L37.39,22.61 L37.51,22.61 C37.79,22.39 38.08,22.15 38.38,21.89 C38.68,21.63 38.96,21.33 39.22,20.99 C39.44,20.79 39.68,20.555 39.94,20.285 C40.2,20.015 40.425,19.725 40.615,19.415 C40.805,19.105 40.94,18.79 41.02,18.47 C41.1,18.15 41.08,17.84 40.96,17.54 C40.82,17.3 40.61,17.12 40.33,17 L40.33,17 L39.88,16.73 C39.72,16.65 39.555,16.625 39.385,16.655 C39.215,16.685 39.06,16.72 38.92,16.76 C38.8,16.82 38.66,16.86 38.5,16.88 C38.34,16.9 38.2,16.93 38.08,16.97 C37.36,17.23 36.7,17.565 36.1,17.975 C35.5,18.385 34.9,18.79 34.3,19.19 C34.14,19.35 33.985,19.49 33.835,19.61 C33.685,19.73 33.53,19.82 33.37,19.88 C33.65,19.3 33.94,18.725 34.24,18.155 C34.54,17.585 34.83,17.03 35.11,16.49 C35.15,16.43 35.18,16.36 35.2,16.28 C35.22,16.2 35.23,16.13 35.23,16.07 C35.29,15.93 35.36,15.81 35.44,15.71 C35.52,15.61 35.57,15.51 35.59,15.41 C35.69,15.19 35.815,14.955 35.965,14.705 C36.115,14.455 36.24,14.22 36.34,14 C36.46,13.78 36.57,13.545 36.67,13.295 C36.77,13.045 36.88,12.78 37,12.5 C37.06,12.36 37.135,12.235 37.225,12.125 C37.315,12.015 37.41,11.89 37.51,11.75 C37.51,11.59 37.56,11.46 37.66,11.36 L37.66,11.36 L37.87,11.03 C37.95,10.89 38.01,10.745 38.05,10.595 C38.09,10.445 38.15,10.28 38.23,10.1 L38.23,10.1 L38.53,9.41 C38.63,9.19 38.7,8.965 38.74,8.735 C38.78,8.505 38.85,8.32 38.95,8.18 C38.91,8.04 38.835,7.955 38.725,7.925 C38.615,7.895 38.49,7.875 38.35,7.865 C38.21,7.855 38.075,7.85 37.945,7.85 C37.815,7.85 37.71,7.81 37.63,7.73 C37.53,7.75 37.485,7.805 37.495,7.895 C37.505,7.985 37.49,8.06 37.45,8.12 C37.43,8.24 37.395,8.34 37.345,8.42 C37.295,8.5 37.22,8.59 37.12,8.69 C37.04,8.89 36.955,9.07 36.865,9.23 C36.775,9.39 36.71,9.57 36.67,9.77 C36.41,10.29 36.155,10.79 35.905,11.27 C35.655,11.75 35.38,12.24 35.08,12.74 C34.8,13.3 34.515,13.895 34.225,14.525 C33.935,15.155 33.63,15.77 33.31,16.37 C33.03,16.89 32.765,17.39 32.515,17.87 C32.265,18.35 32.04,18.85 31.84,19.37 C31.7,19.59 31.575,19.82 31.465,20.06 C31.355,20.3 31.25,20.53 31.15,20.75 C31.11,20.83 31.085,20.895 31.075,20.945 C31.065,20.995 31.03,21.05 30.97,21.11 C30.83,21.49 30.695,21.895 30.565,22.325 C30.435,22.755 30.47,23.08 30.67,23.3 C30.75,23.34 30.82,23.395 30.88,23.465 L30.88,23.465 L31.06,23.675 C31.12,23.745 31.185,23.8 31.255,23.84 C31.325,23.88 31.43,23.88 31.57,23.84 C31.67,23.8 31.755,23.72 31.825,23.6 C31.895,23.48 31.99,23.37 32.11,23.27 C32.15,23.31 32.205,23.315 32.275,23.285 C32.345,23.255 32.39,23.24 32.41,23.24 C32.45,23.24 32.465,23.22 32.455,23.18 C32.445,23.14 32.46,23.11 32.5,23.09 C32.58,23.13 32.54,23.23 32.38,23.39 C32.42,23.41 32.465,23.435 32.515,23.465 C32.565,23.495 32.61,23.52 32.65,23.54 C32.67,23.5 32.665,23.465 32.635,23.435 C32.605,23.405 32.63,23.36 32.71,23.3 C32.69,23.36 32.7,23.415 32.74,23.465 C32.78,23.515 32.76,23.56 32.68,23.6 C32.9,23.7 33.09,23.83 33.25,23.99 C33.41,24.15 33.59,24.25 33.79,24.29 C33.89,24.33 34.015,24.34 34.165,24.32 L34.0571875,24.329375 Z M34.1932,22.8956 L34.15,22.88 C34.07,22.84 34.02,22.82 34,22.82 C33.96,22.82 33.915,22.835 33.865,22.865 C33.815,22.895 33.77,22.88 33.73,22.82 C33.77,22.7 33.835,22.575 33.925,22.445 C34.015,22.315 34.01,22.24 33.91,22.22 C33.95,22.16 33.995,22.065 34.045,21.935 C34.095,21.805 34.11,21.7 34.09,21.62 C34.13,21.52 34.175,21.425 34.225,21.335 C34.275,21.245 34.32,21.15 34.36,21.05 C34.4,20.99 34.445,20.945 34.495,20.915 C34.545,20.885 34.59,20.83 34.63,20.75 C35.03,20.47 35.425,20.14 35.815,19.76 C36.205,19.38 36.6,19.08 37,18.86 C37.38,18.64 37.74,18.455 38.08,18.305 C38.42,18.155 38.79,17.97 39.19,17.75 C39.29,17.77 39.37,17.765 39.43,17.735 C39.49,17.705 39.57,17.71 39.67,17.75 C39.61,18.03 39.465,18.335 39.235,18.665 C39.005,18.995 38.79,19.27 38.59,19.49 C38.47,19.63 38.35,19.745 38.23,19.835 C38.11,19.925 38,20.04 37.9,20.18 C37.7,20.34 37.525,20.525 37.375,20.735 C37.225,20.945 37.04,21.1 36.82,21.2 C36.76,21.32 36.69,21.4 36.61,21.44 C36.53,21.48 36.45,21.51 36.37,21.53 C36.25,21.69 36.105,21.825 35.935,21.935 C35.765,22.045 35.62,22.13 35.5,22.19 C35.38,22.37 35.22,22.475 35.02,22.505 C34.82,22.535 34.61,22.57 34.39,22.61 C34.37,22.63 34.36,22.65 34.36,22.67 C34.34,22.69 34.33,22.705 34.33,22.715 C34.33,22.725 34.32,22.74 34.3,22.76 C34.4,22.78 34.495,22.76 34.585,22.7 C34.675,22.64 34.77,22.61 34.87,22.61 C34.77,22.71 34.655,22.775 34.525,22.805 C34.395,22.835 34.31,22.83 34.27,22.79 C34.27,22.89 34.23,22.92 34.15,22.88 L34.1932,22.8956 Z M45.96,14.63 C46.02,14.53 46.1,14.46 46.2,14.42 C46.34,14.44 46.435,14.39 46.485,14.27 C46.535,14.15 46.61,14.05 46.71,13.97 C46.75,13.93 46.76,13.905 46.74,13.895 C46.72,13.885 46.73,13.87 46.77,13.85 C46.65,13.85 46.61,13.81 46.65,13.73 C46.39,13.71 46.17,13.66 45.99,13.58 C45.81,13.5 45.6,13.45 45.36,13.43 C45.34,13.45 45.32,13.46 45.3,13.46 C45.28,13.46 45.25,13.48 45.21,13.52 C44.97,13.48 44.825,13.545 44.775,13.715 C44.725,13.885 44.7,14.06 44.7,14.24 C44.84,14.3 44.965,14.36 45.075,14.42 C45.185,14.48 45.33,14.54 45.51,14.6 C45.53,14.54 45.59,14.51 45.69,14.51 C45.73,14.55 45.76,14.58 45.78,14.6 C45.8,14.62 45.86,14.63 45.96,14.63 Z M41.8366667,20.5033333 L41.82,20.51 C41.7,20.67 41.66,20.8 41.7,20.9 C41.72,20.9 41.725,20.88 41.715,20.84 C41.705,20.8 41.72,20.78 41.76,20.78 C41.76,20.88 41.73,20.96 41.67,21.02 C41.61,21.08 41.57,21.16 41.55,21.26 C41.57,21.24 41.6,21.23 41.64,21.23 C41.56,21.39 41.52,21.53 41.52,21.65 C41.44,21.65 41.4,21.685 41.4,21.755 C41.4,21.825 41.42,21.88 41.46,21.92 C41.46,21.8 41.48,21.72 41.52,21.68 C41.58,21.78 41.575,21.86 41.505,21.92 C41.435,21.98 41.42,22.06 41.46,22.16 C41.48,22.16 41.51,22.14 41.55,22.1 C41.55,22.14 41.545,22.16 41.535,22.16 C41.525,22.16 41.52,22.17 41.52,22.19 C41.58,22.25 41.61,22.3 41.61,22.34 C41.61,22.38 41.64,22.41 41.7,22.43 C41.76,22.53 41.835,22.65 41.925,22.79 C42.015,22.93 42.13,23.05 42.27,23.15 C42.37,23.21 42.515,23.25 42.705,23.27 C42.895,23.29 43.09,23.32 43.29,23.36 C43.59,23.4 43.87,23.395 44.13,23.345 C44.39,23.295 44.63,23.25 44.85,23.21 C45.09,23.15 45.33,23.04 45.57,22.88 C45.73,22.82 45.885,22.76 46.035,22.7 C46.185,22.64 46.3,22.54 46.38,22.4 C46.48,22.38 46.56,22.345 46.62,22.295 C46.68,22.245 46.73,22.2 46.77,22.16 C46.81,22.14 46.83,22.14 46.83,22.16 C46.83,22.18 46.84,22.19 46.86,22.19 C46.86,22.15 46.87,22.11 46.89,22.07 C46.99,22.05 47.065,22.02 47.115,21.98 C47.165,21.94 47.22,21.9 47.28,21.86 C47.38,21.82 47.43,21.8 47.43,21.8 C47.47,21.78 47.505,21.75 47.535,21.71 C47.565,21.67 47.6,21.68 47.64,21.74 C47.7,21.7 47.755,21.65 47.805,21.59 C47.855,21.53 47.9,21.48 47.94,21.44 C47.98,21.44 47.985,21.45 47.955,21.47 C47.925,21.49 47.92,21.5 47.94,21.5 C48,21.48 48.05,21.465 48.09,21.455 C48.13,21.445 48.16,21.4 48.18,21.32 L48.18,21.32 L48.09,21.32 C48.13,21.3 48.15,21.275 48.15,21.245 C48.15,21.215 48.17,21.21 48.21,21.23 L48.21,21.23 L48.21,21.35 C48.35,21.27 48.46,21.17 48.54,21.05 C48.62,20.93 48.66,20.86 48.66,20.84 L48.66,20.84 L48.75,20.84 C48.71,20.8 48.71,20.765 48.75,20.735 C48.79,20.705 48.82,20.71 48.84,20.75 C48.84,20.71 48.845,20.685 48.855,20.675 C48.865,20.665 48.87,20.65 48.87,20.63 C48.91,20.65 48.93,20.66 48.93,20.66 C48.97,20.62 49.065,20.54 49.215,20.42 C49.365,20.3 49.47,20.22 49.53,20.18 L49.53,20.18 L49.89,19.82 C49.93,19.78 50.02,19.71 50.16,19.61 C50.3,19.51 50.39,19.47 50.43,19.49 C50.39,19.57 50.385,19.585 50.415,19.535 C50.445,19.485 50.49,19.42 50.55,19.34 C50.61,19.26 50.665,19.175 50.715,19.085 C50.765,18.995 50.78,18.94 50.76,18.92 C50.82,18.92 50.84,18.93 50.82,18.95 C50.8,18.97 50.82,18.98 50.88,18.98 C50.94,18.9 50.98,18.82 51,18.74 C51.02,18.66 51.08,18.6 51.18,18.56 C51.18,18.5 51.23,18.47 51.33,18.47 C51.33,18.49 51.325,18.515 51.315,18.545 C51.305,18.575 51.32,18.59 51.36,18.59 C51.38,18.51 51.4,18.455 51.42,18.425 C51.44,18.395 51.46,18.36 51.48,18.32 C51.56,18.32 51.585,18.34 51.555,18.38 C51.525,18.42 51.53,18.44 51.57,18.44 C51.59,18.38 51.61,18.345 51.63,18.335 C51.65,18.325 51.68,18.3 51.72,18.26 C51.68,18.2 51.69,18.135 51.75,18.065 C51.81,17.995 51.79,17.94 51.69,17.9 C51.71,17.9 51.73,17.855 51.75,17.765 C51.77,17.675 51.78,17.62 51.78,17.6 C51.72,17.58 51.68,17.635 51.66,17.765 C51.64,17.895 51.59,17.94 51.51,17.9 C51.51,17.88 51.525,17.83 51.555,17.75 C51.585,17.67 51.62,17.62 51.66,17.6 C51.58,17.56 51.555,17.51 51.585,17.45 C51.615,17.39 51.58,17.34 51.48,17.3 C51.48,17.36 51.44,17.38 51.36,17.36 C51.32,17.5 51.225,17.59 51.075,17.63 C50.925,17.67 50.83,17.74 50.79,17.84 L50.79,17.84 L50.58,17.99 C50.5,18.03 50.435,18.065 50.385,18.095 C50.335,18.125 50.29,18.17 50.25,18.23 C50.05,18.37 49.89,18.485 49.77,18.575 C49.65,18.665 49.49,18.79 49.29,18.95 C49.21,19.01 49.11,19.075 48.99,19.145 C48.87,19.215 48.77,19.28 48.69,19.34 L48.69,19.34 L47.88,19.97 L46.92,20.69 L46.68,20.84 L45.87,21.44 C45.49,21.64 45.125,21.825 44.775,21.995 C44.425,22.165 44.02,22.31 43.56,22.43 C43.4,22.13 43.355,21.87 43.425,21.65 C43.495,21.43 43.56,21.16 43.62,20.84 C43.74,20.5 43.86,20.19 43.98,19.91 C44.1,19.63 44.24,19.33 44.4,19.01 C44.5,18.85 44.565,18.695 44.595,18.545 C44.625,18.395 44.66,18.28 44.7,18.2 C44.72,18.16 44.745,18.13 44.775,18.11 C44.805,18.09 44.83,18.06 44.85,18.02 C44.99,17.8 45.09,17.57 45.15,17.33 C45.21,17.09 45.31,16.86 45.45,16.64 C45.47,16.6 45.475,16.555 45.465,16.505 C45.455,16.455 45.47,16.42 45.51,16.4 C45.51,16.32 45.5,16.245 45.48,16.175 C45.46,16.105 45.4,16.05 45.3,16.01 C45.08,15.93 44.855,15.865 44.625,15.815 C44.395,15.765 44.26,15.84 44.22,16.04 L44.22,16.04 L44.16,16.04 C44.14,16.18 44.09,16.31 44.01,16.43 C43.93,16.55 43.84,16.67 43.74,16.79 C43.54,17.19 43.315,17.605 43.065,18.035 C42.815,18.465 42.61,18.87 42.45,19.25 C42.39,19.31 42.345,19.38 42.315,19.46 C42.285,19.54 42.25,19.62 42.21,19.7 C42.13,19.72 42.105,19.75 42.135,19.79 C42.165,19.83 42.15,19.88 42.09,19.94 C41.99,19.98 41.935,20.05 41.925,20.15 C41.915,20.25 41.89,20.35 41.85,20.45 C41.87,20.49 41.875,20.54 41.865,20.6 C41.855,20.66 41.83,20.7 41.79,20.72 C41.75,20.68 41.75,20.635 41.79,20.585 C41.83,20.535 41.85,20.49 41.85,20.45 L41.843,20.489 L41.8366667,20.5033333 L41.8366667,20.5033333 Z M55.73,12.92 L55.7628125,12.8965625 C55.7984375,12.8796875 55.8425,12.8825 55.895,12.905 C55.965,12.935 56.02,12.9 56.06,12.8 C56.1,12.8 56.14,12.795 56.18,12.785 C56.22,12.775 56.26,12.77 56.3,12.77 L56.3,12.77 L56.33,12.77 C56.35,12.77 56.36,12.775 56.36,12.785 C56.36,12.795 56.37,12.8 56.39,12.8 C56.39,12.84 56.375,12.855 56.345,12.845 C56.315,12.835 56.3,12.85 56.3,12.89 C56.44,12.89 56.545,12.885 56.615,12.875 C56.685,12.865 56.77,12.86 56.87,12.86 C56.91,12.82 56.93,12.76 56.93,12.68 C56.93,12.6 56.95,12.56 56.99,12.56 C56.97,12.58 57.01,12.59 57.11,12.59 C57.09,12.59 57.08,12.6 57.08,12.62 C57.08,12.66 57.09,12.68 57.11,12.68 C57.15,12.66 57.18,12.64 57.2,12.62 C57.22,12.6 57.25,12.59 57.29,12.59 C57.29,12.61 57.3,12.62 57.32,12.62 C57.34,12.62 57.35,12.64 57.35,12.68 C57.33,12.7 57.31,12.71 57.29,12.71 C57.27,12.71 57.24,12.72 57.2,12.74 C57.28,12.82 57.365,12.84 57.455,12.8 C57.545,12.76 57.62,12.72 57.68,12.68 L57.68,12.68 L57.68,12.74 C57.78,12.7 57.89,12.675 58.01,12.665 C58.13,12.655 58.19,12.69 58.19,12.77 C58.23,12.83 58.25,12.845 58.25,12.815 C58.25,12.785 58.29,12.75 58.37,12.71 C58.35,12.71 58.34,12.705 58.34,12.695 C58.34,12.685 58.33,12.68 58.31,12.68 C58.33,12.64 58.345,12.63 58.355,12.65 C58.365,12.67 58.38,12.68 58.4,12.68 L58.4,12.68 L58.4,12.709 L58.4033334,12.6933333 C58.4055556,12.6888889 58.4088889,12.6855556 58.4133334,12.6833333 L58.43,12.68 L58.43,12.71 L58.55,12.71 C58.51,12.75 58.5,12.775 58.52,12.785 C58.54,12.795 58.575,12.795 58.625,12.785 C58.675,12.775 58.73,12.76 58.79,12.74 C58.85,12.72 58.89,12.7 58.91,12.68 C58.89,12.64 58.855,12.64 58.805,12.68 C58.755,12.72 58.72,12.72 58.7,12.68 C58.78,12.6 58.88,12.6 59,12.68 C59.02,12.64 59.06,12.62 59.12,12.62 L59.12,12.62 L59.27,12.62 C59.23,12.66 59.19,12.675 59.15,12.665 C59.11,12.655 59.11,12.67 59.15,12.71 C59.21,12.71 59.25,12.7 59.27,12.68 C59.29,12.66 59.33,12.67 59.39,12.71 L59.39,12.71 L59.39,12.797 L59.3948,12.7568 C59.4044,12.7184 59.4284,12.6944 59.4668,12.6848 L59.51,12.68 L59.51,12.68 L59.51,12.77 C59.53,12.71 59.56,12.67 59.6,12.65 C59.64,12.63 59.67,12.62 59.69,12.62 C59.69,12.66 59.685,12.675 59.675,12.665 C59.665,12.655 59.64,12.69 59.6,12.77 C59.7,12.83 59.755,12.825 59.765,12.755 C59.775,12.685 59.8,12.65 59.84,12.65 C59.78,12.75 59.805,12.775 59.915,12.725 C60.025,12.675 60.1,12.69 60.14,12.77 C60.14,12.75 60.17,12.72 60.23,12.68 C60.25,12.7 60.255,12.715 60.245,12.725 C60.235,12.735 60.25,12.74 60.29,12.74 L60.29,12.74 L60.32,12.74 L60.35,12.71 C60.35,12.71 60.39,12.69 60.47,12.65 C60.53,12.71 60.57,12.745 60.59,12.755 C60.61,12.765 60.625,12.76 60.635,12.74 C60.645,12.72 60.66,12.695 60.68,12.665 C60.7,12.635 60.75,12.62 60.83,12.62 C60.83,12.66 60.82,12.675 60.8,12.665 C60.78,12.655 60.77,12.67 60.77,12.71 C60.83,12.73 60.87,12.73 60.89,12.71 C60.91,12.69 60.97,12.71 61.07,12.77 C61.23,12.69 61.365,12.66 61.475,12.68 C61.585,12.7 61.71,12.7 61.85,12.68 C61.89,12.7 61.93,12.71 61.97,12.71 C61.99,12.67 62.025,12.65 62.075,12.65 C62.125,12.65 62.17,12.63 62.21,12.59 C62.11,12.53 62.05,12.46 62.03,12.38 C62.11,12.38 62.17,12.36 62.21,12.32 C62.15,12.3 62.115,12.285 62.105,12.275 C62.095,12.265 62.08,12.25 62.06,12.23 C62.06,12.19 62.07,12.17 62.09,12.17 C62.11,12.17 62.13,12.16 62.15,12.14 C62.13,12.1 62.125,12.055 62.135,12.005 C62.145,11.955 62.14,11.92 62.12,11.9 C61.96,11.72 61.76,11.615 61.52,11.585 C61.28,11.555 61.08,11.54 60.92,11.54 C60.76,11.48 60.685,11.455 60.695,11.465 C60.705,11.475 60.74,11.5 60.8,11.54 C60.74,11.58 60.65,11.58 60.53,11.54 L60.53,11.54 L60.56,11.51 C60.52,11.51 60.48,11.52 60.44,11.54 C60.4,11.56 60.39,11.56 60.41,11.54 C60.33,11.56 60.255,11.56 60.185,11.54 C60.115,11.52 60.05,11.51 59.99,11.51 C59.79,11.45 59.605,11.45 59.435,11.51 C59.265,11.57 59.09,11.58 58.91,11.54 C58.83,11.56 58.78,11.57 58.76,11.57 L58.76,11.57 L58.01,11.57 C57.77,11.57 57.49,11.61 57.17,11.69 C56.83,11.69 56.51,11.7 56.21,11.72 C55.91,11.74 55.59,11.77 55.25,11.81 C55.29,11.59 55.37,11.435 55.49,11.345 C55.61,11.255 55.72,11.11 55.82,10.91 C55.92,10.73 55.995,10.58 56.045,10.46 C56.095,10.34 56.17,10.2 56.27,10.04 C56.35,9.88 56.455,9.725 56.585,9.575 C56.715,9.425 56.81,9.26 56.87,9.08 C56.87,9.04 56.88,9 56.9,8.96 L56.9,8.96 L57.17,8.75 C57.23,8.63 57.23,8.515 57.17,8.405 C57.11,8.295 57.02,8.19 56.9,8.09 C56.78,7.99 56.65,7.91 56.51,7.85 C56.37,7.79 56.25,7.75 56.15,7.73 C56.15,7.69 56.125,7.665 56.075,7.655 C56.025,7.645 56.01,7.61 56.03,7.55 C55.99,7.59 55.945,7.595 55.895,7.565 C55.845,7.535 55.8,7.54 55.76,7.58 L55.76,7.58 L55.76,7.73 C55.3,8.45 54.86,9.15 54.44,9.83 C54.02,10.51 53.61,11.26 53.21,12.08 C52.39,12.18 51.73,12.29 51.23,12.41 C50.73,12.53 50.3,12.65 49.94,12.77 C49.58,12.89 49.25,13.005 48.95,13.115 C48.65,13.225 48.29,13.32 47.87,13.4 L47.87,13.4 L47.75,13.31 C47.75,13.41 47.79,13.51 47.87,13.61 C47.95,13.71 47.97,13.82 47.93,13.94 C47.99,14.04 48.065,14.115 48.155,14.165 C48.245,14.215 48.37,14.21 48.53,14.15 C48.57,14.15 48.595,14.155 48.605,14.165 C48.615,14.175 48.64,14.19 48.68,14.21 C48.84,14.23 49.005,14.2 49.175,14.12 C49.345,14.04 49.49,14.02 49.61,14.06 C49.85,14 49.995,13.96 50.045,13.94 C50.095,13.92 50.125,13.91 50.135,13.91 L50.135,13.91 L50.24,13.91 C50.3,13.91 50.45,13.89 50.69,13.85 C50.83,13.83 50.96,13.8 51.08,13.76 C51.2,13.72 51.34,13.68 51.5,13.64 C51.64,13.64 51.775,13.615 51.905,13.565 C52.035,13.515 52.17,13.47 52.31,13.43 C52.41,13.43 52.45,13.445 52.43,13.475 C52.41,13.505 52.44,13.49 52.52,13.43 C52.42,13.79 52.255,14.2 52.025,14.66 C51.795,15.12 51.6,15.51 51.44,15.83 L51.44,15.83 L51.32,16.04 C51.34,16.04 51.35,16.045 51.35,16.055 C51.35,16.065 51.33,16.12 51.29,16.22 C51.11,16.64 50.94,17.075 50.78,17.525 C50.62,17.975 50.49,18.41 50.39,18.83 C50.33,18.91 50.3,18.99 50.3,19.07 C50.3,19.15 50.28,19.24 50.24,19.34 C50.14,19.74 50.04,20.17 49.94,20.63 C49.84,21.09 49.8,21.49 49.82,21.83 C49.82,21.87 49.81,21.895 49.79,21.905 C49.77,21.915 49.76,21.94 49.76,21.98 C49.76,22.26 49.78,22.475 49.82,22.625 C49.86,22.775 49.93,22.905 50.03,23.015 C50.13,23.125 50.27,23.22 50.45,23.3 C50.63,23.38 50.84,23.49 51.08,23.63 C51.42,23.79 51.76,23.905 52.1,23.975 C52.44,24.045 52.76,24.01 53.06,23.87 C53.22,23.85 53.4,23.81 53.6,23.75 C53.8,23.69 53.98,23.63 54.14,23.57 L54.14,23.57 L54.92,23.15 L54.92,23.15 L54.98,23.15 C55.02,23.07 55.1,23.04 55.22,23.06 C55.18,23.06 55.16,23.08 55.16,23.12 C55.26,23.12 55.345,23.085 55.415,23.015 C55.485,22.945 55.56,22.9 55.64,22.88 C55.64,22.9 55.66,22.91 55.7,22.91 C55.78,22.89 55.83,22.865 55.85,22.835 C55.87,22.805 55.885,22.78 55.895,22.76 C55.905,22.74 55.92,22.715 55.94,22.685 C55.96,22.655 56.01,22.62 56.09,22.58 L56.09,22.58 L56.06,22.61 C56.16,22.61 56.245,22.575 56.315,22.505 C56.385,22.435 56.47,22.38 56.57,22.34 L56.57,22.34 L56.84,22.1 C56.86,22.1 56.865,22.115 56.855,22.145 C56.845,22.175 56.85,22.21 56.87,22.25 C56.91,22.21 56.94,22.185 56.96,22.175 C56.98,22.165 57,22.13 57.02,22.07 C57.24,22.03 57.415,21.9 57.545,21.68 C57.675,21.46 57.84,21.31 58.04,21.23 C58.14,21.07 58.25,20.965 58.37,20.915 C58.49,20.865 58.61,20.78 58.73,20.66 C58.77,20.62 58.82,20.54 58.88,20.42 C58.94,20.3 58.99,20.23 59.03,20.21 C58.99,20.29 58.95,20.375 58.91,20.465 C58.87,20.555 58.85,20.62 58.85,20.66 C58.79,20.7 58.715,20.75 58.625,20.81 C58.535,20.87 58.47,20.93 58.43,20.99 C58.55,20.95 58.63,20.93 58.67,20.93 C58.7,20.87 58.74875,20.79625 58.81625,20.70875 L58.878,20.632 L58.88,20.66 C58.91,20.63 58.9540625,20.5803125 59.0121875,20.5109375 L59.075,20.435 C59.093,20.413 59.1084,20.3924 59.1212,20.3732 L59.149,20.323 L59.1944,20.2724 C59.3072,20.1452 59.4002,20.0342 59.4734,19.9394 L59.54,19.85 C59.5,19.85 59.495,19.84 59.525,19.82 C59.555,19.8 59.57,19.77 59.57,19.73 C59.59,19.73 59.6,19.74 59.6,19.76 L59.6,19.76 L59.6,19.79 C59.6,19.75 59.61,19.72 59.63,19.7 C59.67,19.68 59.69,19.655 59.69,19.625 C59.69,19.595 59.71,19.56 59.75,19.52 L59.75,19.52 L59.75,19.58 L59.93,19.43 C59.93,19.45 59.97,19.42 60.05,19.34 C60.07,19.34 60.09,19.33 60.11,19.31 L60.11,19.31 L60.08,19.31 C60.38,18.85 60.55,18.62 60.59,18.62 C60.55,18.56 60.52,18.53 60.5,18.53 C60.54,18.45 60.56,18.39 60.56,18.35 C60.46,18.33 60.455,18.3 60.545,18.26 C60.635,18.22 60.66,18.19 60.62,18.17 C60.62,18.15 60.625,18.14 60.635,18.14 C60.645,18.14 60.65,18.12 60.65,18.08 C60.61,18.08 60.57,18.075 60.53,18.065 C60.49,18.055 60.47,18.03 60.47,17.99 C60.43,18.03 60.385,18.025 60.335,17.975 C60.285,17.925 60.19,17.88 60.05,17.84 C60.01,18 59.93,18.07 59.81,18.05 C59.77,18.11 59.74,18.15 59.72,18.17 C59.7,18.19 59.66,18.22 59.6,18.26 C59.58,18.26 59.57,18.29 59.57,18.35 C59.51,18.43 59.475,18.475 59.465,18.485 C59.455,18.495 59.445,18.5 59.435,18.5 C59.425,18.5 59.415,18.51 59.405,18.53 C59.395,18.55 59.38,18.62 59.36,18.74 C59.34,18.74 59.32,18.73 59.3,18.71 C59.26,18.75 59.15,18.865 58.97,19.055 C58.79,19.245 58.585,19.45 58.355,19.67 C58.125,19.89 57.9,20.09 57.68,20.27 C57.46,20.45 57.3,20.55 57.2,20.57 C57,20.71 56.785,20.85 56.555,20.99 C56.325,21.13 56.12,21.26 55.94,21.38 C55.92,21.36 55.9,21.35 55.88,21.35 C55.72,21.53 55.6,21.59 55.52,21.53 L55.52,21.53 L55.52,21.65 C55.4,21.69 55.31,21.725 55.25,21.755 C55.19,21.785 55.135,21.82 55.085,21.86 C55.035,21.9 54.975,21.935 54.905,21.965 C54.835,21.995 54.74,22.03 54.62,22.07 C54.6,22.15 54.56,22.195 54.5,22.205 C54.44,22.215 54.38,22.23 54.32,22.25 C54.32,22.29 54.315,22.305 54.305,22.295 C54.295,22.285 54.27,22.3 54.23,22.34 C54.03,22.4 53.815,22.475 53.585,22.565 C53.355,22.655 53.13,22.73 52.91,22.79 C52.73,22.87 52.52,22.935 52.28,22.985 C52.04,23.035 51.84,23.06 51.68,23.06 C51.6,23.06 51.57,23.065 51.59,23.075 L51.59,23.075 L51.595,23.078 L51.584375,23.0721875 L51.584375,23.0721875 L51.56,23.06 C51.4,22.78 51.365,22.515 51.455,22.265 C51.545,22.015 51.6,21.74 51.62,21.44 C51.64,21.24 51.68,21.05 51.74,20.87 C51.8,20.69 51.85,20.51 51.89,20.33 C51.99,19.79 52.1,19.255 52.22,18.725 C52.34,18.195 52.51,17.75 52.73,17.39 C52.79,17.19 52.835,17.05 52.865,16.97 C52.895,16.89 52.925,16.825 52.955,16.775 L52.985,16.72 C53.005,16.68 53.025,16.6333333 53.045,16.58 C53.075,16.5 53.12,16.37 53.18,16.19 C53.34,15.75 53.55,15.28 53.81,14.78 C54.07,14.28 54.27,13.85 54.41,13.49 C54.45,13.41 54.48,13.345 54.5,13.295 C54.52,13.245 54.57,13.2 54.65,13.16 C54.75,13.14 54.865,13.12 54.995,13.1 C55.125,13.08 55.24,13.07 55.34,13.07 C55.4,13.03 55.45,13.025 55.49,13.055 C55.53,13.085 55.58,13.1 55.64,13.1 C55.68,13.06 55.715,13.04 55.745,13.04 C55.775,13.04 55.79,13.02 55.79,12.98 C55.79,12.94 55.785,12.93 55.775,12.95 C55.765,12.97 55.75,12.96 55.73,12.92 L55.73,12.92 Z M66.505,23.375 C66.715,23.385 66.93,23.37 67.15,23.33 C67.29,23.31 67.455,23.26 67.645,23.18 C67.835,23.1 68.02,23.01 68.2,22.91 C68.38,22.81 68.545,22.71 68.695,22.61 C68.845,22.51 68.97,22.43 69.07,22.37 C69.11,22.33 69.13,22.33 69.13,22.37 C69.19,22.27 69.245,22.205 69.295,22.175 C69.345,22.145 69.39,22.08 69.43,21.98 C69.47,21.94 69.495,21.92 69.505,21.92 C69.515,21.92 69.54,21.91 69.58,21.89 C69.64,21.83 69.69,21.805 69.73,21.815 C69.77,21.825 69.8,21.83 69.82,21.83 C69.84,21.83 69.86,21.82 69.88,21.8 C69.9,21.78 69.94,21.72 70,21.62 C70.04,21.62 70.055,21.625 70.045,21.635 C70.035,21.645 70.05,21.64 70.09,21.62 C70.11,21.58 70.135,21.56 70.165,21.56 C70.195,21.56 70.21,21.52 70.21,21.44 C70.23,21.42 70.295,21.37 70.405,21.29 C70.515,21.21 70.58,21.15 70.6,21.11 C70.56,21.05 70.55,21.01 70.57,20.99 C70.61,21.01 70.64,20.98 70.66,20.9 C70.68,20.82 70.71,20.76 70.75,20.72 L70.75,20.72 L70.78,20.81 C70.82,20.73 70.85,20.675 70.87,20.645 C70.89,20.615 70.905,20.6 70.915,20.6 C70.925,20.6 70.94,20.59 70.96,20.57 L70.96,20.57 L71.08,20.45 L71.08,20.48 C71.24,20.4 71.36,20.23 71.44,19.97 C71.48,19.95 71.515,19.93 71.545,19.91 C71.575,19.89 71.61,19.89 71.65,19.91 C71.69,19.77 71.765,19.7 71.875,19.7 C71.985,19.7 72.06,19.68 72.1,19.64 L72.1,19.64 L72.13,19.64 L72.13,19.61 C72.11,19.59 72.11,19.57 72.13,19.55 C72.29,19.45 72.365,19.37 72.355,19.31 C72.345,19.25 72.41,19.17 72.55,19.07 C72.55,19.05 72.52,19.05 72.46,19.07 C72.4,19.09 72.39,19.08 72.43,19.04 C72.47,18.94 72.505,18.87 72.535,18.83 C72.565,18.79 72.6,18.75 72.64,18.71 C72.6,18.61 72.635,18.505 72.745,18.395 C72.855,18.285 72.9,18.17 72.88,18.05 C72.84,18.05 72.82,18.06 72.82,18.08 C72.82,18.1 72.8,18.12 72.76,18.14 C72.74,18.24 72.72,18.275 72.7,18.245 C72.68,18.215 72.65,18.22 72.61,18.26 C72.61,18.2 72.64,18.14 72.7,18.08 L72.7,18.08 L72.37,18.08 C72.21,18.28 72.06,18.435 71.92,18.545 C71.78,18.655 71.655,18.75 71.545,18.83 C71.435,18.91 71.33,18.99 71.23,19.07 C71.13,19.15 71.03,19.26 70.93,19.4 C70.8833334,19.4066667 70.8466667,19.4116667 70.82,19.415 L70.793,19.418 C70.7865556,19.4348889 70.76,19.46375 70.7133334,19.5045833 L70.66,19.55 C70.2,19.99 69.69,20.36 69.13,20.66 C69.07,20.74 69.035,20.785 69.025,20.795 C69.015,20.805 69.005,20.81 68.995,20.81 L68.995,20.81 L68.935,20.81 C68.905,20.81 68.85,20.83 68.77,20.87 L68.77,20.87 L68.74,20.96 C68.42,21.12 68.045,21.36 67.615,21.68 C67.185,22 66.78,22.18 66.4,22.22 C66.3,22.04 66.255,21.795 66.265,21.485 C66.275,21.175 66.315,20.85 66.385,20.51 C66.455,20.17 66.53,19.84 66.61,19.52 C66.69,19.2 66.76,18.93 66.82,18.71 C66.9,18.61 66.975,18.455 67.045,18.245 C67.115,18.035 67.17,17.805 67.21,17.555 C67.25,17.305 67.27,17.055 67.27,16.805 C67.27,16.555 67.26,16.33 67.24,16.13 C67.06,16.01 66.92,15.945 66.82,15.935 C66.72,15.925 66.53,15.92 66.25,15.92 C66.23,15.96 66.15,16 66.01,16.04 C66.01,16.16 65.985,16.245 65.935,16.295 C65.885,16.345 65.84,16.42 65.8,16.52 C64.9,17.78 63.975,18.89 63.025,19.85 C62.075,20.81 61.15,21.61 60.25,22.25 C60.29,21.89 60.34,21.555 60.4,21.245 C60.46,20.935 60.54,20.61 60.64,20.27 C60.72,20.11 60.815,19.9 60.925,19.64 C61.035,19.38 61.17,19.12 61.33,18.86 C61.37,18.8 61.415,18.695 61.465,18.545 C61.515,18.395 61.57,18.235 61.63,18.065 C61.69,17.895 61.745,17.73 61.795,17.57 C61.845,17.41 61.88,17.3 61.9,17.24 C61.98,17.16 62.02,17.13 62.02,17.15 L62.02,17.15 L62.2,16.79 C62.24,16.69 62.245,16.59 62.215,16.49 C62.185,16.39 62.21,16.27 62.29,16.13 C62.25,16.13 62.23,16.06 62.23,15.92 C62.19,15.86 62.125,15.775 62.035,15.665 C61.945,15.555 61.83,15.52 61.69,15.56 C61.57,15.46 61.405,15.42 61.195,15.44 C60.985,15.46 60.81,15.48 60.67,15.5 C60.65,15.52 60.645,15.545 60.655,15.575 C60.665,15.605 60.66,15.66 60.64,15.74 L60.64,15.74 L60.34,16.61 C60.22,16.97 60.06,17.395 59.86,17.885 C59.66,18.375 59.47,18.88 59.29,19.4 C59.11,19.92 58.96,20.44 58.84,20.96 C58.72,21.48 58.67,21.94 58.69,22.34 C58.73,22.4 58.775,22.51 58.825,22.67 C58.875,22.83 58.95,22.94 59.05,23 C59.11,23.04 59.215,23.065 59.365,23.075 C59.515,23.085 59.63,23.12 59.71,23.18 C59.97,23.26 60.22,23.31 60.46,23.33 C60.7,23.35 60.94,23.29 61.18,23.15 C61.5,22.93 61.835,22.69 62.185,22.43 C62.535,22.17 62.85,21.88 63.13,21.56 C63.37,21.42 63.54,21.24 63.64,21.02 C63.7,20.98 63.765,20.93 63.835,20.87 C63.905,20.81 63.96,20.74 64,20.66 C64.16,20.56 64.265,20.45 64.315,20.33 C64.365,20.21 64.44,20.13 64.54,20.09 C64.62,19.95 64.69,19.835 64.75,19.745 C64.81,19.655 64.89,19.55 64.99,19.43 C64.99,19.39 65,19.35 65.02,19.31 C65.04,19.27 65.07,19.25 65.11,19.25 C65.09,19.37 65.07,19.54 65.05,19.76 C65.03,19.98 65.005,20.215 64.975,20.465 C64.945,20.715 64.925,20.955 64.915,21.185 C64.905,21.415 64.91,21.58 64.93,21.68 C64.97,21.72 64.97,21.79 64.93,21.89 C64.95,21.87 64.98,21.91 65.02,22.01 C65.06,22.17 65.115,22.33 65.185,22.49 C65.255,22.65 65.37,22.78 65.53,22.88 L65.53,22.88 L65.59,22.91 L65.65,23.03 C65.65,23.07 65.67,23.095 65.71,23.105 C65.75,23.115 65.78,23.13 65.8,23.15 C66.06,23.29 66.295,23.365 66.505,23.375 Z M72.24,23.96 C72.22,23.94 72.21,23.915 72.21,23.885 C72.21,23.855 72.19,23.83 72.15,23.81 C72.19,23.61 72.275,23.465 72.405,23.375 C72.535,23.285 72.64,23.17 72.72,23.03 C72.74,22.99 72.77,22.97 72.81,22.97 C72.85,22.87 72.93,22.8 73.05,22.76 C73.05,22.74 73.045,22.73 73.035,22.73 C73.025,22.73 73.03,22.71 73.05,22.67 C73.09,22.71 73.11,22.69 73.11,22.61 C73.29,22.45 73.46,22.27 73.62,22.07 C73.78,21.87 73.95,21.71 74.13,21.59 C74.13,21.57 74.135,21.555 74.145,21.545 C74.155,21.535 74.16,21.52 74.16,21.5 C74.42,21.34 74.65,21.17 74.85,20.99 C75.05,20.81 75.26,20.64 75.48,20.48 C75.5,20.5 75.51,20.51 75.51,20.51 C75.27,21.05 74.99,21.55 74.67,22.01 C74.35,22.47 73.99,22.87 73.59,23.21 C73.59,23.25 73.58,23.275 73.56,23.285 C73.54,23.295 73.54,23.34 73.56,23.42 C73.34,23.52 73.125,23.615 72.915,23.705 C72.705,23.795 72.48,23.88 72.24,23.96 Z M71.9733334,21.7766667 L71.865,21.875 C71.755,21.965 71.68,22.09 71.64,22.25 C71.56,22.23 71.5,22.26 71.46,22.34 C71.42,22.42 71.35,22.43 71.25,22.37 C71.21,22.55 71.16,22.715 71.1,22.865 C71.04,23.015 70.96,23.11 70.86,23.15 C70.86,23.11 70.865,23.08 70.875,23.06 C70.885,23.04 70.89,23.01 70.89,22.97 C70.77,23.07 70.71,23.27 70.71,23.57 C70.61,23.57 70.545,23.595 70.515,23.645 C70.485,23.695 70.46,23.75 70.44,23.81 C70.44,23.89 70.445,23.91 70.455,23.87 C70.465,23.83 70.48,23.83 70.5,23.87 C70.56,23.93 70.555,23.97 70.485,23.99 C70.415,24.01 70.41,24.05 70.47,24.11 C70.51,24.05 70.55,24.03 70.59,24.05 C70.63,24.07 70.67,24.04 70.71,23.96 C70.73,24.04 70.725,24.09 70.695,24.11 C70.665,24.13 70.67,24.16 70.71,24.2 C70.75,24.18 70.775,24.185 70.785,24.215 C70.795,24.245 70.82,24.25 70.86,24.23 C71.02,24.47 71.235,24.665 71.505,24.815 C71.775,24.965 72.11,25.03 72.51,25.01 C72.55,25.01 72.57,25 72.57,24.98 C72.57,24.96 72.58,24.95 72.6,24.95 C72.72,24.99 72.82,25 72.9,24.98 C72.98,24.96 73.06,24.95 73.14,24.95 L73.14,24.95 L73.14,25.01 C73.16,25.01 73.17,24.98 73.17,24.92 C73.23,24.92 73.3,24.9 73.38,24.86 C73.46,24.82 73.53,24.85 73.59,24.95 C73.55,24.97 73.51,24.975 73.47,24.965 C73.43,24.955 73.41,24.97 73.41,25.01 C73.41,25.03 73.445,25.03 73.515,25.01 C73.543,25.002 73.5638,24.9988 73.5774,25.0004 L73.591,25.007 L73.59,25.01 L73.593,25.009 L73.5966,25.0196 L73.5966,25.0196 L73.59,25.04 C74.01,24.9 74.365,24.705 74.655,24.455 C74.945,24.205 75.23,23.93 75.51,23.63 C75.53,23.59 75.525,23.575 75.495,23.585 C75.465,23.595 75.46,23.59 75.48,23.57 C75.58,23.45 75.675,23.325 75.765,23.195 C75.855,23.065 75.96,22.94 76.08,22.82 C76.04,22.78 76.04,22.75 76.08,22.73 C76.12,22.71 76.12,22.67 76.08,22.61 C76.14,22.65 76.17,22.645 76.17,22.595 C76.17,22.545 76.19,22.52 76.23,22.52 C76.19,22.48 76.2,22.435 76.26,22.385 C76.32,22.335 76.37,22.3 76.41,22.28 C76.35,22.22 76.36,22.165 76.44,22.115 C76.52,22.065 76.52,22.03 76.44,22.01 C76.56,21.91 76.65,21.795 76.71,21.665 C76.77,21.535 76.82,21.42 76.86,21.32 C76.85,21.31 76.8415625,21.3028125 76.8346875,21.2984375 L76.823,21.295 L76.8366667,21.2633333 L76.8366667,21.2633333 L76.86,21.2 C76.88,21.14 76.94,21.1 77.04,21.08 C77.08,20.84 77.145,20.66 77.235,20.54 C77.325,20.42 77.39,20.21 77.43,19.91 C77.53,19.77 77.67,19.655 77.85,19.565 L77.85,19.565 L78.36,19.31 L80.73,18.38 C80.91,18.34 81.07,18.28 81.21,18.2 C81.35,18.12 81.51,18.07 81.69,18.05 C81.77,18.03 81.855,18 81.945,17.96 C82.035,17.92 82.13,17.93 82.23,17.99 C82.23,17.95 82.26,17.9 82.32,17.84 C82.54,17.82 82.725,17.785 82.875,17.735 C83.025,17.685 83.19,17.64 83.37,17.6 C83.41,17.46 83.49,17.4 83.61,17.42 C83.73,17.44 83.84,17.42 83.94,17.36 C83.92,17.34 83.9,17.33 83.88,17.33 C83.86,17.33 83.85,17.31 83.85,17.27 C83.91,17.25 83.98,17.245 84.06,17.255 C84.14,17.265 84.23,17.25 84.33,17.21 C84.35,17.15 84.345,17.105 84.315,17.075 C84.285,17.045 84.26,17 84.24,16.94 C84.24,16.96 84.23,16.97 84.21,16.97 C84.17,16.97 84.15,16.96 84.15,16.94 C84.13,16.94 84.12,16.93 84.12,16.91 C84.12,16.89 84.115,16.875 84.105,16.865 C84.095,16.855 84.1,16.83 84.12,16.79 C84.04,16.85 84,16.83 84,16.73 L84,16.73 L83.58,16.64 C83.54,16.66 83.475,16.675 83.385,16.685 C83.295,16.695 83.21,16.68 83.13,16.64 C82.97,16.66 82.82,16.68 82.68,16.7 C82.54,16.72 82.36,16.72 82.14,16.7 C82.14,16.8 82.12,16.85 82.08,16.85 L82.08,16.85 L82.08,16.76 C82.02,16.8 81.97,16.835 81.93,16.865 C81.89,16.895 81.84,16.9 81.78,16.88 C81.66,16.98 81.52,17.045 81.36,17.075 C81.2,17.105 81.05,17.14 80.91,17.18 C80.87,17.18 80.835,17.185 80.805,17.195 C80.775,17.205 80.75,17.19 80.73,17.15 C80.71,17.19 80.69,17.21 80.67,17.21 C80.55,17.21 80.345,17.255 80.055,17.345 C79.765,17.435 79.455,17.535 79.125,17.645 C78.795,17.755 78.48,17.86 78.18,17.96 C77.88,18.06 77.67,18.11 77.55,18.11 C77.55,17.99 77.535,17.84 77.505,17.66 C77.475,17.48 77.445,17.295 77.415,17.105 C77.385,16.915 77.35,16.74 77.31,16.58 C77.27,16.42 77.22,16.3 77.16,16.22 C77.06,16 76.945,15.84 76.815,15.74 C76.685,15.64 76.48,15.59 76.2,15.59 C76.04,15.45 75.8,15.405 75.48,15.455 C75.16,15.505 74.91,15.73 74.73,16.13 C74.63,16.27 74.495,16.425 74.325,16.595 C74.155,16.765 73.99,16.96 73.83,17.18 C73.79,17.22 73.73,17.265 73.65,17.315 C73.57,17.365 73.49,17.42 73.41,17.48 C73.37,17.52 73.345,17.57 73.335,17.63 C73.325,17.69 73.3,17.74 73.26,17.78 C73.16,17.88 73.07,17.94 72.99,17.96 C72.91,17.98 72.82,18.03 72.72,18.11 C72.66,18.17 72.61,18.26 72.57,18.38 C72.53,18.5 72.49,18.58 72.45,18.62 C72.35,18.72 72.24,18.81 72.12,18.89 C72.08,18.87 72.055,18.885 72.045,18.935 C72.035,18.985 72.02,19.03 72,19.07 C72,19.13 72.005,19.135 72.015,19.085 C72.025,19.035 72.07,19.01 72.15,19.01 C72.21,19.09 72.245,19.13 72.255,19.13 C72.265,19.13 72.28,19.12 72.3,19.1 C72.32,19.08 72.34,19.075 72.36,19.085 C72.38,19.095 72.42,19.14 72.48,19.22 C72.58,19.36 72.69,19.385 72.81,19.295 C72.93,19.205 73.06,19.07 73.2,18.89 C73.3,18.85 73.42,18.775 73.56,18.665 C73.7,18.555 73.84,18.43 73.98,18.29 L73.98,18.29 L74.52,17.81 L74.94,17.42 L75.3,17.09 C75.42,16.95 75.535,16.83 75.645,16.73 C75.755,16.63 75.85,16.54 75.93,16.46 C76.09,16.78 76.18,17.16 76.2,17.6 C76.22,18.04 76.19,18.43 76.11,18.77 C75.83,18.89 75.58,19.03 75.36,19.19 C75.14,19.35 74.9,19.48 74.64,19.58 C74.52,19.74 74.37,19.85 74.19,19.91 C74.01,19.97 73.85,20.07 73.71,20.21 C73.65,20.27 73.61,20.3 73.59,20.3 C73.55,20.36 73.49,20.405 73.41,20.435 C73.33,20.465 73.27,20.53 73.23,20.63 C73.19,20.63 73.165,20.64 73.155,20.66 C73.145,20.68 73.13,20.69 73.11,20.69 C73.07,20.75 73.05,20.805 73.05,20.855 C73.05,20.905 73.03,20.94 72.99,20.96 L72.99,20.96 L72.96,20.99 C72.86,21.03 72.78,21.1 72.72,21.2 C72.66,21.3 72.59,21.32 72.51,21.26 C72.45,21.5 72.28,21.69 72,21.83 C72.02,21.75 72.045,21.695 72.075,21.665 L72.075,21.665 L71.9733334,21.7766667 L71.9733334,21.7766667 Z" id="Habitus"></path>
            </g>
        </g>
    </g>
</svg>