<svg xmlns="http://www.w3.org/2000/svg" viewBox="0 0 144.79 515.75"><defs><style>.cls-1{fill:#fde5d3;}.cls-2{fill:#edcdb3;}.cls-3{fill:#f9dabc;}.cls-4{fill:#f3d3b4;}.cls-5{fill:#ebc3aa;}.cls-6{fill:#e4b198;}.cls-7{fill:#fad5ac;}.cls-8{fill:#f4ddca;}.cls-9{fill:#957259;}.cls-10{fill:#d79e83;}.cls-11{fill:#fbe0c4;}.cls-12{fill:#fce1c9;}.cls-13{fill:#e7d4c3;}.cls-14{fill:#efd7bd;}</style></defs><title>Asset 1</title><g id="Layer_2" data-name="Layer 2"><g id="Layer_1-2" data-name="Layer 1"><path class="cls-1" d="M118.93,294.05c-1.69-5.69-1.81-11.59-1.87-17.43,0-2.35,2.17-4,4.63-4.57a10.27,10.27,0,0,0,6.07,2.14l3.15,2.3c0,.45,0,.89-.08,1.35,0,1.09,0,2.18,0,3.27-1.09,2.13-1.85,4.67-4.26,5.64C123,288.19,121.1,291.24,118.93,294.05Z"/><path class="cls-2" d="M130.82,281.11c0-1.09,0-2.18,0-3.27,1.08.27,2.78.15,2.6,1.7-.67,6,.39,12.23-1.79,18a57.66,57.66,0,0,1-6.8,13.25c-.69,1-1.28,2.12-2.62,1.93s-1.36-1.73-1.76-2.75c-.86-2.25-.5-4.59-.43-6.91.94-.24,2.33-.18,2.73-.78,2.77-4.18,5.9-8.28,7.74-12.88C131.41,287.18,133.36,284,130.82,281.11Z"/><path class="cls-3" d="M130.82,281.11c2.54,2.84.59,6.07-.32,8.34-1.84,4.6-5,8.7-7.74,12.88-.4.6-1.79.54-2.73.78-.11-3.05-1.62-5.93-1.1-9.06,2.17-2.81,4-5.86,7.63-7.3C129,285.78,129.73,283.24,130.82,281.11Z"/><path class="cls-4" d="M126.25,276.05a10.33,10.33,0,0,1-6.06-2.14c0-.63,0-1.26.08-1.88l-.86-1.08a29.8,29.8,0,0,0,.9-9.95c2.42-.6,3.78,2,6,2s4.68-.36,5,2.94c-3,.11-5.87-1.94-9.2-.41,4.69,2.4,9.51,1.15,14.16,1.46-.28,2.93.32,6.17-2.93,8C130.4,271.88,128.36,272.17,126.25,276.05Z"/><path class="cls-5" d="M126.25,276.05c2.11-3.88,4.15-4.17,7.06-1-.82,1.68-1.69,3.29-3.9,3.33Z"/><path class="cls-6" d="M136.24,267c-4.65-.31-9.47.94-14.16-1.46,3.33-1.53,6.21.52,9.2.41l5,.06A2.54,2.54,0,0,1,136.24,267Z"/><path class="cls-2" d="M143.11,188c.31.56.86,1.1.9,1.68,1.19,17.72,1.48,35.38-2.57,52.88-1.59,6.9-2.32,14-3.36,21a4,4,0,0,1-1.91,3.26l-5-.06c-.29-3.3-2.75-2.91-5-2.94.84-4.35,1.72-8.7,2.51-13.06,2-11.25,6.46-22.11,5.47-33.85,2-1.06,2.64-2.94,3-5,6.05-1.22,3.4-6.73,4.83-10.18,1-2.46,0-4.81-3.15-5.54-1.58-.37-1.73-1.83-1.66-3.22C141.29,193.82,142,190.68,143.11,188Z"/><path class="cls-7" d="M134.18,216.88c1,11.74-3.43,22.6-5.47,33.85-.79,4.36-1.67,8.71-2.51,13.06-2.22,0-3.58-2.61-6-2q.1-23.94.22-47.87c2.45-.51,1.58-2.5,1.78-4a5.92,5.92,0,0,1,5,2.29A14,14,0,0,0,134.18,216.88Z"/><path class="cls-3" d="M124.3,188.89l3.93.1c2.94,1.4,4.15,6.76,9,4-.07,1.39.08,2.85,1.66,3.22,3.18.73,4.17,3.08,3.15,5.54-1.43,3.45,1.22,9-4.83,10.18-1.33-1.67-1.16-4.53-4-5-4.82-.83-6.71-3.71-5.4-8.5-3-.13-3,3.33-5.3,3.55A31.08,31.08,0,0,0,124.3,188.89Z"/><path class="cls-4" d="M122.44,201.92c2.32-.22,2.31-3.68,5.3-3.55-1.31,4.79.58,7.67,5.4,8.5,2.86.49,2.69,3.35,4,5-.34,2.05-1,3.93-3,5a14,14,0,0,1-7-4.69,5.92,5.92,0,0,0-5-2.29c-.32,0-.64,0-1,0,.07-1.33.15-2.65.23-4,1.19-.3,2.2-.66.78-2Z"/><path class="cls-8" d="M137.18,193c-4.8,2.8-6-2.56-9-4,3.64-1,7.68-.63,10.93-3.05l3.86-.05.09,2.07C142,190.68,141.29,193.82,137.18,193Z"/><path class="cls-3" d="M121.25,209.9c.31,0,.63,0,1,0-.2,1.51.67,3.5-1.78,4C120.33,212.5,119.84,211,121.25,209.9Z"/><path class="cls-3" d="M122.26,203.93c1.42,1.33.41,1.69-.78,2A1.63,1.63,0,0,1,122.26,203.93Z"/><path class="cls-1" d="M119.3,251.73l.86,1.08Z"/><path class="cls-3" d="M88.34,89.81c-7.5,1-15-2.35-22.51-.12-.92.28-2.17-.54-3.26-.85-.06-3.66-.13-7.32-.19-11h1l14.13-.18c3.84.55,6.63,3.93,10.66,3.94Z"/><path class="cls-9" d="M89.07,77.24,89,78.58c-.26,1-.52,2-.79,3-4,0-6.82-3.39-10.66-3.94l.15-1.5,6.66.38Z"/><path class="cls-10" d="M77.71,76.17l-.15,1.5-15.13.18.39-1.73C64.49,75.8,73.28,76,77.71,76.17Z"/><path class="cls-11" d="M34.22,508.66c1.86,2.65.8,1.1,1.86,2.65a21.13,21.13,0,0,0,2.22,1.62c3.52,1.93,7.93,3.33,11.84,2.63,0-1.64,0-3.19,1.25-4.63,3.59-4.18,4.83-9.7,7.79-14.26-.4-1.88-1.88-4.17-2.54-5.85a9.89,9.89,0,0,1-.77-2.84,30.74,30.74,0,0,1-.7-3.26c-.23-.9-.47-2.27-1.69-1.2-2,1.72-3.09.33-4.38-.8-3-.78-5.26,1.21-7.85,2-3,1.81-3.16,4.72-4.15,7.55l-.84,2.77c-1.57,4.06-.95,2.54-2.06,5.63C32.9,503.34,33.94,506,34.22,508.66Z"/><path class="cls-4" d="M56.89,513.86a1.64,1.64,0,0,0,.47-.4c2.89-3.76,5.21-7.91,3-12.9-1.1-4.15-.8-2.66-.81-2.89-.13-.41.1.28-.34-1-3,4.56-4.2,10.08-7.79,14.26-1.23,1.44-1.2,3-1.25,4.63,2.47.61,3.1-.42,4.93-1l1.38-.54C56.68,513.93,56.66,514,56.89,513.86Z"/><path class="cls-2" d="M53.61,43.07c0-1,0-2-.08-3l-.79-5c-.86-6.33.18-12.55,1.29-18.72a7.17,7.17,0,0,1,3.36-5.3c0,.37,0,.74,0,1.1.05,3.52-.7,7.34,5.3,6.25,3.05-.55,5.23,3.7,4.11,6.84-.55,1.55-2.36,2.54-2.06,4.4.89,5.53,1.65,11.1,2.88,16.56.74,3.29,2.87,3.66,5.57,1.54s2.07-5,2.14-7.79c.16-5.88,5.89-11.57,11.48-11.11,2.83.23,2.58-1.59,2.44-3.16-.51-5.35,1.93-7.35,7-6.56,2.1.35,4-.67,6-1l.09,5c-2.48.1-4,1.95-5,3.67a87.6,87.6,0,0,0-5.17,10.46C87.42,48,87.39,59.42,87.58,70.75c0,2.84-.92,4.25-2.29,6l-6.65-.37L65.36,76c.11-3.11,0-6.26.38-9.33.51-3.76-1.76-10.79-5.06-12.34-2.09-1-2-1.71-1.7-3.63C59.72,46.55,58.23,43.61,53.61,43.07Z"/><path class="cls-5" d="M85.29,76.77c1.37-1.77,2.33-3.18,2.29-6-.19-11.33-.16-22.79,4.58-33.49A87.6,87.6,0,0,1,97.33,26.8c1-1.72,2.55-3.57,5-3.67,0,1.31,0,2.62,0,3.93l0,2.14c-.06,2-.13,3.92-.19,5.88-2.44.66-2.6,2.67-2.86,4.69-.46,3.58-.12,7.59-1.67,10.64a43.38,43.38,0,0,0-4.47,14.38c-.57,4.26-.07,9-3.13,12.68Z"/><path class="cls-12" d="M55,13.51C56.36,9.09,65.79,2.19,69.26,1.37c8.85-2.1,18.25-2.64,25.5,4.73,3.47,2.06-.52,6.71-.46,10.06-3.71.64-7.35,1.23-10.12-2.42-.44-.57-1.87-.39-2.84-.55-2.69-1-5.15-2.65-8.38-1.46-1.08.4-3.65-.42-4-1.28C67.05,5.36,58.21,13.06,55,13.51Z"/><path class="cls-13" d="M64.36,76.07h-1c-3.34-.11-4.61.29-5.26-3.17C56.2,63,54.29,53.14,53.61,43.07c4.62.54,6.11,3.48,5.37,7.61-.35,1.92-.39,2.65,1.7,3.63,3.3,1.55,5.57,8.58,5.06,12.34-.41,3.07-.27,6.22-.38,9.33C64.15,76.07,65.36,76,64.36,76.07Z"/><path class="cls-13" d="M90,77.47c3.06-3.71,2.56-8.42,3.13-12.68A43.38,43.38,0,0,1,97.6,50.41c1.55-3,1.21-7.06,1.67-10.64.26-2,.42-4,2.86-4.69a187.09,187.09,0,0,1-5.22,28.66C96.05,67.09,95.77,70.58,95,74c-.58,2.68-1.43,3.91-5,3.5C90,77,90,77.91,90,77.47Z"/><path class="cls-11" d="M60.28,8.12c3.19-.44,6.77-2.76,8.7,2.33.33.86,2.9,1.68,4,1.28,3.23-1.19,5.69.47,8.38,1.46-2.14,5-6.5,3.7-10.4,3.69-5,0-9.06-3-13.53-4.69,0-.36,0-.73,0-1.1A2.93,2.93,0,0,1,60.28,8.12Z"/><path class="cls-8" d="M94.3,16.16C94.24,12.81,92.84,7.08,92,3.72c5.26,2.3,10.27,8.69,10.29,14.44-2,.33-3.86,1.35-6,1C96.31,17.7,96.29,16.27,94.3,16.16Z"/><path class="cls-4" d="M94.3,16.16c2,.11,2,1.54,2,3-5.11-.79-7.55,1.21-7,6.56.14,1.57.39,3.39-2.44,3.16C81.24,28.42,75.51,34.11,75.35,40c-.07,2.76.58,5.66-2.14,7.79s-4.83,1.75-5.57-1.54c-1.23-5.46-2-11-2.88-16.56-.3-1.86,1.51-2.85,2.06-4.4,1.12-3.14-1.06-7.39-4.11-6.84-6,1.09-5.25-2.73-5.3-6.25,4.47,1.66,8.48,4.67,13.53,4.69,3.9,0,8.26,1.27,10.4-3.69,1,.16,2.4,0,2.84.55C87,17.39,90.59,16.8,94.3,16.16Z"/><path class="cls-3" d="M51.82,169.71l1,.1c1.08,2.36,3.26,1.71,5.16,1.91,3.88.41,7.89-.83,11.65.95-1.06,1.5-2.71.77-4.09,1.11-2.47.61-5.9.73-5.46,4.33.39,3.16,3.33,3.64,6.17,3.62,6.1,0,12.2,0,18.3,0,.67,1.65,1.34,3.31,2,5-1.79-.39-3.37.68-5.26.54a206.29,206.29,0,0,0-28.78-.57C48.86,181.15,52.09,175.35,51.82,169.71Z"/><path class="cls-4" d="M52.56,186.65a206.29,206.29,0,0,1,28.78.57c1.89.14,3.47-.93,5.26-.54l3.94,1c-.33,1.33-.65,2.66-1,4-1.08,0-2.25-.17-3,1l-5-.94H53.7l-1-1C52.67,189.35,52.62,188,52.56,186.65Z"/><path class="cls-8" d="M90.54,187.7l-3.94-1c-.66-1.65-1.33-3.31-2-5,0-2.4.38-4.88-1-7.08,1.55-2.11,6.57,1.3,6.19-3.88l1.83,0C91,176.38,92.82,182.17,90.54,187.7Z"/><path class="cls-10" d="M89.75,170.76c.38,5.18-4.64,1.77-6.19,3.88-4.64-.55-9.11-2.28-13.88-2-3.76-1.78-7.77-.54-11.65-.95-1.9-.2-4.08.45-5.16-1.91l10.73-.29C72.33,169.67,81.07,169.47,89.75,170.76Z"/><path class="cls-12" d="M69.68,172.67c4.77-.31,9.24,1.42,13.88,2,1.42,2.2,1,4.68,1,7.08-6.1,0-12.2,0-18.3,0-2.84,0-5.78-.46-6.17-3.62-.44-3.6,3-3.72,5.46-4.33C67,173.44,68.62,174.17,69.68,172.67Z"/><path class="cls-1" d="M62.61,264.78H40.08a4,4,0,0,0-3.47,2l-.84,1.46,30.16,3,2-3.16C67.93,266.26,64.44,264.78,62.61,264.78Z"/><path class="cls-4" d="M141,143.67l2,31c-1.26,1.89-1.91,3.69.77,5a14,14,0,0,1-.82,7.92l-3.86.05a20.87,20.87,0,0,0-6.88.73c-1.29.45-3.32.91-3.83-1-1-4-2.2-8.15-2.43-12.28-.48-8.62-2.46-17-4.7-25.16-.89-3.22-1.78-6-1.1-9.17a6.72,6.72,0,0,1,4.06,1.35c2.53,1.5,5,.37,5.47-2.05.89-4.85,2.79-4.64,5.7-1.58,1.11-2.12.54-3.94.71-5.69,1.88-2,2.23,1.52,3.7,1l1.14,9c-.11.1-.33.24-.31.3A5,5,0,0,0,141,143.67Z"/><path class="cls-5" d="M120.11,140.67c-.68,3.21.21,6,1.1,9.17,2.24,8.16,4.22,16.54,4.7,25.16.23,4.13,1.39,8.24,2.43,12.28.51,1.95,2.54,1.49,3.83,1a20.87,20.87,0,0,1,6.88-.73c-3.26,2.42-7.29,2-10.94,3l-3.92-.09c-2.26-1.77-2-4.49-2.38-6.85-1.77-9.73-5-19.19-5.57-29.14,1.2-1.29,1.25-2.29-.69-2.79-.12-1.06-.24-2.12-.35-3.17a31.6,31.6,0,0,0,1.92-14.91C120.48,135,119.87,138,120.11,140.67Z"/><path class="cls-6" d="M134.61,115.55l-1.57.2a52.79,52.79,0,0,0-14.94,2.07,3.08,3.08,0,0,0-.91,0c-.73.08-1.71,0-1.58,1,0,.35.9.6,1.39.89l.09,1.94a2,2,0,0,0-.93,2c.06,1.39-.51,2.93.9,4l.06,6a31.6,31.6,0,0,1-1.92,14.91c-2.81-8.48-3.13-22-3-30.76"/><path class="cls-14" d="M133,115.75l1.57-.2a40,40,0,0,1,5.14,18.16c-1.47.51-1.82-3.06-3.7-1-2.67-.34-1.8-2.43-2-4C134.49,124.32,133.52,120.05,133,115.75Z"/><path class="cls-14" d="M143.73,179.62c-2.68-1.29-2-3.09-.77-5C144.54,176.09,143.87,177.89,143.73,179.62Z"/><path class="cls-6" d="M115.55,151.77c1.94.5,1.89,1.5.69,2.79Z"/><path class="cls-14" d="M141,143.67a5,5,0,0,1-.37-.68c0-.06.2-.2.31-.3A2.71,2.71,0,0,1,141,143.67Z"/><path class="cls-3" d="M134.05,128.7c.2,1.57-.67,3.66,2,4-.17,1.75.4,3.57-.71,5.69-2.91-3.06-4.81-3.27-5.7,1.58-.44,2.42-2.94,3.55-5.47,2.05a6.72,6.72,0,0,0-4.06-1.35c-.24-2.65.37-5.66-3-7,0-2,0-4-.05-6,1.44-1.73,1.78-3.22-.91-4a2,2,0,0,1,.93-2c3.4-.26,3.13,2.15,3,4.28a5.66,5.66,0,0,0,3.42,5.93c2.6,1.37,4.45.1,6.19-1.42C131,129.35,132.27,128.5,134.05,128.7Z"/><path class="cls-11" d="M134.05,128.7c-1.78-.2-3.06.65-4.37,1.8-1.74,1.52-3.59,2.79-6.19,1.42a5.66,5.66,0,0,1-3.42-5.93c.15-2.13.42-4.54-3-4.28l-.09-1.94.15-1,.95-.91A52.79,52.79,0,0,1,133,115.75C133.52,120.05,134.49,124.32,134.05,128.7Z"/><path class="cls-5" d="M116.16,123.69c2.69.79,2.35,2.28.91,4C115.65,126.62,116.22,125.08,116.16,123.69Z"/><path class="cls-5" d="M117.15,118.73l-.15,1c-.49-.29-1.35-.54-1.39-.89-.13-1.09.85-1,1.58-1A5.26,5.26,0,0,0,117.15,118.73Z"/><path class="cls-3" d="M117.15,118.73a5.26,5.26,0,0,1,0-.89,3.08,3.08,0,0,1,.91,0Z"/><path class="cls-1" d="M23.57,293.91c1.69-5.69,1.81-11.59,1.86-17.43,0-2.35-2.16-4-4.62-4.57a10.27,10.27,0,0,1-6.07,2.14l-3.16,2.3c0,.45.06.9.08,1.35,0,1.09,0,2.18,0,3.27,1.1,2.14,1.85,4.68,4.26,5.65C19.51,288.06,21.39,291.1,23.57,293.91Z"/><path class="cls-2" d="M11.67,281c0-1.09,0-2.18,0-3.27-1.07.28-2.77.15-2.6,1.7.68,6-.38,12.23,1.79,18.05a58.09,58.09,0,0,0,6.81,13.25c.69,1,1.28,2.12,2.62,1.93s1.36-1.73,1.75-2.75c.87-2.24.51-4.59.43-6.91-.93-.24-2.33-.17-2.72-.77C17,298,13.84,293.91,12,289.31,11.09,287,9.13,283.81,11.67,281Z"/><path class="cls-3" d="M11.67,281c-2.54,2.84-.58,6.07.33,8.34,1.84,4.6,5,8.7,7.74,12.89.39.6,1.79.53,2.72.77.12-3.05,1.63-5.93,1.11-9.06-2.18-2.81-4.06-5.85-7.64-7.29C13.52,285.65,12.77,283.11,11.67,281Z"/><path class="cls-4" d="M18.53,274.42a10.27,10.27,0,0,0,6.07-2.14c0-.63-.06-1.25-.08-1.88.28-.36.57-.71.86-1.07a29.83,29.83,0,0,1-.9-10c-2.43-.59-3.79,2-6,2s-4.68-.36-5,2.94c3,.11,5.87-1.93,9.2-.41-4.69,2.41-9.51,1.15-14.16,1.46.28,2.93-.32,6.18,2.93,8C14.39,270.25,16.43,270.55,18.53,274.42Z"/><path class="cls-5" d="M18.53,274.42c-2.1-3.87-4.14-4.17-7-1,.81,1.68,1.68,3.29,3.9,3.34Z"/><path class="cls-6" d="M8.55,265.37c4.65-.31,9.47.95,14.16-1.46-3.33-1.52-6.21.52-9.2.41l-5,.06A2.53,2.53,0,0,0,8.55,265.37Z"/><path class="cls-2" d="M1.67,186.33c-.31.56-.85,1.1-.89,1.68C-.41,205.74-.7,223.39,3.35,240.9c1.59,6.89,2.32,14,3.36,21a3.94,3.94,0,0,0,1.91,3.26l5-.06c.29-3.3,2.75-2.91,5-2.94-.84-4.35-1.72-8.69-2.51-13.05-2-11.25-6.46-22.12-5.47-33.86-2-1.06-2.64-2.93-3-5-6-1.22-3.4-6.73-4.83-10.18-1-2.45,0-4.81,3.15-5.54,1.58-.36,1.72-1.82,1.66-3.22C3.5,192.2,2.76,189.06,1.67,186.33Z"/><path class="cls-7" d="M10.61,215.25c-1,11.74,3.43,22.61,5.47,33.86.79,4.36,1.67,8.7,2.51,13.05,2.21,0,3.57-2.6,6-2q-.12-23.92-.22-47.86c-2.45-.51-1.58-2.5-1.78-4a6,6,0,0,0-5,2.29A13.88,13.88,0,0,1,10.61,215.25Z"/><path class="cls-3" d="M20.49,187.27l-3.93.1c-2.95,1.39-4.15,6.75-8.95,3.95.06,1.4-.08,2.86-1.66,3.22-3.18.73-4.17,3.09-3.15,5.54,1.43,3.45-1.22,9,4.83,10.18,1.33-1.67,1.16-4.52,4-5,4.81-.82,6.71-3.71,5.39-8.5,3-.12,3,3.34,5.31,3.55A31,31,0,0,1,20.49,187.27Z"/><path class="cls-4" d="M22.35,200.29C20,200.08,20,196.62,17,196.74c1.32,4.79-.58,7.68-5.39,8.5-2.86.5-2.69,3.35-4,5,.34,2.06,1,3.93,3,5a13.88,13.88,0,0,0,7-4.69,6,6,0,0,1,5-2.29h.95c-.08-1.33-.15-2.65-.23-4-1.19-.29-2.2-.66-.78-2Z"/><path class="cls-8" d="M7.61,191.32c4.8,2.8,6-2.56,9-3.95-3.64-1-7.68-.64-10.93-3.06l-3.86-.05c0,.69-.06,1.38-.1,2.07C2.76,189.06,3.5,192.2,7.61,191.32Z"/><path class="cls-3" d="M23.54,208.27h-.95c.2,1.52-.67,3.51,1.78,4C24.46,210.87,25,209.38,23.54,208.27Z"/><path class="cls-3" d="M22.53,202.3c-1.42,1.33-.41,1.7.78,2A1.63,1.63,0,0,0,22.53,202.3Z"/><path class="cls-1" d="M25.49,250.11l-.87,1.07Z"/><path class="cls-4" d="M5,141.92l-2,31c1.26,1.89,1.91,3.69-.77,5a14,14,0,0,0,.82,7.92l3.86.05a20.9,20.9,0,0,1,6.88.73c1.29.45,3.32.91,3.82-1a64.5,64.5,0,0,0,2.44-12.28c.48-8.62,2.45-17,4.7-25.16.88-3.22,1.78-6,1.1-9.16a6.64,6.64,0,0,0-4.06,1.34c-2.53,1.5-5,.37-5.47-2.05-.89-4.85-2.79-4.64-5.71-1.58-1.11-2.12-.53-3.94-.7-5.69-1.89-2-2.24,1.52-3.7,1l-1.14,9c.11.1.32.24.3.3A4,4,0,0,1,5,141.92Z"/><path class="cls-5" d="M25.86,138.93c.68,3.2-.22,5.94-1.1,9.16-2.25,8.16-4.22,16.54-4.7,25.16a64.5,64.5,0,0,1-2.44,12.28c-.5,1.95-2.53,1.49-3.82,1a20.9,20.9,0,0,0-6.88-.73c3.25,2.42,7.29,2,10.93,3l3.93-.09C24,187,23.73,184.31,24.16,182c1.76-9.73,5-19.19,5.56-29.14-1.19-1.29-1.24-2.29.7-2.79.12-1.06.23-2.12.35-3.17a31.46,31.46,0,0,1-1.92-14.91C25.49,133.26,26.1,136.27,25.86,138.93Z"/><path class="cls-6" d="M11.35,113.8l1.57.2a52.86,52.86,0,0,1,15,2.07,3.09,3.09,0,0,1,.91,0c.72.08,1.71,0,1.58,1,0,.35-.9.6-1.39.89L28.88,120a2,2,0,0,1,.93,2c-.06,1.39.51,2.93-.91,4l0,6a31.46,31.46,0,0,0,1.92,14.91c2.81-8.47,3.13-22,3-30.76"/><path class="cls-14" d="M12.92,114l-1.57-.2A40.08,40.08,0,0,0,6.22,132c1.46.51,1.81-3.06,3.7-1,2.66-.33,1.8-2.43,2-4C11.47,122.57,12.45,118.31,12.92,114Z"/><path class="cls-14" d="M2.24,177.87c2.68-1.29,2-3.09.77-5C1.43,174.34,2.1,176.15,2.24,177.87Z"/><path class="cls-6" d="M30.42,150c-1.94.5-1.89,1.5-.7,2.79Z"/><path class="cls-14" d="M5,141.92a4,4,0,0,0,.36-.68c0-.06-.19-.2-.3-.3A2.71,2.71,0,0,0,5,141.92Z"/><path class="cls-3" d="M11.91,127c-.19,1.57.67,3.67-2,4,.17,1.75-.41,3.57.7,5.69,2.92-3.06,4.82-3.27,5.71,1.58.44,2.42,2.94,3.55,5.47,2.05a6.64,6.64,0,0,1,4.06-1.34c.24-2.66-.37-5.67,3-7q0-3,0-6c-1.44-1.73-1.78-3.21.91-4a2,2,0,0,0-.93-2c-3.4-.26-3.13,2.15-3,4.28a5.64,5.64,0,0,1-3.41,5.93c-2.61,1.37-4.46.1-6.19-1.42C15,127.6,13.7,126.75,11.91,127Z"/><path class="cls-11" d="M11.91,127c1.79-.2,3.07.65,4.38,1.8,1.73,1.52,3.58,2.79,6.19,1.42a5.64,5.64,0,0,0,3.41-5.93c-.14-2.13-.41-4.54,3-4.28L29,118c0-.35-.1-.7-.16-1l-.94-.9A52.51,52.51,0,0,0,12.92,114C12.45,118.31,11.47,122.57,11.91,127Z"/><path class="cls-5" d="M29.81,121.94c-2.69.8-2.35,2.28-.91,4C30.32,124.87,29.75,123.33,29.81,121.94Z"/><path class="cls-5" d="M28.81,117c.06.34.11.69.16,1,.49-.29,1.35-.54,1.39-.89.13-1.09-.86-1-1.58-1A4.39,4.39,0,0,1,28.81,117Z"/><path class="cls-3" d="M28.81,117a4.39,4.39,0,0,0,0-.89,3.09,3.09,0,0,0-.91,0Z"/><path class="cls-8" d="M46.24,371.94c.14,1.15-.07,2.42,1.15,3.16,0,2.22-.63,4-3.27,3.9s-3.21,1.62-2.6,3.55c.9,2.88,0,5.54-.63,8.14-.85,3.42-.58,6.43,1.47,9.28,1.09,13.31-3.59,26.45-1.08,39.82.26,1.34-.47,2.89-.85,4.31-1.79,6.69,0,13.2.93,19.75.15,7-1.7,13.92-1,21-.48,1.3,2.32,1.66-.95,2.35-4.29-15.3-1-29.27-2.05-44.73-.92-13.66-2.68-27.32-2.52-41,.08-7.59-1.48-16,3.93-23,1.9-2.43-.68-6,1.63-8.48a8.12,8.12,0,0,0,5,1C45.65,371.34,46,371.64,46.24,371.94Z"/><path class="cls-1" d="M58.37,370c1.35,1.08.87,2.6,1,4-1-.14-2.16-2.67-2.49-1-1,5.22-8.24,4.87-8.72,10.61-.19,2.18-2.76,4.17-2.69,6.73.1,3.64-1.29,6.69-3.06,9.66-2-2.85-2.32-5.86-1.47-9.28.65-2.6,1.53-5.26.63-8.14-.61-1.93,0-3.6,2.6-3.55s3.28-1.68,3.27-3.9C49.74,370.56,53.54,369.18,58.37,370Z"/><path class="cls-11" d="M42.36,400c1.77-3,3.16-6,3.06-9.66-.07-2.56,2.5-4.55,2.69-6.73.48-5.74,7.67-5.39,8.72-10.61.33-1.62,1.51.91,2.49,1a13.52,13.52,0,0,0,.83,9.38A16.78,16.78,0,0,1,61.26,391c-.58.27-1.39.36-1.72.81-3.47,4.86-6,10.16-6.16,16.21-.18,9.29,0,18.58,0,27.87-1.31,3.37-1.63,6.9-2.07,10.45-.9,7.29-.51,14.77-3,21.85-.34,1-.58,2.11-1.7,2.11-1.39,0-1.27-1.31-1.23-2.24.13-2.86-1-4.44-4-4.22-1-6.55-2.72-13.06-.93-19.75.38-1.42,1.11-3,.85-4.31C38.77,426.42,43.45,413.28,42.36,400Z"/><path class="cls-3" d="M41.36,463.85c3-.22,4.15,1.36,4,4.22,0,.93-.16,2.25,1.23,2.24,1.12,0,1.36-1.13,1.7-2.11,2.45-7.08,2.06-14.56,3-21.85.44-3.55.76-7.08,2.07-10.45A3.56,3.56,0,0,1,55,441c-1.45,2.88-1,5.59-.83,8.56.31,7.21.22,14.27-3.75,21-2.63,4.47-1,10.15-1.1,15.3a7.86,7.86,0,0,0-.83.11c-1.39.27-6.81.69-8.2.95-.77-1.79-.24-1,0-2.12C39.66,477.77,41.51,470.86,41.36,463.85Z"/><path class="cls-7" d="M49.35,485.87c.09-5.15-1.53-10.83,1.1-15.3,4-6.75,4.06-13.81,3.75-21-.13-3-.62-5.68.83-8.56a3.56,3.56,0,0,0-1.69-5.09c0-9.29-.14-18.58,0-27.87.12-6,2.69-11.35,6.16-16.21.33-.45,1.14-.54,1.72-.81.7,15.62-1.63,31.06-2.7,46.57-.92,13.4-1.71,26.84-1.26,40.29a28.07,28.07,0,0,1-.88,7.86l-1,0-4,.07-1.1,0A5.65,5.65,0,0,1,49.35,485.87Z"/><path class="cls-3" d="M45.06,360.57c-1.6.09-.24,0-6-.29a2.17,2.17,0,0,1-1.94-1.49,16.08,16.08,0,0,1-.77-2.36,4.69,4.69,0,0,1-.24-.72c-.93-3.44,1.34-5.59,1.32-8.67,0-4.14,0-8.28,0-12.42,0-1.56.56-3.49-1.84-4,0-17.17-4.39-34.11-2.9-51.3.42-4.9-1.77-10.46,3.38-14.23l1-.34h.43c1,1.52,2.6.83,4,1l0,5a34.51,34.51,0,0,0,4.68,16.89c.74,1.31,2.21,1,2.81-.23,1.6-3.25,5.75-4.37,6.5-8.45.41-2.23,2.44-3.46,5-3.21.32,5.37-1,10.89,1.76,16.05A4.75,4.75,0,0,1,62,295.2c-3.35,9.59-1,20-4.31,29.64a5.19,5.19,0,0,0,2.72,5.86c-1.56,9.94,1.06,20.44-4,29.91"/><path class="cls-8" d="M35.57,330.65c2.4.48,1.82,2.41,1.84,4,.06,4.14,0,8.28,0,12.42,0,3.08-.55,6.24,1.77,8.94.59.68.2,1.93-.74,2.62-2.67-1.77-2.93-4.59-3-7.35C35.43,344.39,35.54,337.52,35.57,330.65Z"/><path class="cls-12" d="M26.47,283.69l.4.21-.38-.23Z"/><path class="cls-7" d="M66.19,277.61c1.47,18.07-4.37,35.34-5.77,53.09a5.19,5.19,0,0,1-2.72-5.86c3.34-9.64,1-20,4.31-29.64a4.75,4.75,0,0,0,.12-3.37c-2.76-5.16-1.44-10.68-1.76-16.05,3.77-1.46-.38-5.15,2-7C65.18,271,64,275.09,66.19,277.61Z"/><path class="cls-11" d="M62.34,268.78c-2.35,1.85,1.8,5.54-2,7-2.52-.25-4.55,1-5,3.21-.75,4.08-4.9,5.2-6.5,8.45-.6,1.22-2.07,1.54-2.81.23a34.51,34.51,0,0,1-4.68-16.89c2,.8,2.22,3.18,3.83,4.35,1.15.84,1.8,2.42,3.55,2.33,4.56-.24,10.2-5.92,10.56-10.64l3,0C62.35,267.45,62.34,268.11,62.34,268.78Z"/><path class="cls-12" d="M59.36,266.82c-.36,4.72-6,10.4-10.56,10.64-1.75.09-2.4-1.49-3.55-2.33-1.61-1.17-1.83-3.55-3.83-4.35,0-1.66,0-3.31,0-5l6.86,0,3.07-.12c2.49,1.86,5.33.69,8,.92Z"/><path class="cls-1" d="M54.3,332.52l-.88-.91Z"/><path class="cls-6" d="M61.68,266.78c0-.4,0-1.47,0-1.87,4.74.83,4.14,3.32,4.4,5.47a67,67,0,0,1,.11,7.23c-2.24-2.52-1-6.57-3.85-8.83C62.34,268.11,61.67,267.45,61.68,266.78Z"/><path class="cls-10" d="M101.48,250.08c-.93,1.13-1.86,2.26-3.59,1.67.25-1.41,2.28-1.69,2.14-3.36l1.06-.13A1.58,1.58,0,0,1,101.48,250.08Z"/><path class="cls-9" d="M100,248.39c.14,1.67-1.89,2-2.14,3.36l-4.51,1.64c-1.41.3-1.64.56-2,1.88L91,259.81l-1.91-1.62-.23-1.92c.61-2,0-2.87-2.24-3.14-3.05-.38-5.57,1-8.26,1.87l.3-1.56.57-1.34c1.73-4.23,1.13-2.76,3.16-4.89l10.79-.11C100,247.12,99.15,247.12,100,248.39Z"/><path class="cls-5" d="M102.19,269.1l-11-.13.06-1.82c3.48-2.14,7.3-.52,10.93-1C102.16,267.14,102.17,268.12,102.19,269.1Z"/><path class="cls-6" d="M91.21,267.15,91.15,269c-4.31,0-8.52-1.48-12.87-.79l-.68,0h0c.16-.68-.12-1.38,0-2.06-.09-2.16,0-.46-.09-2.16-.07-3-.15-10,1.48-12.89,2.69-.89,5.21-2.26,8.26-1.88,2.19.27,2.21,5.08,1.6,7.1.66,2.28.23,1.92-.7,2.89l-1,0c-3.59-.37-6.83.06-6.82,4.67,0,3.62,3,2,4.84,2.28Z"/><path class="cls-7" d="M85.23,266.07c-1.83-.32-4.83,1.34-4.84-2.28,0-4.61,2.93-7.62,6.52-7.24-.26.57-.11,4.14-.49,4.24C82.48,261.81,83.37,263.81,85.23,266.07Z"/><path class="cls-4" d="M102.91,266.1l-.77.06c-3.63.47-7.45-1.15-10.93,1l-6-1.08c-1.86-2.26-2.75-4.26,1.19-5.28.38-.1.23-3.67.49-4.24h.57c.32,0,.51,0,.84,0,.42,1.4-1.07,6.43.8,6.75,2.11.37,2.16-1.77,1.91-3.46l.33-4.54a1.64,1.64,0,0,1,2-1.88l4.51-1.64c1.73.59,2.66-.54,3.59-1.67C104.77,255.17,103.46,260.67,102.91,266.1Z"/><path class="cls-6" d="M89.12,258.19,91,259.81c.25,1.69.2,3.83-1.91,3.46-1.87-.32-1-2.7-.93-4.11Z"/><path class="cls-6" d="M78.69,253.44l.57-1.34Z"/><path class="cls-10" d="M40.91,248.08c.93,1.13,1.86,2.26,3.59,1.67-.25-1.41-2.28-1.69-2.14-3.36l-1.06-.13A1.58,1.58,0,0,0,40.91,248.08Z"/><path class="cls-9" d="M42.36,246.39c-.14,1.67,1.89,2,2.14,3.36L49,251.39c1.41.3,1.63.56,2,1.88l.33,4.54,1.91-1.62.23-1.92c-.6-2,0-2.87,2.24-3.14,3-.38,5.57,1,8.26,1.87l-.3-1.56-.57-1.34c-1.73-4.23-1.13-2.76-3.16-4.89l-10.79-.11C42.35,245.12,43.24,245.12,42.36,246.39Z"/><path class="cls-5" d="M40.21,267.1l11-.13-.06-1.82c-3.48-2.14-7.3-.52-10.93-1C40.23,265.14,40.22,266.12,40.21,267.1Z"/><path class="cls-6" d="M51.18,265.15l.06,1.82c4.31,0,8.53-1.48,12.87-.79l.68,0h0c-.16-.68.12-1.38,0-2.06.09-2.16,0-.46.09-2.16.07-3,.16-10-1.48-12.89-2.69-.89-5.21-2.26-8.26-1.88-2.19.27-2.2,5.08-1.6,7.1-.66,2.28-.23,1.92.7,2.89l1,0c3.6-.37,6.83.06,6.82,4.67,0,3.62-3,2-4.84,2.28Z"/><path class="cls-7" d="M57.16,264.07c1.83-.32,4.83,1.34,4.84-2.28,0-4.61-2.92-7.62-6.52-7.24.26.57.11,4.14.5,4.24C59.91,259.81,59,261.81,57.16,264.07Z"/><path class="cls-4" d="M39.48,264.1l.77.06c3.63.47,7.45-1.15,10.93,1l6-1.08c1.86-2.26,2.75-4.26-1.18-5.28-.39-.1-.24-3.67-.5-4.24h-.56c-.33,0-.52,0-.85,0-.42,1.4,1.07,6.43-.8,6.75-2.11.37-2.16-1.77-1.91-3.46L51,253.27a1.64,1.64,0,0,0-2-1.88l-4.51-1.64c-1.73.59-2.66-.54-3.59-1.67C37.62,253.17,38.93,258.67,39.48,264.1Z"/><path class="cls-6" d="M53.27,256.19l-1.91,1.62c-.25,1.69-.2,3.83,1.91,3.46,1.87-.32,1-2.7.93-4.11Z"/><path class="cls-6" d="M63.7,251.44l-.57-1.34Z"/><ellipse class="cls-1" cx="122.73" cy="107.76" rx="14.79" ry="13.02"/><path class="cls-1" d="M112,99.09c-1.57-1-.3-2,0-3,4.65-.27,9.13-2.15,14-1,5.23,1.22,9.55,3.26,11,9-3,.41-5.63,2.41-8.81,2-1.22-4-3.71-5-7.37-3-2.25.27-.55,1.81-.86,2.7L118.52,107l-2.55,1a2.07,2.07,0,0,1-1-2,29.09,29.09,0,0,1,.11-5.29C115.9,96.69,113.73,98.39,112,99.09Z"/><path class="cls-5" d="M115,106.1a2.07,2.07,0,0,0,1,2c-.15,2.59.91,3.76,3.64,4.07,5.81.65,11.33.87,15.13-4.7,1.47-2.15,2,0,2.91.56a8.93,8.93,0,0,1-1.08,4.09c-.46-1.06.78-3.16-1.89-.43-5.36,5.45-12,2.94-18.19,3.2-1.47.06-1.37-1.54-1.54-2.67-.26-1.82-.59-3.63-2.77-4.2,0-.63,0-1.27-.05-1.91l.9-1Z"/><path class="cls-3" d="M134.74,107.44c-3.8,5.57-9.32,5.35-15.13,4.7-2.73-.31-3.79-1.48-3.64-4.07l2.55-1c2.34,3.88,5.23,4,8.54,1.24.35-.74.69-1.49,1-2.23,3.18.44,5.82-1.56,8.81-2"/><path class="cls-10" d="M112.13,106.08c0,.64,0,1.28.05,1.91-.81,2.72,1.36,6.26-2.27,8.2-3.18-3.4-.43-6.74.08-10.1Z"/><path class="cls-3" d="M115,106.1l-1.93-1c-.19-1.4.4-3-1.06-4.06l0-1.91c1.73-.7,3.9-2.4,3.07,1.72A29.09,29.09,0,0,0,115,106.1Z"/><path class="cls-6" d="M112,101c1.46,1.07.87,2.66,1.06,4.06l-.9,1H110C109.93,104.11,109.73,102.08,112,101Z"/><path class="cls-10" d="M127.06,108.28c-3.31,2.79-6.2,2.64-8.54-1.24.44-.45.89-.89,1.34-1.33l1.21-.74A5.27,5.27,0,0,1,127.06,108.28Z"/><path class="cls-9" d="M127.06,108.28a5.27,5.27,0,0,0-6-3.31c-.11-.65-.23-1.31-.35-2,3.66-1.92,6.15-1,7.37,3C127.75,106.79,127.41,107.54,127.06,108.28Z"/><path class="cls-6" d="M111.45,117.32l.46-.52-.52.46-1.84-1.08a7,7,0,0,0-.06-.91c3.63-1.93,1.46-5.48,2.27-8.19,2.18.56,2.51,2.37,2.77,4.19.17,1.13.07,2.73,1.54,2.67,6.18-.26,12.83,2.25,18.19-3.2,2.68-2.73,1.93.53,2.38,1.6-1.09,1.54-1.66,2.55-2.78,3.89-.52.06-.8,1.2-1.32,1.27a46.21,46.21,0,0,0-14,1.73,3.08,3.08,0,0,0-.91,0"/><ellipse class="cls-1" cx="23.35" cy="105.11" rx="14.79" ry="13.02"/><path class="cls-1" d="M33.79,95.89C36.48,99.11,34.92,97,36,98.36c-4.65-.27-11-7-15.86-5.92-5.23,1.21-9.55,3.25-11,9,3,.41,5.63,2.41,8.81,2,1.22-4,3.7-5,7.36-3,2.25.28.56,1.81.87,2.71l1.34,1.32,2.54,1a2.08,2.08,0,0,0,1-2,29,29,0,0,0-.1-5.28C30.18,94.05,32.06,95.19,33.79,95.89Z"/><path class="cls-5" d="M31.11,103.45a2.08,2.08,0,0,1-1,2c.16,2.59-.9,3.76-3.64,4.07-5.8.65-13.48-2.49-17.28-8.06-.47,2.7-.62,2-.62,3.67a12.29,12.29,0,0,0,1.49,5.68c.46-1.06-1.33-4.5,1.35-1.78,5.36,5.46,12,2.94,18.19,3.21,1.47.06,2.52-2.19,2.68-3.32.27-1.82-.55-3,1.63-3.55,0-.64,0-1.28.05-1.91l-.9-1Z"/><path class="cls-3" d="M11.34,104.8c3.79,5.57,9.32,5.35,15.12,4.7,2.74-.31,3.8-1.48,3.64-4.07l-2.54-1c-2.35,3.89-5.24,4-8.55,1.24l-1-2.22c-3.18.44-5.82-1.56-8.81-2"/><path class="cls-10" d="M34,103.44c0,.63,0,1.27-.05,1.91.81,2.72-2,5.16,1.65,7.09,2.3-3.69,2.59-5.48,2.47-9Z"/><path class="cls-3" d="M31.11,103.45l1.94-1c.18-1.39-.4-3,1.05-4l0-1.91c-1.72-.71-3.89-2.4-3.06,1.72A29,29,0,0,1,31.11,103.45Z"/><path class="cls-6" d="M34.1,98.36c-1.45,1.06-.87,2.66-1.05,4l.9,1h2.13C36.15,101.47,36.34,99.44,34.1,98.36Z"/><path class="cls-10" d="M19,105.63c3.31,2.79,6.2,2.65,8.55-1.24-.35-.62-.43-.94-.79-1.47-.34-.8.09,0-.47-.71C23.51,101.87,20.18,103,19,105.63Z"/><path class="cls-9" d="M19,105.63c1.17-2.59,4.5-3.76,7.29-3.42a1.9,1.9,0,0,0-.95-1.85c-3.66-1.91-6.14-1-7.36,3Z"/><path class="cls-6" d="M33.27,114.77c.28-.23.45-.41,1-.88l.59-.61.5-.57a1.07,1.07,0,0,0,.28-.61c-3.63-1.93-.62-4.16-1.7-8.66-2.18.56-1.94,3.07-2.41,5.19-.66,3,.34,2.15-1.53,2.67-6,1.65-12.84,2.25-18.19-3.21-2.68-2.72-2.18,1.92-1.71,2.83a17.09,17.09,0,0,0,2,2.7c1.39,1.24.87.81,1.39,1.24,5.1-.16,3.57-.74,8.47.53.31,0,1.27.17,8.11,1.3"/><path class="cls-8" d="M41.69,220.89H102a0,0,0,0,1,0,0v7.24a2.27,2.27,0,0,1-2.27,2.27H44.16a2.47,2.47,0,0,1-2.47-2.47v-7A0,0,0,0,1,41.69,220.89Z"/><path class="cls-8" d="M47.78,203.46l-2.11,1c1.26-5,1.95-10.17,6.1-13.85-.17,2.48.76,3.21,3,1.92,0,1.82-.13,3.66,0,5.47.39,4.37,1,8.67,6,10.49,0,1.89-1.73,2.28-2.76,3.25"/><path class="cls-8" d="M60.74,208.46c1-.5,19.91,4,19.95,3,2.53-2.39,0,0,3.33-2.66.54-5.18,1.35-9.68-.69-14.49-.75-.67-.47-2.49-.66-3.78,1.67.32,6.34-.36,8-.05,2.35,2.31,3,3.81,4,8-.65,2.68-2.07,5.57.91,7.67,1.16.82,2.29,1.26,1.93,2.93a1.35,1.35,0,0,1-1.36,1.19c-1.7-.07-2.57-1.29-3.28-2.66-.47-.91.2-2.83-1.52-2.57-1.91.29-1.52,2.2-1.68,3.64-.23,2.17.65,4.39-1.72,6.3-5.11,4.09-5.16,9.75-.43,14.62,1,1.07,2.23,1.8,2.18,3.59-.15,5.46,1.3,10.75,2,16.12-3.59,1-7.18,1.81-10.8.11l-6.59-.1a6.69,6.69,0,0,0-4.37.28c-2.58-1.94-5.3-1.43-8.06-.49-3.7.23-7.41.4-11-.61-2-2.64-2.1-5.68-2-8.83.08-4.77-.16-9.55,1-14.24-1-4-1.57-6.32,2-9v-2c-2.53-1.64-2.58-1.36-3.35-4.27a47.3,47.3,0,0,1-1.5-7.51"/><path class="cls-14" d="M91.57,250.4c-.67-5.37-2-11.75-1.89-17.21,0-1.79-1.14-2.52-2.18-3.59-4.73-4.87-4.68-10.53.43-14.62,2.37-1.91,1.49-4.13,1.72-6.3.16-1.44-.23-3.35,1.68-3.64,1.72-.26,1,1.66,1.52,2.57.71,1.37,1.58,2.59,3.28,2.66a1.35,1.35,0,0,0,1.36-1.19c.36-1.67-.77-2.11-1.93-2.93-3-2.1-1.56-5-.91-7.67h0l2.08,0c4.11,6.11,4.76,13.34,5.53,20.25.95,8.58.24,17.11-.37,26-.14,2,.1,1-.15,4.49a4.11,4.11,0,0,1-2,1.26Z"/><path class="cls-14" d="M45.67,204.43l2.11-1c.41,4-.47,8.47,4,11v2c-3.18,2.45-2.77,5.68-2,9-1.2,4.69-1,9.47-1,14.24-.05,3.15,0,6.19,2,8.83-1.41,1.39-2.79-.08-4.19-.08-2.16,0-3-1.12-2.84,1-.6,0-1.3-.58-1.9-.57-3.63-13.83-2.57-24.95,1-38.61A14.7,14.7,0,0,1,45.67,204.43Z"/><path class="cls-8" d="M94.65,198.48c-.46-1.9-2.77-6.15-4-8,3.26.81,5.8,5.57,6,8Z"/><path class="cls-11" d="M53.8,189.51l1,1v2c-2.23,1.29-3.16.56-3-1.92A2.38,2.38,0,0,0,53.8,189.51Z"/><path class="cls-1" d="M54.76,192.5v-2H82.67c.19,1.29-.09,3.11.66,3.78,2.93,4.92,4.94,7.58-.11,15.88-3.84,1.36,0,0-2.53,1.27h0A45.3,45.3,0,0,1,70.6,211c-8.78-.8-2.78,0-9.86-2.53-4.92-1.82-5.56-6.12-6-10.49C54.63,196.16,54.76,194.32,54.76,192.5Z"/><path class="cls-1" d="M109.68,93.38l-2.44-1.63c-2.85-1.83-8.12-4-11.51-4.19L48.82,86.15a7.84,7.84,0,0,0-4.9,1.41h0a26,26,0,0,0-8.76,10.53h0l8.33,59.35A22.06,22.06,0,0,0,46,165l.72,1.3a6.14,6.14,0,0,0,5.17,3.16l37.77,1.23a5.77,5.77,0,0,0,4.86-2.36l4.54-6.18L113.3,104.6C114.3,100.56,113.17,95.63,109.68,93.38Z"/><path class="cls-13" d="M107.35,137.09c-2.81,8.27-4.52,16.9-7.91,25-.42,1-.87,1.75-2,2-1.21-4.93-7.23-6.25-11.82-5.25-4.17.92-7.25,1.83-10.36,5s-7.1,5.67-11.94,5.83l-10.73.28-1-.1c-3.55.37-4.4-2.18-5.2-4.8A250.67,250.67,0,0,1,38.61,130c3.09-.11,5.38,1.88,7.31,3.67,1.76,1.62,3.28,2.57,5.58,2.3,3.47-.44,6.06,1.76,9,3,.91,1.57,3.56,1,5.54.73,8.88-1.13,7.74.41-5.18-.29,4.19.33,17.84.6,22.07-.27,11.89-2.45,17.77-10.17,19.45-22.12,3-4.93,4.27-10.6,6.43-15.89.73-1.79.83-4.07,3.56-4.11a6,6,0,0,1,2,5"/><path class="cls-1" d="M112.32,97c-2.73,0-2.83,2.32-3.56,4.11-2.16,5.29-3.38,11-6.43,15.89-3.8-.46-2.79-3.41-3-5.76-.12-1.24.69-3-.8-3.59-1.71-.65-2.42,1.3-3.45,2.26-1.84,1.74-1.26,4.56-2.52,6.83-1.61-1.08-.87-3.16-2.74-3.7-2.64-.75-4.17,2.26-6.5,1.71-3.26-.77,0-4.48-2.73-6.11-5.15-3.08-7.16-2.94-11.23,1.84a15.63,15.63,0,0,0-3.16,5.91c-1.3,4.19-5,7.08-8.63,9.19-2.19,1.26-4.89-.14-5.93-2.92a21.36,21.36,0,0,0-1.16-3.21c-4.45-8-11.16-14.6-14-23.52,3.47-8,11-8.53,18.13-9.8a35,35,0,0,1,6-.06c1.09.31,2.33,1.13,3.25.86,7.55-2.24,15,1.14,22.52.12,7.46-.15,14.72.55,21.28,4.65C109.72,93,111.87,94.22,112.32,97Zm-39.18,4.12,1.09,1.43c.32-.24.83-.43.93-.75.18-.61,0-1.31-.81-1.27C74,100.54,73.57,100.89,73.14,101.11Z"/><path class="cls-12" d="M35.52,98a2.33,2.33,0,0,1,.94-2.1c2.84,8.92,9.55,15.55,14,23.52a21.36,21.36,0,0,1,1.16,3.21c1,2.78,3.74,4.18,5.93,2.92,3.66-2.11,7.33-5,8.63-9.19a15.63,15.63,0,0,1,3.16-5.91c4.07-4.78,6.08-4.92,11.23-1.84,2.73,1.63-.53,5.34,2.73,6.11,2.33.55,3.86-2.46,6.5-1.71,1.87.54,1.13,2.62,2.74,3.7,1.26-2.27.68-5.09,2.52-6.83,1-1,1.74-2.91,3.45-2.26,1.49.56.68,2.35.8,3.59.23,2.35-.78,5.3,3,5.76-1.68,12-7.56,19.67-19.45,22.12a44.09,44.09,0,0,1-12.46.85c-1.3-3.79-2.06-9-7-2.33-.55.76-2.31.12-3,1.31-2.89-1.26-5.48-3.46-9-3,.17-2.07-.82-3.24-2.59-4.34-2.92-1.8-5-4-5.67-8-1.12-6.73-3.48-13.25-5.36-19.85-.35-1.24-.53-2.71-2.33-2.77"/><path class="cls-5" d="M63.37,169.66c4.84-.16,8.87-2.73,11.94-5.83s6.19-4.06,10.36-5c4.59-1,10.61.32,11.82,5.25-1.59,2.67-2,6.39-6.14,6.78l-1.83,0C80.85,169.6,72.1,169.81,63.37,169.66Z"/><path class="cls-14" d="M35.56,101c1.79.06,2,1.53,2.32,2.77,1.88,6.6,4.24,13.12,5.36,19.85.67,4,2.75,6.17,5.67,8,1.77,1.1,2.76,2.27,2.59,4.34-2.3.27-3.82-.68-5.58-2.3-1.93-1.79-4.22-3.78-7.31-3.67,0-.67,0-1.34-.08-2,.08-2,0,.47.08-2-.09-2-.26-4.17-.36-6.16"/><path class="cls-4" d="M60.45,138.94c.71-1.19,2.47-.55,3-1.31,4.89-6.7,5.65-1.46,7,2.33-1.33,3.36-2.8,6.49-5.85,1.25C63.56,139.49,61.36,140.51,60.45,138.94Z"/><path class="cls-8" d="M45.27,375.3c0-3,.1-10.95.15-13.93a17,17,0,0,0-3.14-.15,2.94,2.94,0,0,0-2.75,3s0,.09,0,.11a91.25,91.25,0,0,0,.2,9.6"/><path class="cls-1" d="M56.52,376A2.4,2.4,0,0,0,59,373.78c.22-3.18.43-7.68-.06-10a3.09,3.09,0,0,0-3-2.44c-3.52,0-5.12.06-8-.05-1.05,3-.55,11.27-.64,14.29,1.79,0,.4,0,4.25.52a13.11,13.11,0,0,0,3.13,0A15.14,15.14,0,0,1,56.52,376Z"/><path class="cls-9" d="M47.32,375.3c.09-3-.49-11.08.56-14-.86-.91-1.64,0-2.46.11-.05,3-.1,11-.15,13.93A1.43,1.43,0,0,0,47.32,375.3Z"/><path class="cls-11" d="M107.25,508.67c-1.86,2.64-.8,1.09-1.86,2.64a19.34,19.34,0,0,1-2.21,1.62c-3.52,1.93-7.94,3.33-11.85,2.63,0-1.64,0-3.19-1.25-4.63-3.59-4.18-4.82-9.7-7.78-14.25.4-1.88,1.88-4.18,2.53-5.85A9.69,9.69,0,0,0,85.6,488a31.55,31.55,0,0,0,.7-3.27c.24-.9.48-2.26,1.7-1.2,2,1.73,3.08.33,4.38-.8,3-.78,5.26,1.22,7.84,2,3,1.8,3.17,4.71,4.15,7.54l.85,2.77c1.57,4.07.94,2.54,2,5.63C108.57,503.35,107.53,506,107.25,508.67Z"/><path class="cls-4" d="M84.59,513.86a1.31,1.31,0,0,1-.47-.4c-2.9-3.76-5.21-7.91-3-12.9,1.11-4.15.81-2.65.82-2.89a8.91,8.91,0,0,1,.34-1c3,4.55,4.19,10.07,7.78,14.25,1.24,1.44,1.21,3,1.25,4.63-2.47.61-3.09-.42-4.93-1L85,514.05C84.79,513.93,84.82,514,84.59,513.86Z"/><path class="cls-8" d="M95.89,371.06c-.14,1.15.07,2.42-1.16,3.16,0,2.22.63,4,3.28,3.9s3.2,1.62,2.6,3.55c-.9,2.88,0,5.54.63,8.14.84,3.42.57,6.43-1.47,9.28-1.09,13.31,3.59,26.45,1.07,39.82-.25,1.34.47,2.89.85,4.31,1.79,6.69,0,13.2-.92,19.75-.15,7,1.7,13.92,1,21,.49,1.3-2.32,1.66,1,2.35,4.28-15.3,1-29.27,2-44.73.93-13.66,2.69-27.32,2.53-41-.09-7.59,1.48-16-3.94-22.95-1.89-2.43.68-6-1.62-8.48a8.15,8.15,0,0,1-5,1Z"/><path class="cls-1" d="M83.75,369.16c-1.35,1.08-.87,2.6-1,4,1-.14,2.16-2.67,2.49-1.05,1,5.22,8.24,4.87,8.73,10.61.19,2.18,2.76,4.17,2.68,6.73-.1,3.64,1.29,6.69,3.07,9.66,2-2.85,2.31-5.86,1.47-9.28-.65-2.6-1.53-5.26-.63-8.14.6-1.93,0-3.6-2.6-3.55s-3.28-1.68-3.28-3.9C92.39,369.68,88.58,368.3,83.75,369.16Z"/><path class="cls-11" d="M99.77,399.09c-1.78-3-3.17-6-3.07-9.66.08-2.56-2.49-4.55-2.68-6.73-.49-5.74-7.68-5.39-8.73-10.61-.33-1.62-1.5.91-2.49,1.05a13.52,13.52,0,0,1-.82,9.38,16.79,16.79,0,0,0-1.12,7.61c.59.27,1.4.36,1.72.81,3.47,4.86,6,10.16,6.16,16.21.19,9.29.05,18.58.05,27.87,1.3,3.37,1.62,6.9,2.06,10.45.91,7.29.52,14.77,3,21.85.33,1,.57,2.11,1.7,2.11,1.39,0,1.26-1.31,1.22-2.24-.13-2.86,1-4.44,4-4.22,1-6.55,2.71-13.06.92-19.75-.38-1.42-1.1-3-.85-4.31C103.36,425.54,98.68,412.4,99.77,399.09Z"/><path class="cls-3" d="M100.77,463c-3-.22-4.16,1.36-4,4.22,0,.93.17,2.25-1.22,2.24-1.13,0-1.37-1.13-1.7-2.11-2.45-7.08-2.06-14.56-3-21.85-.44-3.55-.76-7.08-2.06-10.45a3.57,3.57,0,0,0-1.7,5.09c1.45,2.88,1,5.59.84,8.56-.32,7.21-.22,14.27,3.74,21,2.63,4.47,1,10.15,1.1,15.3a8,8,0,0,1,.84.11c1.38.27,6.81.69,8.2.95.76-1.79.24-1-.06-2.12C102.47,476.89,100.62,470,100.77,463Z"/><path class="cls-7" d="M92.77,485c-.09-5.15,1.53-10.83-1.1-15.3-4-6.75-4.06-13.81-3.74-21,.13-3,.61-5.68-.84-8.56a3.57,3.57,0,0,1,1.7-5.09c0-9.29.14-18.58-.05-27.87-.12-6-2.69-11.35-6.16-16.21-.32-.45-1.13-.54-1.72-.81-.69,15.62,1.63,31.06,2.7,46.57.92,13.4,1.71,26.84,1.27,40.29a28.44,28.44,0,0,0,.87,7.86l1,0,4,.07,1.11,0A5.53,5.53,0,0,0,92.77,485Z"/><path class="cls-3" d="M94.9,360.44c1.6.09.24,0,6-.29a2.17,2.17,0,0,0,1.94-1.49,16.08,16.08,0,0,0,.77-2.36,4.69,4.69,0,0,0,.24-.72c.93-3.44-1.34-5.59-1.32-8.67,0-4.14,0-8.28,0-12.42,0-1.56-.56-3.49,1.84-4,0-17.17,4.39-34.11,2.9-51.3-.42-4.9,1.77-10.46-3.38-14.23l-1-.34h-.43c-1,1.53-2.6.83-4,1l0,5a34.51,34.51,0,0,1-4.68,16.89c-.74,1.31-2.2,1-2.81-.23-1.6-3.25-5.75-4.37-6.5-8.45-.41-2.23-2.44-3.46-5-3.21-.32,5.37,1,10.9-1.76,16.05a4.8,4.8,0,0,0,.12,3.37c3.35,9.59,1,20,4.31,29.64a5.18,5.18,0,0,1-2.72,5.86c1.56,9.94-1.06,20.44,4,29.91"/><path class="cls-8" d="M104.39,330.52c-2.4.48-1.82,2.41-1.84,4-.06,4.14,0,8.28,0,12.42,0,3.08.55,6.24-1.77,8.94-.59.68-.2,1.93.74,2.62,2.67-1.77,2.93-4.59,3-7.35C104.53,344.26,104.42,337.39,104.39,330.52Z"/><path class="cls-12" d="M113.49,283.56l-.4.21.38-.22Z"/><path class="cls-7" d="M73.77,277.48c-1.47,18.07,4.37,35.34,5.77,53.09a5.18,5.18,0,0,0,2.72-5.86c-3.34-9.64-1-20-4.31-29.64a4.8,4.8,0,0,1-.12-3.37c2.76-5.15,1.44-10.68,1.76-16.05-3.77-1.46.38-5.15-2-7C74.78,270.91,76,275,73.77,277.48Z"/><path class="cls-11" d="M77.62,268.65c2.35,1.85-1.8,5.54,2,7,2.52-.25,4.55,1,5,3.21.75,4.08,4.9,5.2,6.5,8.45.61,1.22,2.07,1.54,2.81.23a34.51,34.51,0,0,0,4.68-16.89c-2,.8-2.22,3.18-3.83,4.35-1.15.84-1.79,2.42-3.55,2.33C86.6,277.1,81,271.41,80.6,266.7l-3,0C77.61,267.32,77.62,268,77.62,268.65Z"/><path class="cls-12" d="M80.6,266.7c.36,4.71,6,10.4,10.56,10.63,1.76.09,2.4-1.49,3.55-2.33,1.61-1.17,1.83-3.55,3.83-4.35,0-1.65,0-3.31,0-5l-6.86,0-3.07-.12c-2.49,1.86-5.33.69-8,.92Z"/><path class="cls-1" d="M85.66,332.39l.88-.91Z"/><path class="cls-6" d="M78.28,266.66c0-.4,0-1.48,0-1.88-4.74.83-4.14,3.32-4.4,5.47a67.12,67.12,0,0,0-.11,7.24c2.24-2.53,1-6.58,3.85-8.84C77.62,268,78.29,267.32,78.28,266.66Z"/><path class="cls-8" d="M96.69,373.62c0-3-.1-10.95-.15-13.93a17,17,0,0,1,3.14-.15,2.94,2.94,0,0,1,2.75,3s0,.08,0,.11a91.25,91.25,0,0,1-.2,9.6"/><path class="cls-1" d="M85.44,374.35A2.4,2.4,0,0,1,83,372.1c-.22-3.18-.43-7.68.06-10a3.08,3.08,0,0,1,3-2.44c3.52,0,5.12.06,8-.05,1,3,.55,11.26.64,14.28-1.79,0-.4,0-4.25.53a13.11,13.11,0,0,1-3.13,0A13.45,13.45,0,0,0,85.44,374.35Z"/><path class="cls-9" d="M94.64,373.62c-.09-3,.49-11.08-.56-14,.86-.91,1.64,0,2.46.11,0,3,.1,11,.15,13.93A1.43,1.43,0,0,1,94.64,373.62Z"/></g></g></svg>