<?xml version="1.0" encoding="UTF-8"?>
<svg width="22px" height="22px" viewBox="0 0 22 22" version="1.1" xmlns="http://www.w3.org/2000/svg" xmlns:xlink="http://www.w3.org/1999/xlink">
    <!-- Generator: Sketch 63.1 (92452) - https://sketch.com -->
    <title>noun_Pencil_629289</title>
    <desc>Created with Sketch.</desc>
    <g id="Page-1" stroke="none" stroke-width="1" fill="none" fill-rule="evenodd">
        <g id="Tabless-Copy-10" transform="translate(-385.000000, -452.000000)" fill="#AAB1BC" fill-rule="nonzero">
            <g id="Group-4" transform="translate(385.000000, 452.000000)">
                <g id="noun_Pencil_629289">
                    <g id="Group">
                        <rect id="Rectangle" transform="translate(16.899166, 5.180903) rotate(-135.000000) translate(-16.899166, -5.180903) " x="13.8631952" y="4.4564099" width="6.07194177" height="1.4489861"></rect>
                        <rect id="Rectangle" transform="translate(10.298429, 11.795874) rotate(-134.991897) translate(-10.298429, -11.795874) " x="7.26245849" y="4.24044668" width="6.07194183" height="15.1108552"></rect>
                        <path d="M21.252,5.175 C21.942,4.485 21.942,3.381 21.252,2.691 L19.458,0.897 C18.768,0.207 17.595,0.207 16.974,0.897 L16.077,1.794 L20.424,6.141 L21.252,5.175 Z" id="Path"></path>
                        <path d="M0.345,21.045 C0.276,21.252 0.345,21.459 0.483,21.597 C0.552,21.666 0.69,21.735 0.828,21.735 C0.897,21.735 0.966,21.735 1.035,21.735 L6.21,19.872 L2.208,15.87 L0.345,21.045 Z" id="Path"></path>
                    </g>
                </g>
            </g>
        </g>
    </g>
</svg>