<svg xmlns="http://www.w3.org/2000/svg" viewBox="0 0 55.39 144.58"><defs><style>.cls-1{fill:#08153a;}</style></defs><title>Asset 57</title><g id="Layer_2" data-name="Layer 2"><g id="Layer_1-2" data-name="Layer 1"><path class="cls-1" d="M11.33,144.58C-.39,128.86-4,113.47,5.26,96.33c3.14-5.79,4.56-12.48,7.06-18.64,5.4-13.33,3.76-26-3.12-38.27C6.55,34.67,3.85,29.93,1.53,25c-.72-1.53-.28-3.62-.37-5.45,1.77.53,4.16.52,5.2,1.7C15.5,31.57,26.47,40.78,28,55.91c.25,2.46,1.58,4.8,2.9,8.6,2.35-9-1.75-23.41-7.73-30.32C16.49,26.44,9.75,18.71,3.1,11.06c4-6.05,7.09-4.44,10.68-.22,11.87,14,26.28,26.32,27.87,46.46.09,1.13,1.43,2.15,3.25,2.76C43.11,49,42.84,37.65,34.71,28.62c-7.66-8.51-15.07-17.24-22.6-25.88C12.4,1.83,12.68.91,13,0c2.68.6,6.21.32,7.89,2,15.7,15.19,31.36,30.63,33.91,54,.67,6.13,1.13,12.72-.39,18.56-2.79,10.79-6.89,21.28-10.88,31.73-3.25,8.52-5.63,16.74,2.39,25.44Z"/></g></g></svg>