<svg xmlns="http://www.w3.org/2000/svg" viewBox="0 0 146.71 219.36"><defs><style>.cls-1{fill:#08153a;}</style></defs><title>Asset 59</title><g id="Layer_2" data-name="Layer 2"><g id="Layer_1-2" data-name="Layer 1"><path class="cls-1" d="M113.34,48c0-12.81,0-25.62,0-38.42,0-6.9,2.23-9.27,9.19-9.49,1.66-.06,3.33-.08,5,0,5.71.32,8.37,3,8.68,8.81,1.39,25.9,2.41,51.84,4.3,77.71.7,9.53,4.57,18.87,5,28.38.87,20.27,3.55,40.58-3.33,60.75-2.76,8.1-1.24,17.7-1.43,26.61-.09,4.32.3,8.65.62,13,.23,3.09-1.09,4.08-4.07,4.06q-23.71-.12-47.44,0c-3.06,0-4.16-1.33-4.17-4.17,0-4.16-.46-8.35-.09-12.47.5-5.71-1.8-10-5.71-13.7s-7.64-7.93-11.88-11.4C52.54,165,42.56,147.85,30.12,132.75c-6.7-8.14-14.27-14.84-24-18.89C2.35,112.31-.18,110,0,105.75S2.87,99,6.85,97.52c12.3-4.54,23-1.93,32.5,8.31,5.53,6,10.71,12.29,16.3,18.22,7.86,8.35,16.23,9.5,25.88,3.24,8.92-5.79,17.8-11.72,26.11-18.33,7.76-6.17,8.26-15.5,8.33-24.61.09-12.13,0-24.26,0-36.39Z"/><path class="cls-1" d="M107.44,76.18c.23,1.17.44,1.95.55,2.73,1.76,13.47.84,14.46-12.43,13.45-7.34-.56-11.23,2.8-12.49,11-.61,3.94-.94,7.92-1.51,11.86-.78,5.48-9.1,10.19-14.14,7.85a4.22,4.22,0,0,1-1.79-3.39c.79-10.44,1.63-20.89,2.82-31.3C69.18,81.91,76.88,75.08,84,75,91.76,74.89,99.54,75.74,107.44,76.18Z"/><path class="cls-1" d="M89.81,112.92c-1.4-13.19.36-14.61,15.9-12C100.52,104.83,95.33,108.74,89.81,112.92Z"/></g></g></svg>