<svg xmlns="http://www.w3.org/2000/svg" viewBox="0 0 172.49 222.74"><defs><style>.cls-1{fill:none;stroke:#000;stroke-linecap:round;stroke-linejoin:round;stroke-width:2px;}</style></defs><title>Asset 14</title><g id="Layer_2" data-name="Layer 2"><g id="Layer_1-2" data-name="Layer 1"><path class="cls-1" d="M81.21,80.71c1.15-7.2.5-14.52,1.39-21.75,2-15.78-.87-31.57,0-47.36a17.39,17.39,0,0,0-.69-5.25c-1-3.81-4.24-5.78-8.39-5.27-3.9.48-6.31,3.28-6.31,7.37q0,9.65,0,19.29c0,7.32-1.45,14.52-1.93,21.76-.44,6.72-.83,13.56.43,20.35A19.21,19.21,0,0,1,65,79.29c-.72,2.18-3.12,2.51-4.68,3.64-3.43-1.19-2.64-4.46-2.81-6.44-1.05-12-3.62-23.73-6.4-35.44-1.49-6.3-2-12.84-2.91-19.27-.42-2.82-1-5.71-3.21-7.66-1.56-1.39-3.2-2.46-6-1.67s-4,2.3-4.88,4.76c-1.86,5.27,0,10.38.86,15.42,1.08,6.3,2.38,12.53,2.77,19a101.23,101.23,0,0,0,3,20,68.73,68.73,0,0,1,2.61,20.32c-.1,2.38-1,4-3.27,4.93-4.65-2.44-5.65-7.27-7.25-11.62a61.56,61.56,0,0,0-7.11-14c-5-7.29-8.08-15.63-12.56-23.2-3-5.13-8-6.17-11.17-1.33C.65,48.8.85,51.55,1.54,54.05c1.55,5.62,4.51,10.63,7.1,15.75a308.87,308.87,0,0,1,15,34.42c1.85,5.1,1.36,10.53,2,15.79,1.82,14.1,3.56,28.16,8.07,41.76,2.76,8.28,4.88,16.76,8.08,24.91,1.84,4.7.84,9.79.74,14.71-.09,4.68-.64,9.36-.59,14,0,2.2-1.13,4.15-.78,6.32"/><path class="cls-1" d="M95.25,221c-.35-11.69-.62-23.39-1.1-35.07-.14-3.59,1-6.13,4.25-7.74,10.85-5.31,20-13.16,29.82-20,2.43-1.69,3.69-4.19,5.12-6.89,6.22-11.75,13-23.19,24.68-30.7,3.36-2.17,6.9-4,10.2-6.27,4.05-2.75,4.26-4.39,1.05-8S161.75,102,157,102.77c-8.3,1.3-15.24,4.81-20.35,11.62"/><path class="cls-1" d="M135.26,115.09c-4.09,3.16-7,7.46-10.89,10.87-8.36,7.43-10.38,5.58-14.08-2.07-5-10.37-5.79-21.2-4.11-32.3,1.71-11.33,5.84-22,9-33,1.28-4.41,1.47-9.06,1.9-13.65.56-5.88,1.78-11.7,2.72-17.55a35.78,35.78,0,0,0,0-11.22,9.46,9.46,0,0,0-2.44-5.27c-3-3.11-7.45-2.78-10.19.69-3.1,3.93-4,8.68-4.08,13.34,0,9.82-2.6,19.16-5.24,28.36-2.24,7.78-4.91,15.51-7.6,23.18a7.9,7.9,0,0,1-8.33,5.64"/><path class="cls-1" d="M84,113c-9.09,3.7-17.7,8.13-24.21,15.78"/><path class="cls-1" d="M56,118.6c-3.14,1.57-6.26,3.16-9.83,3.51"/><path class="cls-1" d="M113.5,130.18c-2.54.81-5.15.12-7.72.35"/><path class="cls-1" d="M106.83,84.22h-5.26"/><path class="cls-1" d="M116.66,131.23l-1,3.51"/><path class="cls-1" d="M50,36.51H47.52"/><path class="cls-1" d="M136,117.2c.39-.82-1-1.64.33-2.74,1.32.29,1.74,1.69,2.48,2.74"/><path class="cls-1" d="M98.41,53.7l2.46.35"/><path class="cls-1" d="M79.81,80.71a2.2,2.2,0,0,1,2.15.77c-.4,1.2-1.44.41-2.15.63"/></g></g></svg>