<svg xmlns="http://www.w3.org/2000/svg" viewBox="0 0 148.93 243.63"><defs><style>.cls-1,.cls-2{fill:#e5f0f6;}.cls-2{stroke:#2c324a;stroke-width:2px;}.cls-2,.cls-4{stroke-miterlimit:10;}.cls-3{fill:#d3e3ff;}.cls-4{fill:none;stroke:#d3e3ff;}</style></defs><title>Asset 16</title><g id="Layer_2" data-name="Layer 2"><g id="Layer_5" data-name="Layer 5"><path class="cls-1" d="M44.49,135.54l5.27,42.66c.86,7,1.75,13.9,2.57,20.86a116.5,116.5,0,0,1,1.05,18.19,30.9,30.9,0,0,1-.39,5c.26-1.25,0,.1-.05.3l-.21,1.22c-.15.81-.32,1.61-.52,2.41A37.18,37.18,0,0,1,50.68,231c-.1.26-.49,1.11,0,.13-.2.44-.4.88-.61,1.31-.4.81-.83,1.59-1.29,2.37a5.06,5.06,0,0,0,1.79,6.84,5.11,5.11,0,0,0,6.85-1.79C64,228.59,64,215.1,62.71,202.42c-1.48-14.13-3.44-28.22-5.18-42.32l-3-24.56c-.32-2.58-2.07-5.13-5-5-2.43.11-5.34,2.22-5,5Z"/><path class="cls-1" d="M50.86,243.62a313.22,313.22,0,0,1,42.22-1.19,5,5,0,0,0,5-5,5.1,5.1,0,0,0-5-5,313.22,313.22,0,0,0-42.22,1.19c-2.59.24-5.13,2.12-5,5,.12,2.49,2.22,5.26,5,5Z"/><path class="cls-1" d="M97.32,238.23c2.57-7.36-2.85-16.36-10.42-17.9-4.59-.94-8.54.78-12.58,2.79-.45.23-.89.45-1.35.65-.3.15-1.2.49-.39.19-.94.35-1.88.71-2.85,1s-1.8.52-2.71.72c-.42.1-.85.18-1.27.26l-.85.15c-.11,0-1,.14-.41.07s-.1,0-.19,0l-.86.08c-.57.05-1.15.09-1.73.11q-1.62.06-3.24,0c-.5,0-1-.06-1.5-.11l-.86-.09c.46,0,.57.09,0,0-1.13-.19-2.26-.42-3.38-.7l3.67,4.82-.73-38.61c-.12-6.41-.35-12.84-.08-19.25.06-1.48.14-2.95.27-4.43.07-.81.15-1.63.25-2.45,0-.31.07-.63.11-.94-.13,1,.09-.6.12-.8.46-3.08,1-6.14,1.57-9.21,1.3-7.5,2.18-14.86,1-22.43-.4-2.6-3.78-4.26-6.15-3.5-2.82.92-3.92,3.38-3.49,6.15.23,1.5,0-.59,0,.32,0,.39.08.78.11,1.17.06.71.1,1.41.12,2.12,0,1.57,0,3.14-.11,4.71,0,.7-.11,1.41-.18,2.12,0,.39-.09.78-.13,1.17s-.16,1.27,0,.32c-.21,1.58-.47,3.15-.74,4.72a173.83,173.83,0,0,0-2.67,19c-.37,6.41-.16,12.83,0,19.24L46,208.47l.41,21.78a5.1,5.1,0,0,0,3.67,4.82,42,42,0,0,0,29.07-3.22l1.52-.76c.19-.09,1.84-.81.74-.38.52-.2,1-.39,1.59-.54a7.51,7.51,0,0,1,.82-.19q-.91.09-.18,0c.22,0,.43,0,.64,0,.56,0,.43,0-.38-.09.14.14.74.16.92.21l.6.2c-.7-.31-.81-.35-.32-.12.08.05,1.11.63,1.08.66-.58-.47-.66-.54-.25-.2l.48.44c.15.15.3.3.44.46.35.41.29.32-.16-.26.1,0,.64,1,.7,1.07s.21.38.3.57c.23.49.18.39-.13-.31,0,0,.33,1.13.36,1.22.1.55.09.41,0-.39,0,.21,0,.42,0,.63s0,.42,0,.63c0,.55,0,.42.07-.39a7.12,7.12,0,0,0-.34,1.24,5,5,0,0,0,3.49,6.15,5.13,5.13,0,0,0,6.15-3.49Z"/><path class="cls-1" d="M48.79,133.19a158.82,158.82,0,0,0,3,38.36,152.61,152.61,0,0,0,4.75,18c1.93,5.84,4.66,11.47,5.88,17.51.29,1.42,0-1,.06.45,0,.45.06.89.06,1.33s0,.74,0,1.11c0,.22,0,.44,0,.66.09-.59.08-.6,0,0s-.34,1.4-.58,2.09c-.06.16-.6,1.43-.13.35-.17.39-.34.77-.52,1.16-1.71,3.79-3.1,7.37-2.15,11.59a5,5,0,0,0,6.15,3.49,5.11,5.11,0,0,0,3.49-6.15c-.27-1.2-.16.95,0-.24,0-.13,0-.74,0-.78l-.06.55c0-.19.08-.39.13-.58s.18-.64.29-1,.19-.51.28-.77c.47-1.29-.44.92.15-.34.3-.63.59-1.28.87-1.92A21.52,21.52,0,0,0,72.49,208c-.4-6.51-3.3-12.37-5.43-18.42A152.57,152.57,0,0,1,62,171.63q-1-4.55-1.72-9.15c-.12-.77-.23-1.53-.34-2.3,0-.18-.13-1,0-.06L59.77,159c-.2-1.62-.37-3.24-.52-4.86a153.81,153.81,0,0,1-.46-20.92,5,5,0,0,0-5-5,5.1,5.1,0,0,0-5,5Z"/><path class="cls-1" d="M65.16,230.53c-1.13.16.34,0,.46-.05q.67-.07,1.35-.12c.82-.06,1.65-.1,2.48-.11a44.8,44.8,0,0,1,5.18.24c.24,0,1.55.23.46,0l1.11.18c.82.15,1.63.31,2.43.51a42.24,42.24,0,0,1,5.17,1.58l-1.19-9.14-.69.34c-.58.28-.1.17.14,0a4.75,4.75,0,0,1-1.45.53,21.62,21.62,0,0,1-3,.78l-.75.14c-.86.15.19,0,.19,0s-1.41.12-1.54.13a25.49,25.49,0,0,1-3.27,0c-.25,0-.51-.06-.76-.07-.73,0,.9.15.18,0-.5-.08-1-.17-1.51-.27a24.44,24.44,0,0,1-3-.83l-.73-.26c-.11,0-.89-.39-.29-.11s-.17-.09-.28-.14l-.68-.34a23.34,23.34,0,0,1-2.79-1.7l2.29,5.65c-.48,1.2,0,0,.1-.18s.27-.57.41-.85c.32-.61.67-1.21,1-1.79.2-.32.42-.62.63-.94.5-.79-.38.42,0,0s.88-1,1.36-1.54.9-.85,1.36-1.27c.91-.83-.86.56.16-.13.25-.18.5-.36.76-.52.58-.37,1.17-.69,1.78-1,.83-.43-.58.18,0,0,.34-.11.67-.25,1-.35a11.89,11.89,0,0,0,1.85-.43c-.4.21-.95.11-.12,0l.86,0c.35,0,.69,0,1,0s1.09-.13.37,0,.07,0,.36.07.67.14,1,.23.55.16.82.26c.78.26.32-.08-.08-.08.48,0,1.39.71,1.79,1,.15.1.89.71.32.2s.14.15.26.26.48.48.71.73c.69.71-.56-.82.06.06l3-7.34c-1.1.29-2.21.57-3.34.8-.57.12-1.14.21-1.71.3-.72.12.91-.07.19,0l-1,.08c-.57,0-1.13.05-1.69,0l-.74,0c-.63,0,1,.22.07,0-.52-.11-1-.28-1.55-.4s.77.41.21.1c-.26-.15-.53-.27-.79-.42l-.6-.4c.1-.15.65.76.17.06.72,1,.49,1.08.14,2.58-.42,1.77-.67,1.94,0,1.22.33-.33-.55.38.18-.14l.71-.5c.54-.37,1.09-.73,1.65-1.07,1.13-.68,2.3-1.23,3.48-1.82.71-.35-1.08.4.21-.09l.82-.31c.68-.24,1.37-.46,2.07-.67a5,5,0,0,0-1.33-9.82c-1-.07.77.22-.17,0L81.57,203c-.9-.25.63.36-.2-.06-.4-.21-.79-.41-1.16-.65-.16-.1-1.09-.75-.59-.38s-.39-.35-.53-.47c-.33-.31-.65-.63-1-1-.13-.14-.24-.3-.38-.44-.49-.48.46.68.07.11a29.89,29.89,0,0,1-2.66-4.75c.35.78,0-.15-.16-.44s-.32-.83-.47-1.24c-.32-.9-.63-1.81-.93-2.72L65.7,167.35l-4.55-13.58L52,157.62l20.87,46.61c1,2.27,4.17,2.92,6.24,2.05s3.84-3.59,2.9-5.9L69.09,168.73c-1-2.33-2.83-3.93-5.49-3.58a5,5,0,0,0-4.33,4.91,49,49,0,0,1-.24,5.29c-.1,1.11.16-.78-.05.42-.06.36-.12.73-.19,1.09-.15.87-.34,1.73-.56,2.58a39.43,39.43,0,0,1-1.54,4.84c0,.1-.63,1.41-.17.43-.19.4-.36.81-.55,1.2-.39.8-.8,1.58-1.23,2.35a5,5,0,0,0,8.64,5.05,46.33,46.33,0,0,0,5.89-23.25l-9.82,1.33L72.38,203l9.13-3.85L60.65,152.58c-1-2.27-4.17-2.93-6.25-2.05a5,5,0,0,0-2.89,5.9l8.54,25.51c1.43,4.24,2.83,8.49,4.27,12.73a38.64,38.64,0,0,0,6,12,17.6,17.6,0,0,0,12.51,6.64l-1.33-9.82a37.47,37.47,0,0,0-10.26,4.72c-1.81,1.21-3.8,2.51-4.91,4.45A7,7,0,0,0,67.79,221c5.39,5.47,13.79,4.25,20.46,2.47,2.9-.77,4.88-4.69,3-7.35a18.66,18.66,0,0,0-20.2-7c-7.72,2.12-13,8.54-15.94,15.7-.87,2.14.63,4.47,2.3,5.64,8.82,6.18,20.74,6.62,30.26,1.87a5,5,0,0,0,2.38-5,5.1,5.1,0,0,0-3.58-4.16,48.34,48.34,0,0,0-24-2.28c-2.6.37-4.25,3.8-3.49,6.15.92,2.84,3.37,3.89,6.15,3.49Z"/><path class="cls-2" d="M46.37,113.17c.82-4.1-1.23-7.63-2.53-11.2-3.09-8.47-6-17-6.9-26-.71-6.75-3.31-12.92-5.22-19.32-1.3-4.37-2.83-8.88-1.18-13.66,1.26-3.67,2.93-5,7.41-5.25,3.13-.15,5,1.18,6.32,4.56,2.49,6.21,3.66,12.77,4.89,19.3,1.51,8,5.08,15.47,6.75,23.48,1.33,6.38,3.21,12.65,4.85,19a8,8,0,0,0,2,3.69c3.13-1.19,4.39-3.21,4.34-6.5C67,94.09,65.58,87,66,79.84s.57-14.51,1.12-21.74c.36-4.86-.45-9.6-.68-14.39-.21-4.54-1.08-9.2.31-13.67,1.83-5.83,2.94-7,8-6.68,4.23.24,6.59,2.45,7,7,.37,4.32.73,8.66.68,13-.12,9.53,1.28,19,1.73,28.42.46,9.81.28,19.64.46,29.46,0,.93-.64,2,.65,2.84,1.62,1,2.33-.54,3.13-1.14,4.18-3.12,5.46-7.85,7.18-12.53,4-10.91,8.09-21.79,11.06-33,1.47-5.54,2.3-11.23,3.61-16.81a18.07,18.07,0,0,1,3.4-7.08c2.52-3.24,6.07-3.44,9.13-2.57,3.37,1,4.22,4.37,4.32,7.88a47.35,47.35,0,0,1-2.32,15.73c-1.93,6-2.39,12.18-3.31,18.3A93.29,93.29,0,0,1,116.41,91c-2.6,7.09-5.69,14.09-7.07,21.48A93.85,93.85,0,0,0,108,141.26c.79,6.54,1.06,13.42-.61,20-1.46,5.72-1.31,11.45-1.29,17.21a35.26,35.26,0,0,1-4,16.43C98.9,201,99.17,207,100.23,213.53c.89,5.47.56,11.23.06,16.8-.37,4.21-1,8.4-.93,12.64"/><path class="cls-2" d="M50.23,125.1a23.39,23.39,0,0,0-2.88-10.49c-1.85-3.45-9-4.13-12.2-1.43a13.29,13.29,0,0,0-4.45,14.69c2.32,7.66,1.68,15.46,2.32,23.19.88,10.41,1.25,21,5,30.82a76,76,0,0,1,4.06,16.89,16.89,16.89,0,0,0,2.52,6.64c3.86,6.18,3.49,12.9,2.76,19.67-.63,5.74-1.39,11.46-2.09,17.19"/><path class="cls-2" d="M58,156c.25-1.76-1.21-4.13,2-5,1.76,1.65,2.82,4.27,5.2,5.29-2.8,11-6.08,21.85-3.73,33.38"/><path class="cls-2" d="M62.51,155.27c-5.49,5.77-10.94,11.59-13,19.64"/><path class="cls-2" d="M83.22,141.94c-5.15-3.63-10.18-7.44-15.47-10.83-5.61-3.58-11.63-6.08-18.58-5.37-1.48.16-3-.55-4.56-.61-2.35-.08-4.75-.31-7,.67"/><path class="cls-2" d="M85.33,170c-3.82.2-7-1.83-10.53-2.8"/><path class="cls-2" d="M34.09,138.78c3.9,5,9.13,7.94,15.08,9.84,3,.95,5.86,2.09,8.78,3.14"/><path class="cls-2" d="M48.83,92.12l-8.08-.35"/><path class="cls-2" d="M118,84.76c-1.71-.7-3.51-.21-5.26-.35"/><path class="cls-2" d="M38.3,64.06c-1.26-.27-2,1-3.16,1"/><path class="cls-2" d="M60.76,124.4c-.12.82-.24,1.63-.35,2.45"/><path class="cls-2" d="M82.17,52.13H79.71"/><path class="cls-2" d="M69.88,52.13H67.43"/><path class="cls-3" d="M62.39,127.4c2.41-.26,4.54.89,6.63,1.93,1.84.91,3.67,1.85,5.44,2.88a26.82,26.82,0,0,1,9.18,8c.71,1.07,2.44.07,1.73-1a29.06,29.06,0,0,0-9.9-8.73c-1.92-1.12-3.91-2.12-5.91-3.11-2.25-1.11-4.59-2.25-7.17-2-1.27.14-1.28,2.14,0,2Z"/><path class="cls-3" d="M84.64,139c-3.26.11-4.71-4.12-6.88-5.87a33.49,33.49,0,0,0-4.2-2.4,23.61,23.61,0,0,1-4.14-3.18c-.92-.89-2.34.52-1.41,1.41a25.41,25.41,0,0,0,4.31,3.35c1.51.93,3.32,1.5,4.6,2.75,2.34,2.28,3.87,6.07,7.72,5.94,1.28,0,1.29-2,0-2Z"/><path class="cls-3" d="M35.1,125.64,50,124.53c1.28-.09,1.29-2.09,0-2l-14.9,1.11c-1.28.1-1.29,2.1,0,2Z"/><path class="cls-3" d="M59.25,154.23a8.18,8.18,0,0,0,2.12,3.1,1.05,1.05,0,0,0,.71.29,1,1,0,0,0,1-1,1.13,1.13,0,0,0-.29-.7,13.31,13.31,0,0,0-3-2.71,1,1,0,0,0-1.37.36,1,1,0,0,0,.36,1.37q.43.28.84.6l-.2-.16a12.65,12.65,0,0,1,2,2l1.42-1.41a6.82,6.82,0,0,1-.9-1l.16.2a6.34,6.34,0,0,1-.92-1.57l.1.24-.06-.13a1.09,1.09,0,0,0-.46-.6,1.08,1.08,0,0,0-.77-.1,1,1,0,0,0-.59.46,1,1,0,0,0-.1.77Z"/><path class="cls-3" d="M62.8,156.89c-2.46,9.79-5.51,19.83-4.7,30,.11,1.27,2.11,1.28,2,0-.79-10,2.21-19.88,4.63-29.51a1,1,0,0,0-1.93-.53Z"/><path class="cls-3" d="M32.83,142.75a214.09,214.09,0,0,0,8.9,46.38c1.32,4.28,2.79,8.52,4.38,12.71.68,1.78,3.58,1,2.89-.8a212.19,212.19,0,0,1-13.17-58.29c-.16-1.91-3.16-1.93-3,0Z"/><path class="cls-3" d="M103.29,192.16c-.15-1.13.56-2.28,1-3.26a13.7,13.7,0,0,0,1.07-3.3,34,34,0,0,0,.25-6.77l-.37-15.26c0-1.93-3-1.93-3,0q.19,7.88.38,15.76a20.75,20.75,0,0,1-.58,7.2c-.76,2.24-2,4-1.63,6.43a1.52,1.52,0,0,0,1.85,1,1.55,1.55,0,0,0,1-1.85Z"/><path class="cls-3" d="M72.62,209.47a107.84,107.84,0,0,1-.69,21.4c-.11.81.77,1.49,1.5,1.5a1.53,1.53,0,0,0,1.5-1.5,107.84,107.84,0,0,0,.69-21.4c-.13-1.92-3.13-1.93-3,0Z"/><path class="cls-3" d="M68.87,55.82h4.22a1.5,1.5,0,0,0,0-3H68.87a1.5,1.5,0,0,0,0,3Z"/><path class="cls-3" d="M37.46,68.22a13.15,13.15,0,0,0,6.28-3,1.51,1.51,0,0,0,0-2.12,1.54,1.54,0,0,0-2.12,0l-.3.24.08-.06-.15.11a7,7,0,0,1-.63.43,11.46,11.46,0,0,1-1.33.73l-.17.08.09,0a1.28,1.28,0,0,0-.35.14q-.36.14-.72.24a10.59,10.59,0,0,1-1.48.34,1.5,1.5,0,0,0-.89.69,1.5,1.5,0,0,0,1.69,2.21Z"/><path class="cls-3" d="M117,84.08h-8.73a1.5,1.5,0,0,0,0,3H117a1.5,1.5,0,0,0,0-3Z"/><path class="cls-3" d="M123.74,37.84c.79,2.34.2,4.75-.57,7A36.49,36.49,0,0,0,121,52.38a1.51,1.51,0,0,0,1.5,1.5,1.53,1.53,0,0,0,1.5-1.5c.31-2.6,1.52-5,2.29-7.49a12.86,12.86,0,0,0,.33-7.85c-.61-1.82-3.51-1-2.9.8Z"/><path class="cls-3" d="M67.48,61.53c-1,6.81-.43,13.82-.24,20.68l.6,21.11c.06,1.93,3.06,1.93,3,0l-.58-20.61c-.2-6.72-.92-13.71.11-20.38.3-1.89-2.6-2.71-2.89-.8Z"/><path class="cls-3" d="M98,212.56a140.84,140.84,0,0,1-3.44,25.12c-.44,1.88,2.46,2.68,2.89.8A145.24,145.24,0,0,0,101,212.56c.09-1.93-2.91-1.92-3,0Z"/><path class="cls-3" d="M100.41,213.74c-.8-9.41-3.44-21.37,4.36-28.73,1.41-1.33-.72-3.44-2.12-2.12-8.51,8-6.12,20.5-5.24,30.85.16,1.9,3.16,1.92,3,0Z"/><path class="cls-3" d="M100.48,198.2a13.59,13.59,0,0,1,0-2.21c0-.18,0-.19,0,0,0-.09,0-.18,0-.27s0-.28.07-.41q.12-.54.27-1.08c.11-.35.24-.7.37-1-.11.28.07-.13.07-.15.08-.17.16-.34.25-.5.17-.33.36-.65.56-1,.1-.16.2-.31.31-.46l.17-.22c-.1.12-.09.11,0,0a1.55,1.55,0,0,0,0-2.13,1.52,1.52,0,0,0-2.12,0,13.41,13.41,0,0,0-3,9.47,1.5,1.5,0,0,0,3,0Z"/><path class="cls-3" d="M102.25,188c-1.81,5.79-4.06,11.57-4.62,17.65s.14,11.92-.15,17.87c-.09,1.93,2.91,1.93,3,0,.28-5.8-.36-11.61.11-17.41s2.78-11.66,4.55-17.31c.57-1.85-2.32-2.64-2.89-.8Z"/><path class="cls-3" d="M101.86,194.62a19,19,0,0,0,4.32-12.88,65.81,65.81,0,0,0-2.83-15.22c-.54-1.85-3.44-1.06-2.9.8a67.67,67.67,0,0,1,2.68,13.5,16.19,16.19,0,0,1-3.39,11.68c-1.2,1.49.91,3.63,2.12,2.12Z"/><path class="cls-3" d="M103.71,166.48a31,31,0,0,1,1.4-4.41c.07-.16.08-.19,0-.07a2.39,2.39,0,0,0,.13-.28c.06-.14.12-.28.19-.42.17-.37.35-.74.53-1.11.35-.69.73-1.36,1.14-2a1.5,1.5,0,1,0-2.59-1.51,30.42,30.42,0,0,0-3.71,9,1.5,1.5,0,0,0,2.89.8Z"/><path class="cls-3" d="M107.84,156.25a84.71,84.71,0,0,0-.69-11.81,1.55,1.55,0,0,0-1.5-1.5c-.73,0-1.61.69-1.5,1.5a84.71,84.71,0,0,1,.69,11.81,1.5,1.5,0,0,0,3,0Z"/><path class="cls-3" d="M97.5,221.85c.23,3.31-.72,6.56-1.43,9.76-.67,3-1.16,6.17-2.45,9a1.55,1.55,0,0,0,.53,2.06,1.53,1.53,0,0,0,2.06-.54,47.76,47.76,0,0,0,2.75-9.7c.77-3.45,1.79-7,1.54-10.56-.13-1.92-3.13-1.93-3,0Z"/><path class="cls-3" d="M59.3,155.78a1.5,1.5,0,0,0,0-3,1.5,1.5,0,0,0,0,3Z"/><path class="cls-3" d="M59.3,155.5a1.5,1.5,0,0,0,0-3,1.5,1.5,0,0,0,0,3Z"/><path class="cls-3" d="M64,128.91c4.16,2.37,8.23,4.88,12.28,7.42s7.9,4.86,11.74,7.45c1.6,1.09,3.11-1.51,1.51-2.59-3.83-2.59-7.81-5-11.74-7.45s-8.11-5.05-12.27-7.42c-1.68-.95-3.2,1.64-1.52,2.59Z"/><circle class="cls-4" cx="143.63" cy="148.77" r="4.8"/><circle class="cls-4" cx="130.43" cy="103.32" r="4.8"/><circle class="cls-4" cx="28.14" cy="13.2" r="4.8"/><circle class="cls-4" cx="19.37" cy="89.17" r="4.8"/><circle class="cls-4" cx="96.08" cy="37.44" r="3.39"/><polygon class="cls-4" points="138.83 192.51 130.43 192.51 130.43 192.51 138.83 192.51 138.83 192.51"/><rect class="cls-4" x="134.6" y="188.28" height="8.4"/><polygon class="cls-4" points="147.83 44.95 139.43 44.95 139.43 44.95 147.83 44.95 147.83 44.95"/><rect class="cls-4" x="143.6" y="40.71" height="8.4"/><polygon class="cls-4" points="80.96 4.24 72.56 4.24 72.56 4.24 80.96 4.24 80.96 4.24"/><rect class="cls-4" x="76.73" height="8.4"/><polygon class="cls-4" points="8.4 145.31 0 145.31 0 145.31 8.4 145.31 8.4 145.31"/><rect class="cls-4" x="4.17" y="141.07" height="8.4"/></g></g></svg>