<svg xmlns="http://www.w3.org/2000/svg" viewBox="0 0 98.39 227.36"><defs><style>.cls-1{fill:#f4dbc0;}.cls-2{fill:none;stroke:#000;stroke-linecap:round;stroke-linejoin:round;stroke-width:2px;}</style></defs><title>Asset 17</title><g id="Layer_2" data-name="Layer 2"><g id="Layer_8" data-name="Layer 8"><path class="cls-1" d="M29.69,227.33a225.13,225.13,0,0,0,40.4-3.11c5.33-.88,8.3-7.49,7-12.3-1.56-5.67-6.95-7.86-12.3-7a195.22,195.22,0,0,1-35.08,2.4c-12.88-.22-12.88,19.78,0,20Z"/><path class="cls-1" d="M38.62,211.79c1.13-8.32,2.41-16.69,2.3-25.11-.1-8.06-2.51-15.93-2.07-24,.7-12.86-19.31-12.82-20,0-.4,7.44,1.72,14.63,2,22a123.81,123.81,0,0,1-1.54,21.75c-.73,5.35,1.29,10.74,7,12.3,4.66,1.29,11.56-1.59,12.3-7Z"/><path class="cls-1" d="M21.6,111.51Q18,130.7,15,150l20.34,2.75c-.35-8.07-3.19-14.26-6.54-21.44-2.92-6.26-4-13.33-5.19-20.08L8.4,122.91c7.94,3.41,16.37,5.54,24.28,8.9,5.65,2.4,7.15,7.32,7.79,13.11,1,9-.26,18.05,0,27.05.23,8.34,2.42,16.76,1.17,25.07-.65,4.28-1,8.1,1.29,12.07,3.17,5.37,9.09,6.08,14.66,5.17,8.49-1.38,15.87-6.37,18-15.09,2.06-8.36,1.78-17.81,2.32-26.37.58-9.35,1-18.71.9-28.08a256.47,256.47,0,0,0-2.37-31.56c-.5-3.85-1.08-7.83.08-11.6,1.44-4.69,3.34-8.67,3.15-13.75-.49-13.29-21.21-13.35-20.71,0,.13,3.61-2.31,7.1-3,10.66-1.13,5.45-.73,10.76,0,16.22a239.84,239.84,0,0,1,2.19,31c0,10.34-.47,20.67-1.17,31-.17,2.58-.36,5.16-.55,7.74-.15,2-1.41,6.58-.65,8.44.36.88-.56,1.44,1,.28a8.7,8.7,0,0,1-4.09.9l5.22,1.41-.78-.52,3.71,3.72-.41-.85L61.8,203c-.29-2.41,1.09-9,.87-13.36-.26-5.3-1.19-10.54-1.44-15.85-.53-11.05,1-22-.55-33.06-1.35-10-5.4-19-13.91-24.83-8.14-5.54-18.93-7.06-27.91-10.91-8.52-3.65-16.88,2.3-15.22,11.7C4.81,123.32,6,129.9,8.49,136.15c2.16,5.5,5.88,10.55,6.15,16.59a10.38,10.38,0,0,0,9,10.17c4.6.55,10.57-2.26,11.36-7.42q3-19.29,6.59-38.47c1-5.49-1.53-11.17-7.23-12.74-5.06-1.39-11.69,1.71-12.74,7.23Z"/><path class="cls-1" d="M82.68,79.08a264.61,264.61,0,0,1,5.68-33.76c2.6-11,7.34-21.95,8.43-33.25.93-9.64-14.14-9.58-15.07,0-.53,5.52-3,11-4.51,16.32Q74.84,36.64,73,45a301.24,301.24,0,0,0-5.38,34c-.41,4.06,3.76,7.54,7.53,7.54,4.42,0,7.12-3.47,7.54-7.54Z"/><path class="cls-1" d="M27.41,105.72a21.06,21.06,0,0,0,2.87-.15c1.6.1,1.31-.14-.89-.72-2-1.12-2.39-1-1.06.24a22.61,22.61,0,0,0,4.15,4.74c5.12,4.47,12.21,2.89,16.42-2,3-3.47,3.4-8.62,0-12-3.08-3.07-9-3.48-12,0-1.67,1.65-.37,1.57,3.87-.23l3.75,2.19c-2.73-2.13-4.09-5.62-7.09-7.49s-6.49-1.86-10-1.6c-4.58.33-8.5,3.66-8.5,8.5,0,4.34,3.9,8.84,8.5,8.5Z"/><path class="cls-1" d="M8.68,11.23c6.43,17.35,13.87,34.65,18.39,52.62,4.05,16.07,7,32.86,17,46.57,5.24,7.22,17.4.24,12.09-7.07-9.6-13.21-12-29.38-16-44.82-4.51-17.4-11.75-34.19-18-51C19.07-.87,5.54,2.76,8.68,11.23Z"/><path class="cls-1" d="M60,82a31.7,31.7,0,0,0-6.37-.33c-.66,0-1.29,0-1.94,0,.87.14.91.12.11,0a2.07,2.07,0,0,1,1.08.69c-2.83-2.32-7.16-3-9.89,0-2.36,2.56-3,7.42,0,9.9a14.27,14.27,0,0,0,8.11,3.4,19.44,19.44,0,0,0,2.53.07c.63,0,1.26-.08,1.89-.09.19,0,1.74.07.76-.08,3.6.56,7.7-.92,8.61-4.89.76-3.35-1-8-4.89-8.61Z"/><path class="cls-1" d="M50.71,80.54c-9.17-25.12-17.29-51.18-29.46-75-4.1-8-16.18-1-12.09,7.07,11.62,22.77,19.3,47.71,28.05,71.69,3.06,8.39,16.59,4.77,13.5-3.72Z"/><path class="cls-1" d="M10.42,9.93A269.06,269.06,0,0,1,24,55.32c1.82,8.82,15.32,5.09,13.5-3.72A269.45,269.45,0,0,0,23.92,6.2C22.51,2.67,19.25.27,15.31,1.31,12,2.2,9,6.42,10.42,9.93Z"/><path class="cls-1" d="M71.52,90.24c.42-2,1.85-3.52,2.87-5.31a50,50,0,0,0,3.09-6.74c1.69-4.21,3-8.34,5.66-12.1,5.16-7.41-7-14.42-12.08-7.06-3,4.27-4.62,9.13-6.49,13.94S59,81.58,58,86.52c-1.79,8.8,11.7,12.56,13.5,3.72Z"/><path class="cls-1" d="M88,17.1c9,0,9-14,0-14s-9,14,0,14Z"/><path class="cls-1" d="M82.45,23.31c-.31,4.5-2.71,8.76-3.15,13.37-.5,5.25-.46,10.46-1.34,15.69-1.68,10-4.63,19.7-7.58,29.37-2.63,8.63,10.88,12.33,13.5,3.72C87,75.21,90.14,64.9,91.75,54.28c.79-5.24,1-10.43,1.42-15.7s2.91-9.95,3.28-15.27c.62-9-13.39-8.95-14,0Z"/><path class="cls-1" d="M89.94,25c9,0,9-14,0-14s-9,14,0,14Z"/><path class="cls-1" d="M69.86,88.53c-3.26,9.81-2.78,20.06-2.19,30.22.63,10.92,1.48,21.83,3.73,32.56,1.85,8.81,15.35,5.08,13.5-3.73-2-9.51-2.67-19.14-3.23-28.83-.52-8.94-1.18-17.86,1.69-26.5S72.69,80,69.86,88.53Z"/><path class="cls-1" d="M76.43,174.49c9,0,9-14,0-14s-9,14,0,14Z"/><path class="cls-1" d="M75.3,178.15c9,0,9-14,0-14s-9,14,0,14Z"/><path class="cls-1" d="M83.71,164.39v-7.88c0-3.66-3.22-7.17-7-7a7.11,7.11,0,0,0-7,7v7.88c0,3.66,3.22,7.17,7,7a7.12,7.12,0,0,0,7-7Z"/><path class="cls-1" d="M29.52,94.34c-.38-1.08-.05.84-.07,1.23-.05,1.43.28-.61-.14.62q-.39.87,0,.09l-.58.73a6.21,6.21,0,0,0,.75-.78c.49-.61-1.1.69-.37.26a8.68,8.68,0,0,1,1-.61c.08.1-1.53.36-.39.19-1.87.27-.63.08-.06.14,3.66.36,7.16-3.48,7-7-.18-4.1-3.08-6.61-7-7C22,81.44,13.28,90.33,16,98.06c1.21,3.44,4.83,6.11,8.61,4.89,3.4-1.1,6.19-4.92,4.89-8.61Z"/><path class="cls-1" d="M25.74,95.93c9,0,9-14,0-14s-9,14,0,14Z"/><path class="cls-1" d="M10.26,114c9,0,9-14,0-14s-9,14,0,14Z"/><path class="cls-1" d="M10.54,113.39c9,0,9-14,0-14s-9,14,0,14Z"/><path class="cls-1" d="M10.54,113.11c9,0,9-14,0-14s-9,14,0,14Z"/><path class="cls-1" d="M22.08,117.61c9,0,9-14,0-14s-9,14,0,14Z"/><path class="cls-1" d="M8,117.61c9,0,9-14,0-14s-9,14,0,14Z"/><path class="cls-1" d="M1.21,126.34c2.55,4.88,3.09,9.85,3.44,15.26a154.11,154.11,0,0,0,2.07,17.27,143.16,143.16,0,0,0,10.46,33.07c3.67,8.22,15.73,1.1,12.09-7.06a127.46,127.46,0,0,1-9.64-33.34c-1.63-11.19-.93-21.95-6.34-32.26-4.18-8-16.27-.92-12.08,7.06Z"/><path class="cls-1" d="M69.67,214.19c9,0,9-14,0-14s-9,14,0,14Z"/><path class="cls-1" d="M69.67,211.65c9,0,9-14,0-14s-9,14,0,14Z"/><path class="cls-1" d="M46.69,210.86l-.47-5.08a7.6,7.6,0,0,0-2-4.95,7,7,0,0,0-9.9,0,6.85,6.85,0,0,0-2.05,4.95l.47,5.08a7.53,7.53,0,0,0,2.05,4.95,7,7,0,0,0,9.9,0,6.83,6.83,0,0,0,2-4.95Z"/><path class="cls-1" d="M71.08,224.32c9,0,9-14,0-14s-9,14,0,14Z"/><path class="cls-1" d="M25.74,227.14c9,0,9-14,0-14s-9,14,0,14Z"/><path class="cls-1" d="M77.55,136.48c9,0,9-14,0-14s-9,14,0,14Z"/><path class="cls-1" d="M77.27,138.73c9,0,9-14,0-14s-9,14,0,14Z"/><path class="cls-1" d="M77.27,142.67c9,0,9-14,0-14s-9,14,0,14Z"/><path class="cls-1" d="M86,23.57c9,0,9-14,0-14s-9,14,0,14Z"/></g><g id="Layer_1-2" data-name="Layer 1"><path class="cls-2" d="M72.16,55.49l-1.63-.81c2.57-8.74,5.56-17.19,7.39-25.89.9-4.28.89-8.88,1.63-13.29A30.54,30.54,0,0,1,82,7.42c1.58-3.35,4.27-4.5,7.74-4.18a7,7,0,0,1,6.35,4.88,23.4,23.4,0,0,1,.87,12.61C95,31,93.75,41.3,92.47,51.63c-1,8-3.75,15.57-6.34,23.13C83.7,81.86,83,89.19,81.94,96.53A76.59,76.59,0,0,0,84,126c1.26,5,.33,10.26.18,15.42-.21,7.25,0,14.53-.86,21.74-.58,5.21-2.47,10.16-4.21,15.07a43.54,43.54,0,0,0-2.07,23.53,10.51,10.51,0,0,1,0,2.1v17.89"/><path class="cls-2" d="M70.4,55.49c-1.87,5.73-3.77,11.45-5.6,17.2a19.26,19.26,0,0,1-3.53,6c-2.44,3.14-5.89,3.62-9.46,3.1-2.35-.34-3.3-2.59-3.81-4.51-2.48-9.44-4.8-18.92-7-28.41a25.11,25.11,0,0,0-2.17-5.6C34.16,34,31.29,24.05,27.58,14.45A58.39,58.39,0,0,0,23,4.63,8.26,8.26,0,0,0,12.49,1.82c-4,1.84-5.7,5.33-4.16,9.45,2,5.45,4.34,10.81,6.64,16.15,3.16,7.36,4.87,15.15,7,22.83A197.07,197.07,0,0,0,29.6,73.42a19.53,19.53,0,0,1,1.85,8"/><path class="cls-2" d="M1.62,116.53c-1.35,5.26.11,10.18,1.73,15.09.46,1.37,1.18,2.65,1.09,4.21-.69,12.3,3.24,23.82,6.41,35.4a144,144,0,0,0,7.72,21c2.95,6.52,1.86,13.1,1.57,19.69-.2,4.44-.65,8.88-.63,13.33"/><path class="cls-2" d="M31.45,81.8c5,3.39,5.25,8.82,6,14,.33,2.45.62,4.92.92,7.36a21.47,21.47,0,0,1-4.44-.31,19.27,19.27,0,0,0-12.63,1c-1.46.66-2.86.2-3.1-1.4C17.48,98,16,93.24,17.23,88.87c1.57-5.7,3.28-7,10.35-7.46,1.19-.08,2.35,1,3.52,0"/><path class="cls-2" d="M17.41,101.1c-1.87.08-2.16-2-3.83-2.56-3.93-1.25-7.78-.23-9.82,3.63-3,5.65-4.52,11,.5,17,4,4.71,6.63,10.55,9.55,16,.94,1.76,2.25,3.31,2.9,5.22"/><path class="cls-2" d="M43.38,130.92a14.73,14.73,0,0,1,6.72,6.28C53,142.44,55.72,147.78,61.25,151c4.29,2.46,8.71,4.22,13.71,4.17"/><path class="cls-2" d="M81.28,132.67c-.63-2.59-2.35-4.16-4.51-5.68-5.91-4.16-11.17-9.14-16.57-13.94-5.1-4.54-11.24-7-17.87-8.46a29.93,29.93,0,0,1-3.16-1"/><path class="cls-2" d="M43,132.67c.95,3.93,2.24,7.47-.48,11.72-2.17,3.38-2.33,8-3.38,12.13"/><path class="cls-2" d="M42,130.92l-5.61-1.06"/><path class="cls-2" d="M76.37,51.28c-1.4-.16-2.86.39-4.21-.35"/><path class="cls-2" d="M20.92,120c2.84,2.11,5.78,4.15,4.91,8.42"/><path class="cls-2" d="M81.28,29.53c-.93-.19-2,.39-2.81-.35"/><path class="cls-2" d="M65.84,113c-.33,1.08-1.26,1.55-2.11,2.11"/><path class="cls-1" d="M54.64,196.76c.9-15.7-.73-31.41.13-47.11a130.53,130.53,0,0,1,3.47-21.5c1.7-7.5,2.51-15.26,5-22.57,1.91-5.62-2.2-12-7.69-13.53-6-1.65-11.61,2-13.53,7.68-2.58,7.6-3.44,15.7-5.2,23.5a162.49,162.49,0,0,0-3.93,24.51c-1.13,16.33.69,32.69-.25,49-.34,5.94,5.3,11,11,11,6.24,0,10.66-5,11-11Z"/><path d="M16.45,141.34a221.85,221.85,0,0,1,40.34,5.18c1.25.28,1.79-1.65.53-1.93a225.92,225.92,0,0,0-40.87-5.25c-1.29-.05-1.29,1.95,0,2Z"/><path d="M39.86,104.65c3.67.54,6.66,2.76,9.62,4.85a57.73,57.73,0,0,0,10.39,5.93c1.17.51,2.19-1.22,1-1.73a59.43,59.43,0,0,1-10.67-6.12c-3-2.12-6.1-4.31-9.82-4.86-1.26-.19-1.8,1.74-.53,1.93Z"/></g></g></svg>