<svg xmlns="http://www.w3.org/2000/svg" xmlns:xlink="http://www.w3.org/1999/xlink" viewBox="0 0 151.12 201.78"><defs><style>.cls-1{fill:url(#linear-gradient);}</style><linearGradient id="linear-gradient" x1="2.19" y1="100.57" x2="148.71" y2="100.57" gradientUnits="userSpaceOnUse"><stop offset="0" stop-color="#f9e6d5"/><stop offset="1" stop-color="#f4d6b0"/></linearGradient></defs><title>Asset 21</title><g id="Layer_2" data-name="Layer 2"><g id="Layer_1-2" data-name="Layer 1"><path class="cls-1" d="M87.16,167.61V199H35.8c0-8.54-.07-17.11,0-25.69,0-3.41-.45-6-3.48-8.56-2.84-2.42-4.73-6.43-6-10.1A115.15,115.15,0,0,1,19.8,105.2c.39-4.23-.95-8.87-2.43-13C13,80,8,68.09,3.59,55.92,1.05,48.86,2,45,6.12,44c6.16-1.53,6.6,4.22,7.94,7.56C19.3,64.6,24,77.91,28.92,91.09a43.07,43.07,0,0,0,3,5.45l2.1-.63c-.13-2.3-.1-4.62-.41-6.9C31,69.8,28.24,50.59,25.64,31.38a43.13,43.13,0,0,1-.33-7.95c.23-4.63,3-7.46,7-7.56s6.92,2.41,7.43,7.1c2.2,20.29,4.29,40.59,6.42,60.89.18,1.65.31,3.31.56,5,.51,3.27,2.65,5.61,5.73,4.72,2-.57,4.48-3.44,4.55-5.35.19-5.77-.79-11.56-1.15-17.35Q54,42,52.38,13.19a16.25,16.25,0,0,1,.27-3.47c.58-3.76,1.49-7.64,6.26-7.57s7.25,3.47,7.85,7.7C67.83,17.39,68.58,25,69,32.6c.84,14.25,1.27,28.52,2.08,42.77a25.74,25.74,0,0,0,2,8.65c1.52,3.49,4.74,3.54,6.15,0a77.65,77.65,0,0,0,3.95-13.82c2.8-14.49,5.22-29.06,8-43.55a22,22,0,0,1,3.51-8.13c1.06-1.54,3.55-3.18,5.16-3a6.17,6.17,0,0,1,4.13,4.2c.67,5.71,1.34,11.62.57,17.25-2.32,16.93-5.51,33.73-8,50.64A124.69,124.69,0,0,0,95.35,109c.07,2.58,2.35,5.59,4.45,7.49,2.56,2.33,5.43.9,8.09-1,7.37-5.4,14.81-10.74,22.44-15.78a26.94,26.94,0,0,1,9.46-4.11c5.59-1.07,10,2.88,8.68,8.33A27.19,27.19,0,0,1,141.61,116c-6.56,6.56-14.22,12-21,18.44-4.37,4.17-8,9.16-11.76,13.92-3.4,4.28-6.07,9.25-10,13C96,164.06,91.66,165.29,87.16,167.61Z"/><path d="M31.12,87.77C29.26,76.84,27,66,25.64,55,24.35,44.76,23.7,34.47,23.23,24.2c-.29-6.33,3.49-10.27,8.94-10.45s9.16,3.4,9.82,9.68q3.23,31,6.48,61.91c.12,1.15,0,2.5.53,3.4.7,1.13,2,2.63,3,2.6s2.63-1.62,2.82-2.73a29.72,29.72,0,0,0-.1-6.92c-1.49-22.52-3-45-4.49-67.57A25.73,25.73,0,0,1,50.8,7.7c.78-4,2.7-7.29,7.28-7.66a8.86,8.86,0,0,1,9.5,5.87,40.06,40.06,0,0,1,2.47,11.61C71,32.26,71.43,47,72.22,61.78c.31,5.79.93,11.58,1.59,17.34a26.48,26.48,0,0,0,1.57,5l1.46.21c.82-2.16,2-4.25,2.4-6.48C82,63.47,84.4,49.08,87.17,34.74a92.46,92.46,0,0,1,4-14.35c1.48-4,4.17-7.74,9.1-7.07s6.8,5,6.77,9.25a188.45,188.45,0,0,1-1.61,23.74C103,63.9,100.13,81.42,97.6,99a47.24,47.24,0,0,0-.26,10.43c.43,5.38,4.72,7.33,9.09,4.29,7.1-4.94,14.06-10.07,21.22-14.93a42.3,42.3,0,0,1,9.18-4.92c3.88-1.4,8-1.37,11.16,1.91a10,10,0,0,1,2.17,11.54,37.09,37.09,0,0,1-6.47,9.82c-3.13,3.4-6.92,6.21-10.52,9.17-10.15,8.34-20,16.8-26.3,28.79-3.6,6.82-9.11,12.34-17.56,13.37,0,9.25-.21,18.21.09,27.14.14,4.17-.74,5.87-5.38,5.82-15.15-.16-30.3,0-45.44.35-3.87.07-5.33-1.06-5.18-5.05.31-8,.26-15.94.21-23.9,0-1.56-.14-3.69-1.11-4.58-8.16-7.49-10.25-17.66-12.42-27.69-2.61-12-3.81-24.19-2.26-36.6.44-3.53-1.13-7.49-2.44-11-4.09-11-8.56-22-12.76-33A54.53,54.53,0,0,1,.18,51.36a8.17,8.17,0,0,1,5.29-9.54c4.49-1.5,7.1.93,8.61,4.63C19.28,59.19,24.32,72,29.41,84.8c.4,1,.77,2.06,1.16,3.09Zm56,79.84c4.5-2.32,8.86-3.55,11.76-6.31,3.91-3.71,6.58-8.68,10-13,3.78-4.76,7.39-9.75,11.76-13.92,6.73-6.42,14.39-11.88,21-18.44a27.19,27.19,0,0,0,6.86-12.13c1.34-5.45-3.09-9.4-8.68-8.33a26.94,26.94,0,0,0-9.46,4.11c-7.63,5-15.07,10.38-22.44,15.78-2.66,2-5.53,3.38-8.09,1-2.1-1.9-4.38-4.91-4.45-7.49a124.69,124.69,0,0,1,1.31-21.31c2.45-16.91,5.64-33.71,8-50.64.77-5.63.1-11.54-.57-17.25a6.17,6.17,0,0,0-4.13-4.2c-1.61-.21-4.1,1.43-5.16,3a22,22,0,0,0-3.51,8.13c-2.82,14.49-5.24,29.06-8,43.55A77.65,77.65,0,0,1,79.26,84c-1.41,3.52-4.63,3.47-6.15,0a25.74,25.74,0,0,1-2-8.65C70.3,61.12,69.87,46.85,69,32.6c-.45-7.6-1.2-15.21-2.27-22.75-.6-4.23-3.15-7.63-7.85-7.7S53.23,6,52.65,9.72a16.25,16.25,0,0,0-.27,3.47Q54.06,42,55.84,70.83c.36,5.79,1.34,11.58,1.15,17.35-.07,1.91-2.6,4.78-4.55,5.35-3.08.89-5.22-1.45-5.73-4.72-.25-1.64-.38-3.3-.56-5C44,63.56,41.93,43.26,39.73,23c-.51-4.69-3.33-7.2-7.43-7.1s-6.76,2.93-7,7.56a43.13,43.13,0,0,0,.33,8C28.24,50.59,31,69.8,33.58,89c.31,2.28.28,4.6.41,6.9l-2.1.63a43.07,43.07,0,0,1-3-5.45C24,77.91,19.3,64.6,14.06,51.52c-1.34-3.34-1.78-9.09-7.94-7.56-4.1,1-5.07,4.9-2.53,12C8,68.09,13,80,17.37,92.21c1.48,4.12,2.82,8.76,2.43,13a115.15,115.15,0,0,0,6.52,49.44c1.3,3.67,3.19,7.68,6,10.1,3,2.59,3.52,5.15,3.48,8.56-.1,8.58,0,17.15,0,25.69H87.16Z"/></g></g></svg>